<svg width="16" height="16" viewBox="0 0 16 16" fill="none" xmlns="http://www.w3.org/2000/svg">
<path d="M14.6666 8.46534C14.6653 9.44534 14.658 10.2773 14.6026 10.9607C14.538 11.754 14.4053 12.4167 14.1093 12.9667C13.98 13.2077 13.816 13.4285 13.6226 13.622C13.0673 14.1773 12.3606 14.4287 11.4646 14.5487C10.5893 14.6667 9.46663 14.6667 8.0353 14.6667H7.96463C6.53263 14.6667 5.4113 14.6667 4.5353 14.5487C3.63996 14.4287 2.93263 14.1773 2.37796 13.622C1.88596 13.13 1.6313 12.518 1.49663 11.7587C1.3633 11.012 1.3393 10.084 1.33463 8.93134C1.3333 8.63801 1.33285 8.32756 1.3333 8.00001V7.96401C1.3333 6.53201 1.3333 5.41067 1.4513 4.53467C1.5713 3.63934 1.82263 2.93201 2.37796 2.37734C2.9333 1.82267 3.63996 1.57067 4.5353 1.45067C5.31396 1.34601 6.3153 1.33401 7.53463 1.33267C7.65804 1.33267 7.7764 1.3817 7.86367 1.46897C7.95094 1.55623 7.99996 1.67459 7.99996 1.79801C7.99996 1.92142 7.95094 2.03978 7.86367 2.12705C7.7764 2.21431 7.65804 2.26334 7.53463 2.26334C6.29796 2.26467 5.37863 2.27534 4.6593 2.37201C3.86663 2.47867 3.38863 2.68134 3.0353 3.03467C2.68196 3.38801 2.47996 3.86667 2.3733 4.66001C2.26463 5.46667 2.2633 6.52534 2.2633 8.00001V8.52267L2.88463 7.98001C3.15698 7.74171 3.50971 7.61583 3.87139 7.62783C4.23308 7.63984 4.57668 7.78884 4.83263 8.04467L7.49263 10.7047C7.69901 10.9112 7.97163 11.0382 8.26248 11.0635C8.55333 11.0887 8.84376 11.0105 9.08263 10.8427L9.26796 10.7127C9.61248 10.4705 10.029 10.3524 10.4493 10.3778C10.8697 10.4031 11.269 10.5703 11.582 10.852L13.3373 12.432C13.514 12.0607 13.6193 11.5733 13.6753 10.8853C13.728 10.2373 13.7353 9.45067 13.736 8.46534C13.736 8.34193 13.785 8.22357 13.8723 8.1363C13.9595 8.04903 14.0779 8.00001 14.2013 8.00001C14.3247 8.00001 14.4431 8.04903 14.5303 8.1363C14.6176 8.22357 14.6666 8.34193 14.6666 8.46534Z" fill="white"/>
<path fill-rule="evenodd" clip-rule="evenodd" d="M11.6666 7.33334C10.2526 7.33334 9.54529 7.33334 9.10596 6.89401C8.66663 6.45468 8.66663 5.74734 8.66663 4.33334C8.66663 2.91934 8.66663 2.21201 9.10596 1.77268C9.54529 1.33334 10.2526 1.33334 11.6666 1.33334C13.0806 1.33334 13.788 1.33334 14.2273 1.77268C14.6666 2.21201 14.6666 2.91934 14.6666 4.33334C14.6666 5.74734 14.6666 6.45468 14.2273 6.89401C13.788 7.33334 13.0806 7.33334 11.6666 7.33334ZM12.1666 3.00001C12.1666 2.8674 12.1139 2.74022 12.0202 2.64646C11.9264 2.55269 11.7992 2.50001 11.6666 2.50001C11.534 2.50001 11.4068 2.55269 11.3131 2.64646C11.2193 2.74022 11.1666 2.8674 11.1666 3.00001V3.83334H10.3333C10.2007 3.83334 10.0735 3.88602 9.97974 3.97979C9.88597 4.07356 9.83329 4.20074 9.83329 4.33334C9.83329 4.46595 9.88597 4.59313 9.97974 4.6869C10.0735 4.78067 10.2007 4.83334 10.3333 4.83334H11.1666V5.66668C11.1666 5.79929 11.2193 5.92646 11.3131 6.02023C11.4068 6.114 11.534 6.16668 11.6666 6.16668C11.7992 6.16668 11.9264 6.114 12.0202 6.02023C12.1139 5.92646 12.1666 5.79929 12.1666 5.66668V4.83334H13C13.1326 4.83334 13.2597 4.78067 13.3535 4.6869C13.4473 4.59313 13.5 4.46595 13.5 4.33334C13.5 4.20074 13.4473 4.07356 13.3535 3.97979C13.2597 3.88602 13.1326 3.83334 13 3.83334H12.1666V3.00001Z" fill="white"/>
</svg>
