<svg width="24" height="25" viewBox="0 0 24 25" fill="none" xmlns="http://www.w3.org/2000/svg">
<path d="M14.707 7.4945C14.6148 7.39899 14.5044 7.3228 14.3824 7.2704C14.2604 7.21799 14.1292 7.1904 13.9964 7.18925C13.8636 7.18809 13.7319 7.21339 13.609 7.26368C13.4861 7.31396 13.3745 7.38821 13.2806 7.4821C13.1867 7.57599 13.1125 7.68765 13.0622 7.81054C13.0119 7.93344 12.9866 8.06512 12.9877 8.1979C12.9889 8.33068 13.0165 8.4619 13.0689 8.5839C13.1213 8.70591 13.1975 8.81625 13.293 8.9085L15.586 11.2015H6C5.73478 11.2015 5.48043 11.3069 5.29289 11.4944C5.10536 11.6819 5 11.9363 5 12.2015C5 12.4667 5.10536 12.7211 5.29289 12.9086C5.48043 13.0961 5.73478 13.2015 6 13.2015H15.586L13.293 15.4945C13.1108 15.6831 13.01 15.9357 13.0123 16.1979C13.0146 16.4601 13.1198 16.7109 13.3052 16.8963C13.4906 17.0817 13.7414 17.1869 14.0036 17.1892C14.2658 17.1915 14.5184 17.0907 14.707 16.9085L18.707 12.9085C18.8945 12.721 18.9998 12.4667 18.9998 12.2015C18.9998 11.9363 18.8945 11.682 18.707 11.4945L14.707 7.4945Z" fill="black"/>
</svg>
