<svg width="24" height="25" viewBox="0 0 24 25" fill="none" xmlns="http://www.w3.org/2000/svg">
<path d="M6.42895 2.91301C6.55502 2.76254 6.61707 2.56863 6.60178 2.37292C6.58649 2.17721 6.49508 1.99529 6.34716 1.86622C6.19924 1.73716 6.00662 1.67123 5.81064 1.68259C5.61466 1.69396 5.43095 1.78171 5.29895 1.92701L4.00695 3.40701C3.27433 4.24658 2.86018 5.31698 2.83695 6.43101L2.77995 9.15001C2.77791 9.2485 2.79529 9.34643 2.8311 9.4382C2.86691 9.52997 2.92045 9.6138 2.98866 9.68488C3.05686 9.75596 3.1384 9.81292 3.22861 9.85249C3.31883 9.89206 3.41595 9.91347 3.51445 9.91551C3.61294 9.91754 3.71086 9.90016 3.80264 9.86435C3.89441 9.82854 3.97823 9.775 4.04932 9.7068C4.1204 9.6386 4.17735 9.55706 4.21692 9.46684C4.25649 9.37663 4.27791 9.2795 4.27995 9.18101L4.33595 6.46301C4.35199 5.70074 4.63552 4.96837 5.13695 4.39401L6.42895 2.91301Z" fill="white"/>
<path fill-rule="evenodd" clip-rule="evenodd" d="M6.23695 8.2C6.30411 7.13014 6.77647 6.12608 7.55787 5.39224C8.33928 4.65839 9.37098 4.24993 10.4429 4.25H10.9999V3.5C10.9999 3.23478 11.1053 2.98043 11.2928 2.79289C11.4804 2.60536 11.7347 2.5 11.9999 2.5C12.2652 2.5 12.5195 2.60536 12.7071 2.79289C12.8946 2.98043 12.9999 3.23478 12.9999 3.5V4.25H13.5569C14.6289 4.24993 15.6606 4.65839 16.442 5.39224C17.2234 6.12608 17.6958 7.13014 17.7629 8.2L17.9839 11.734C18.0694 13.0812 18.5217 14.3794 19.2919 15.488C19.4513 15.7171 19.5487 15.9835 19.5746 16.2613C19.6005 16.5392 19.5541 16.819 19.4398 17.0736C19.3256 17.3281 19.1474 17.5488 18.9226 17.7142C18.6978 17.8795 18.434 17.9838 18.1569 18.017L14.7499 18.425V19.5C14.7499 20.2293 14.4602 20.9288 13.9445 21.4445C13.4288 21.9603 12.7293 22.25 11.9999 22.25C11.2706 22.25 10.5711 21.9603 10.0554 21.4445C9.53968 20.9288 9.24995 20.2293 9.24995 19.5V18.425L5.84295 18.016C5.56604 17.9827 5.30246 17.8784 5.0778 17.7131C4.85313 17.5478 4.67503 17.3273 4.5608 17.0729C4.44657 16.8184 4.40009 16.5388 4.42587 16.2611C4.45165 15.9834 4.54883 15.7171 4.70795 15.488C5.47819 14.3794 5.93052 13.0812 6.01595 11.734L6.23695 8.2ZM10.4429 5.75C9.75252 5.74992 9.08802 6.01297 8.58473 6.48561C8.08144 6.95825 7.7772 7.60493 7.73395 8.294L7.51395 11.828C7.41113 13.4487 6.86681 15.0105 5.93995 16.344C5.92842 16.3606 5.92137 16.3798 5.91949 16.3999C5.9176 16.42 5.92095 16.4403 5.9292 16.4587C5.93746 16.4771 5.95034 16.4931 5.96659 16.505C5.98284 16.517 6.00191 16.5246 6.02195 16.527L9.75895 16.976C11.2479 17.154 12.7519 17.154 14.2409 16.976L17.978 16.527C17.998 16.5246 18.0171 16.517 18.0333 16.505C18.0496 16.4931 18.0624 16.4771 18.0707 16.4587C18.0789 16.4403 18.0823 16.42 18.0804 16.3999C18.0785 16.3798 18.0715 16.3606 18.0599 16.344C17.1334 15.0104 16.5895 13.4486 16.4869 11.828L16.266 8.294C16.2227 7.60493 15.9185 6.95825 15.4152 6.48561C14.9119 6.01297 14.2474 5.74992 13.5569 5.75H10.4429ZM11.9999 20.75C11.3099 20.75 10.7499 20.19 10.7499 19.5V18.75H13.2499V19.5C13.2499 20.19 12.6899 20.75 11.9999 20.75Z" fill="white"/>
<path d="M17.643 1.85499C17.4932 1.98576 17.4015 2.17068 17.388 2.36908C17.3745 2.56748 17.4403 2.76312 17.571 2.91299L18.863 4.39299C19.3643 4.96775 19.6475 5.70049 19.663 6.46299L19.72 9.17999C19.7241 9.3789 19.8071 9.56803 19.9506 9.70578C20.0942 9.84352 20.2866 9.9186 20.4855 9.91449C20.6844 9.91037 20.8736 9.82742 21.0113 9.68386C21.1491 9.5403 21.2241 9.3479 21.22 9.14899L21.163 6.43099C21.1398 5.31696 20.7256 4.24655 19.993 3.40699L18.701 1.92699C18.5702 1.77717 18.3853 1.68543 18.1869 1.67193C17.9885 1.65843 17.7929 1.72427 17.643 1.85499Z" fill="white"/>
</svg>
