<svg width="20" height="22" viewBox="0 0 20 22" fill="none" xmlns="http://www.w3.org/2000/svg">
<path d="M19.7746 13.8772L17.6923 11.8237V9.10331C17.6899 7.22335 16.9808 5.41104 15.702 4.01682C14.4233 2.6226 12.6657 1.74551 10.7692 1.55515V0H9.23077V1.55515C7.33429 1.74551 5.57674 2.6226 4.29798 4.01682C3.01921 5.41104 2.31008 7.22335 2.30769 9.10331V11.8237L0.225385 13.8772C0.0811159 14.0195 4.35672e-05 14.2124 0 14.4136V16.6894C0 16.8906 0.0810437 17.0836 0.225302 17.2258C0.369561 17.3681 0.565218 17.448 0.769231 17.448H6.15385V18.0375C6.13677 18.9999 6.48062 19.9348 7.11943 20.6626C7.75825 21.3905 8.64706 21.8601 9.61539 21.9815C10.1501 22.0338 10.6901 21.9751 11.2005 21.8093C11.7108 21.6434 12.1804 21.3741 12.5789 21.0185C12.9774 20.663 13.296 20.2291 13.5142 19.7448C13.7325 19.2605 13.8456 18.7366 13.8462 18.2066V17.448H19.2308C19.4348 17.448 19.6304 17.3681 19.7747 17.2258C19.919 17.0836 20 16.8906 20 16.6894V14.4136C20 14.2124 19.9189 14.0195 19.7746 13.8772ZM12.3077 18.2066C12.3077 18.8102 12.0646 19.3891 11.6318 19.8159C11.199 20.2427 10.612 20.4825 10 20.4825C9.38796 20.4825 8.80099 20.2427 8.36821 19.8159C7.93544 19.3891 7.69231 18.8102 7.69231 18.2066V17.448H12.3077V18.2066ZM18.4615 15.9308H1.53846V14.7276L3.62077 12.6741C3.76504 12.5319 3.84611 12.3389 3.84615 12.1377V9.10331C3.84615 7.49375 4.4945 5.9501 5.64857 4.81197C6.80264 3.67383 8.3679 3.03444 10 3.03444C11.6321 3.03444 13.1974 3.67383 14.3514 4.81197C15.5055 5.9501 16.1538 7.49375 16.1538 9.10331V12.1377C16.1539 12.3389 16.235 12.5319 16.3792 12.6741L18.4615 14.7276V15.9308Z" fill="white"/>
</svg>
