<svg width="20" height="20" viewBox="0 0 24 24" fill="none" xmlns="http://www.w3.org/2000/svg">
<path d="M11.964 2.85981C8.91782 2.83407 5.34735 3.88028 1.05294 6.89902C0.953378 6.95228 0.919066 6.98199 0.881237 7.01978C0.865769 8.0551 0.883722 9.09142 0.889159 10.127C2.81732 11.3133 5.60614 12.2746 7.53932 12.7164C5.66403 15.2938 4.45696 18.0022 3.56464 20.6512L3.47483 20.9177L5.79918 22.9554L6.04222 22.4621C7.44467 19.6164 8.62921 16.722 10.4875 14.0668C10.8358 14.3587 11.2467 14.627 11.7633 14.5884C12.019 14.5694 12.2128 14.4703 12.3712 14.3417L12.551 14.3491C13.0758 14.3707 13.5881 14.3332 14.0533 14.1714C14.1853 14.1256 14.3129 14.0679 14.4345 13.999C16.4493 16.3992 17.484 19.7063 18.1983 22.3203L18.3884 23.0156L21.0982 20.3418L20.9953 20.0821C20.108 17.8463 19.2303 14.9029 17.459 12.5897C19.3434 12.0837 21.056 11.3092 22.5368 10.3338C23.0356 10.0052 22.7827 10.1723 23.1249 9.92992L23.0535 7.03585C22.8532 6.91145 22.7579 6.86438 22.5791 6.76815C20.1666 5.47046 17.4562 3.61923 13.9917 3.03774C13.3215 2.92506 12.6435 2.8656 11.964 2.85981ZM11.9525 3.70018C12.6117 3.70721 13.2435 3.76778 13.8521 3.86987C17.0005 4.39834 19.5474 6.07187 21.954 7.38573C21.5054 7.62682 21.049 7.85332 20.5857 8.06485C18.3754 6.71579 15.9847 5.5614 13.3029 5.19807C10.2424 4.78342 6.82864 5.42898 2.97589 7.92643C2.5974 7.75174 2.22326 7.56778 1.8538 7.37471C5.89728 4.60088 9.16897 3.67037 11.9526 3.70018H11.9525ZM11.582 5.92271C12.1293 5.92412 12.6648 5.96307 13.1897 6.03423C15.4998 6.34717 17.6213 7.30013 19.6283 8.47501C18.1252 9.07843 16.587 9.50509 15.0249 9.74706C14.4659 9.10553 13.6651 8.85254 12.8758 8.75321L12.5841 8.71651L12.4586 8.95829C12.2432 8.86754 12.0148 8.77295 11.8194 8.70793C11.6161 8.64085 11.4411 8.58315 11.2166 8.59126C10.2594 8.62585 9.65933 9.04173 9.36013 9.46852C9.29051 9.56811 9.231 9.67438 9.18247 9.78578C7.42935 9.53893 5.66441 9.05809 3.90247 8.33171C6.74052 6.58323 9.26741 5.91676 11.582 5.92271ZM22.2552 8.16995L22.2745 9.48676C20.7292 10.5415 18.8978 11.3685 16.8582 11.8701C16.4676 11.4419 16.0379 11.0444 15.5627 10.6872C15.5412 10.6256 15.5176 10.5647 15.4919 10.5047C17.8153 10.1085 20.084 9.32209 22.2552 8.16995ZM1.74749 8.25638C4.18325 9.49173 6.64686 10.2639 9.09303 10.6022C9.11078 10.6461 9.13075 10.6881 9.15294 10.7281C8.78917 11.1313 8.43886 11.5465 8.10261 11.973C6.04405 11.5506 3.90852 10.8084 1.74144 9.68593L1.74749 8.25638ZM11.2469 9.43449C11.547 9.44199 11.8359 9.60812 12.1099 9.72652C11.869 10.3496 11.7273 10.9832 11.6989 11.622L11.6897 11.6166C11.196 11.3291 10.7295 11.0313 10.388 10.7689C10.0899 10.54 9.9335 10.3298 9.89661 10.2894C10.1207 9.56682 10.8388 9.43065 11.2469 9.43449ZM13.0674 9.64393C13.7216 9.76253 14.2262 9.98893 14.5584 10.5324C14.827 10.972 14.895 11.3259 14.8626 11.6845C14.8303 12.0431 14.6817 12.419 14.455 12.8339C14.308 13.103 14.0932 13.2642 13.7763 13.3744C13.5239 13.4622 13.2079 13.5038 12.8587 13.5084C12.3462 12.1961 12.457 10.9468 13.0674 9.64393ZM9.743 11.3372C10.1208 11.63 10.5538 11.9169 10.907 12.1327C8.42549 15.1162 7.05313 18.427 5.52294 21.5912L4.45803 20.6574C5.55078 17.485 7.10042 14.2844 9.743 11.3372ZM15.6866 11.8973C17.9886 14.0342 19.0518 17.4161 20.1106 20.131L18.8178 21.4067C18.1022 18.8755 17.0609 15.8034 15.0647 13.4436C15.1126 13.3781 15.1563 13.3095 15.1954 13.2384C15.4271 12.8142 15.6185 12.3751 15.6866 11.8973ZM11.6443 12.5623C11.6791 12.5818 11.7135 12.6003 11.7483 12.6196C11.7926 12.9251 11.8648 13.231 11.9654 13.5369C11.8199 13.6673 11.6806 13.7484 11.7006 13.747C11.6106 13.7537 11.291 13.6021 10.9909 13.377C11.2017 13.0999 11.4196 12.8283 11.6443 12.5623V12.5623Z" fill="#004DFF"/>
</svg>
