<svg width="20" height="20" viewBox="0 0 24 22" fill="none" xmlns="http://www.w3.org/2000/svg">
<path d="M11.964 0.859806C8.91782 0.834072 5.34735 1.88028 1.05294 4.89902C0.953378 4.95228 0.919066 4.98199 0.881237 5.01978C0.865769 6.0551 0.883722 7.09142 0.889159 8.12698C2.81732 9.31329 5.60614 10.2746 7.53932 10.7164C5.66403 13.2938 4.45696 16.0022 3.56464 18.6512L3.47483 18.9177L5.79918 20.9554L6.04222 20.4621C7.44467 17.6164 8.62921 14.722 10.4875 12.0668C10.8358 12.3587 11.2467 12.627 11.7633 12.5884C12.019 12.5694 12.2128 12.4703 12.3712 12.3417L12.551 12.3491C13.0758 12.3707 13.5881 12.3332 14.0533 12.1714C14.1853 12.1256 14.3129 12.0679 14.4345 11.999C16.4493 14.3992 17.484 17.7063 18.1983 20.3203L18.3884 21.0156L21.0982 18.3418L20.9953 18.0821C20.108 15.8463 19.2303 12.9029 17.459 10.5897C19.3434 10.0837 21.056 9.30917 22.5368 8.33384C23.0356 8.00524 22.7827 8.17226 23.1249 7.92992L23.0535 5.03585C22.8532 4.91145 22.7579 4.86438 22.5791 4.76815C20.1666 3.47046 17.4562 1.61923 13.9917 1.03774C13.3215 0.925065 12.6435 0.865598 11.964 0.859806ZM11.9525 1.70018C12.6117 1.70721 13.2435 1.76778 13.8521 1.86987C17.0005 2.39834 19.5474 4.07187 21.954 5.38573C21.5054 5.62682 21.049 5.85332 20.5857 6.06485C18.3754 4.71579 15.9847 3.5614 13.3029 3.19807C10.2424 2.78342 6.82864 3.42898 2.97589 5.92643C2.5974 5.75174 2.22326 5.56778 1.8538 5.37471C5.89728 2.60088 9.16897 1.67037 11.9526 1.70018H11.9525ZM11.582 3.92271C12.1293 3.92412 12.6648 3.96307 13.1897 4.03423C15.4998 4.34717 17.6213 5.30013 19.6283 6.47501C18.1252 7.07843 16.587 7.50509 15.0249 7.74706C14.4659 7.10553 13.6651 6.85254 12.8758 6.75321L12.5841 6.71651L12.4586 6.95829C12.2432 6.86754 12.0148 6.77295 11.8194 6.70793C11.6161 6.64085 11.4411 6.58315 11.2166 6.59126C10.2594 6.62585 9.65933 7.04173 9.36013 7.46852C9.29051 7.56811 9.231 7.67438 9.18247 7.78578C7.42935 7.53893 5.66441 7.05809 3.90247 6.33171C6.74052 4.58323 9.26741 3.91676 11.582 3.92271ZM22.2552 6.16995L22.2745 7.48676C20.7292 8.54154 18.8978 9.36851 16.8582 9.87007C16.4676 9.44187 16.0379 9.04437 15.5627 8.68718C15.5412 8.62559 15.5176 8.56474 15.4919 8.50474C17.8153 8.10846 20.084 7.32209 22.2552 6.16995ZM1.74749 6.25638C4.18325 7.49173 6.64686 8.26385 9.09303 8.60224C9.11078 8.64612 9.13075 8.68807 9.15294 8.7281C8.78917 9.13133 8.43886 9.54651 8.10261 9.97296C6.04405 9.55062 3.90852 8.80835 1.74144 7.68593L1.74749 6.25638ZM11.2469 7.43449C11.547 7.44199 11.8359 7.60812 12.1099 7.72652C11.869 8.34959 11.7273 8.98324 11.6989 9.62196L11.6897 9.61662C11.196 9.32909 10.7295 9.03134 10.388 8.76893C10.0899 8.53999 9.9335 8.32981 9.89661 8.2894C10.1207 7.56682 10.8388 7.43065 11.2469 7.43449ZM13.0674 7.64393C13.7216 7.76253 14.2262 7.98893 14.5584 8.53245C14.827 8.97204 14.895 9.32585 14.8626 9.68449C14.8303 10.0431 14.6817 10.419 14.455 10.8339C14.308 11.103 14.0932 11.2642 13.7763 11.3744C13.5239 11.4622 13.2079 11.5038 12.8587 11.5084C12.3462 10.1961 12.457 8.94682 13.0674 7.64393ZM9.743 9.3372C10.1208 9.62998 10.5538 9.91695 10.907 10.1327C8.42549 13.1162 7.05313 16.427 5.52294 19.5912L4.45803 18.6574C5.55078 15.485 7.10042 12.2844 9.743 9.3372ZM15.6866 9.89726C17.9886 12.0342 19.0518 15.4161 20.1106 18.131L18.8178 19.4067C18.1022 16.8755 17.0609 13.8034 15.0647 11.4436C15.1126 11.3781 15.1563 11.3095 15.1954 11.2384C15.4271 10.8142 15.6185 10.3751 15.6866 9.89726ZM11.6443 10.5623C11.6791 10.5818 11.7135 10.6003 11.7483 10.6196C11.7926 10.9251 11.8648 11.231 11.9654 11.5369C11.8199 11.6673 11.6806 11.7484 11.7006 11.747C11.6106 11.7537 11.291 11.6021 10.9909 11.377C11.2017 11.0999 11.4196 10.8283 11.6443 10.5623V10.5623Z" fill="yellow"/>
</svg>
