<svg width="36" height="37" viewBox="0 0 36 37" fill="none" xmlns="http://www.w3.org/2000/svg">
<rect y="0.70166" width="36" height="36" rx="18" fill="black"/>
<path d="M19.5 9.70166C19.5 9.30384 19.342 8.9223 19.0607 8.641C18.7794 8.3597 18.3978 8.20166 18 8.20166C17.6022 8.20166 17.2206 8.3597 16.9393 8.641C16.658 8.9223 16.5 9.30384 16.5 9.70166V17.2017H9C8.60218 17.2017 8.22064 17.3597 7.93934 17.641C7.65804 17.9223 7.5 18.3038 7.5 18.7017C7.5 19.0995 7.65804 19.481 7.93934 19.7623C8.22064 20.0436 8.60218 20.2017 9 20.2017H16.5V27.7017C16.5 28.0995 16.658 28.481 16.9393 28.7623C17.2206 29.0436 17.6022 29.2017 18 29.2017C18.3978 29.2017 18.7794 29.0436 19.0607 28.7623C19.342 28.481 19.5 28.0995 19.5 27.7017V20.2017H27C27.3978 20.2017 27.7794 20.0436 28.0607 19.7623C28.342 19.481 28.5 19.0995 28.5 18.7017C28.5 18.3038 28.342 17.9223 28.0607 17.641C27.7794 17.3597 27.3978 17.2017 27 17.2017H19.5V9.70166Z" fill="white"/>
</svg>
