<svg width="24" height="24" viewBox="0 0 24 24" fill="none" xmlns="http://www.w3.org/2000/svg">
<rect width="24" height="24" rx="12" fill="white"/>
<path d="M16 16.8333H7.99996C7.51373 16.8333 7.04741 16.6402 6.7036 16.2964C6.35978 15.9525 6.16663 15.4862 6.16663 15V11C6.16663 10.5138 6.35978 10.0474 6.7036 9.70363C7.04741 9.35981 7.51373 9.16666 7.99996 9.16666H8.39996L9.18663 7.99999C9.35493 7.74967 9.5822 7.54457 9.84842 7.40274C10.1146 7.26091 10.4116 7.18671 10.7133 7.18666H13.2866C13.5883 7.18671 13.8853 7.26091 14.1515 7.40274C14.4177 7.54457 14.645 7.74967 14.8133 7.99999L15.6 9.16666H16C16.4862 9.16666 16.9525 9.35981 17.2963 9.70363C17.6401 10.0474 17.8333 10.5138 17.8333 11V15C17.8333 15.4862 17.6401 15.9525 17.2963 16.2964C16.9525 16.6402 16.4862 16.8333 16 16.8333ZM7.99996 10.1667C7.77895 10.1667 7.56698 10.2545 7.4107 10.4107C7.25442 10.567 7.16663 10.779 7.16663 11V15C7.16663 15.221 7.25442 15.433 7.4107 15.5893C7.56698 15.7455 7.77895 15.8333 7.99996 15.8333H16C16.221 15.8333 16.4329 15.7455 16.5892 15.5893C16.7455 15.433 16.8333 15.221 16.8333 15V11C16.8333 10.779 16.7455 10.567 16.5892 10.4107C16.4329 10.2545 16.221 10.1667 16 10.1667H15.3333C15.2517 10.1665 15.1713 10.1464 15.0993 10.108C15.0272 10.0697 14.9657 10.0143 14.92 9.94666L14 8.53999C13.9271 8.42872 13.8284 8.33668 13.7123 8.27168C13.5963 8.20669 13.4663 8.17066 13.3333 8.16666H10.7133C10.5803 8.17066 10.4503 8.20669 10.3342 8.27168C10.2182 8.33668 10.1195 8.42872 10.0466 8.53999L9.07996 9.94666C9.03425 10.0143 8.97269 10.0697 8.90064 10.108C8.82859 10.1464 8.74825 10.1665 8.66663 10.1667H7.99996Z" fill="black"/>
<path d="M12 14.8333C11.5715 14.8333 11.1526 14.7063 10.7963 14.4682C10.44 14.2301 10.1623 13.8917 9.9983 13.4958C9.83431 13.0999 9.79141 12.6643 9.87501 12.244C9.95861 11.8237 10.165 11.4376 10.468 11.1346C10.771 10.8316 11.1571 10.6252 11.5773 10.5416C11.9976 10.458 12.4333 10.5009 12.8292 10.6649C13.2251 10.8289 13.5635 11.1066 13.8016 11.4629C14.0396 11.8192 14.1667 12.2381 14.1667 12.6667C14.1649 13.2408 13.9361 13.7908 13.5302 14.1968C13.1242 14.6027 12.5741 14.8316 12 14.8333ZM12 11.5C11.7693 11.5 11.5437 11.5684 11.3519 11.6966C11.16 11.8248 11.0105 12.007 10.9222 12.2202C10.8339 12.4334 10.8108 12.668 10.8558 12.8943C10.9008 13.1206 11.0119 13.3285 11.1751 13.4916C11.3382 13.6548 11.5461 13.7659 11.7724 13.8109C11.9987 13.8559 12.2333 13.8328 12.4465 13.7445C12.6597 13.6562 12.8419 13.5067 12.9701 13.3148C13.0983 13.123 13.1667 12.8974 13.1667 12.6667C13.165 12.3578 13.0415 12.0621 12.8231 11.8436C12.6047 11.6252 12.3089 11.5018 12 11.5Z" fill="black"/>
</svg>
