<svg width="36" height="36" viewBox="0 0 36 36" fill="none" xmlns="http://www.w3.org/2000/svg">
<rect width="36" height="36" rx="18" fill="#E6E6E6"/>
<path d="M12.75 11.25C10.275 11.25 8.25 13.275 8.25 15.75C8.25 17.238 8.98275 18.5625 10.1017 19.383C8.124 20.364 6.75 22.398 6.75 24.75H8.25C8.25 22.257 10.257 20.25 12.75 20.25C15.243 20.25 17.25 22.257 17.25 24.75H18.75C18.75 22.257 20.757 20.25 23.25 20.25C25.743 20.25 27.75 22.257 27.75 24.75H29.25C29.25 22.3973 27.876 20.364 25.8983 19.383C26.4711 18.966 26.9375 18.4196 27.2592 17.7883C27.581 17.157 27.7492 16.4586 27.75 15.75C27.75 13.275 25.725 11.25 23.25 11.25C20.775 11.25 18.75 13.275 18.75 15.75C18.75 17.238 19.4827 18.5625 20.6017 19.383C19.5059 19.9216 18.5988 20.7795 18 21.8438C17.4012 20.7795 16.4941 19.9216 15.3983 19.383C15.9711 18.966 16.4375 18.4196 16.7592 17.7883C17.081 17.157 17.2492 16.4586 17.25 15.75C17.25 13.275 15.225 11.25 12.75 11.25ZM12.75 12.75C14.4173 12.75 15.75 14.0827 15.75 15.75C15.75 17.4173 14.4173 18.75 12.75 18.75C11.0827 18.75 9.75 17.4173 9.75 15.75C9.75 14.0827 11.0827 12.75 12.75 12.75ZM23.25 12.75C24.9172 12.75 26.25 14.0827 26.25 15.75C26.25 17.4173 24.9172 18.75 23.25 18.75C21.5828 18.75 20.25 17.4173 20.25 15.75C20.25 14.0827 21.5828 12.75 23.25 12.75Z" fill="black"/>
</svg>
