<svg width="36" height="37" viewBox="0 0 36 37" fill="none" xmlns="http://www.w3.org/2000/svg">
<rect y="0.166138" width="36" height="36" rx="4" fill="#FF0000"/>
<path d="M16.3569 21.8521C16.3569 20.2391 13.1719 20.0166 13.1719 15.9661C13.1719 11.9156 15.4219 11.5136 15.4219 9.94111C15.4219 8.36861 9.18994 10.2811 9.18994 16.3121C9.18994 22.3431 16.3569 23.4651 16.3569 21.8521Z" stroke="white" stroke-width="1.5" stroke-linecap="round" stroke-linejoin="round"/>
<path d="M21.152 20.2747C19.539 20.2747 19.3165 23.4597 15.266 23.4597C11.2155 23.4597 10.8135 21.2097 9.24104 21.2097C7.66854 21.2097 9.58104 27.4422 15.612 27.4422C21.643 27.4422 22.765 20.2747 21.152 20.2747ZM14.848 17.0752C16.461 17.0752 16.6835 13.8897 20.734 13.8897C24.7845 13.8897 25.1865 16.1402 26.759 16.1402C28.3315 16.1402 26.419 9.90765 20.388 9.90765C14.357 9.90765 13.235 17.0752 14.848 17.0752Z" stroke="white" stroke-width="1.5" stroke-linecap="round" stroke-linejoin="round"/>
<path d="M19.6429 15.4802C19.6429 17.0932 22.8284 17.3157 22.8284 21.3662C22.8284 25.4167 20.5784 25.8187 20.5784 27.3912C20.5784 28.9637 26.8104 27.0512 26.8104 21.0202C26.8104 14.9892 19.6429 13.8672 19.6429 15.4802Z" stroke="white" stroke-width="1.5" stroke-linecap="round" stroke-linejoin="round"/>
</svg>
