<svg width="36" height="37" viewBox="0 0 36 37" fill="none" xmlns="http://www.w3.org/2000/svg">
<rect y="0.5" width="36" height="36" rx="4" fill="#FF0000"/>
<path d="M14.4 27C12.8833 27 11.604 26.4793 10.562 25.438C9.52 24.3967 8.99933 23.1173 9 21.6C9 20.9667 9.10833 20.35 9.325 19.75C9.54167 19.15 9.85 18.6083 10.25 18.125L13.8 13.85L11.375 9H24.625L22.2 13.85L25.75 18.125C26.15 18.6083 26.4583 19.15 26.675 19.75C26.8917 20.35 27 20.9667 27 21.6C27 23.1167 26.475 24.396 25.425 25.438C24.375 26.48 23.1 27.0007 21.6 27H14.4ZM18 22C17.45 22 16.9793 21.8043 16.588 21.413C16.1967 21.0217 16.0007 20.5507 16 20C15.9993 19.4493 16.1953 18.9787 16.588 18.588C16.9807 18.1973 17.4513 18.0013 18 18C18.5487 17.9987 19.0197 18.1947 19.413 18.588C19.8063 18.9813 20.002 19.452 20 20C19.998 20.548 19.8023 21.019 19.413 21.413C19.0237 21.807 18.5527 22.0027 18 22ZM15.625 13H20.375L21.375 11H14.625L15.625 13ZM14.4 25H21.6C22.55 25 23.3543 24.671 24.013 24.013C24.6717 23.355 25.0007 22.5507 25 21.6C25 21.2 24.929 20.8127 24.787 20.438C24.645 20.0633 24.4493 19.7257 24.2 19.425L20.525 15H15.5L11.8 19.4C11.55 19.7 11.3543 20.0417 11.213 20.425C11.0717 20.8083 11.0007 21.2 11 21.6C11 22.55 11.3293 23.3543 11.988 24.013C12.6467 24.6717 13.4507 25.0007 14.4 25Z" fill="white"/>
</svg>
