<svg width="36" height="37" viewBox="0 0 36 37" fill="none" xmlns="http://www.w3.org/2000/svg">
<rect y="0.166138" width="36" height="36" rx="4" fill="#FF0000"/>
<path fill-rule="evenodd" clip-rule="evenodd" d="M17.5 11.1661C17.5 10.9009 17.6054 10.6466 17.7929 10.459C17.9804 10.2715 18.2348 10.1661 18.5 10.1661C20.0823 10.1661 21.629 10.6353 22.9446 11.5144C24.2602 12.3934 25.2855 13.6429 25.891 15.1047C26.4965 16.5665 26.655 18.175 26.3463 19.7269C26.0376 21.2787 25.2757 22.7042 24.1569 23.823C23.038 24.9418 21.6126 25.7037 20.0607 26.0124C18.5089 26.3211 16.9003 26.1627 15.4385 25.5572C13.9767 24.9517 12.7273 23.9263 11.8482 22.6107C10.9692 21.2951 10.5 19.7484 10.5 18.1661C10.5 17.9009 10.6054 17.6466 10.7929 17.459C10.9804 17.2715 11.2348 17.1661 11.5 17.1661C11.7652 17.1661 12.0196 17.2715 12.2071 17.459C12.3946 17.6466 12.5 17.9009 12.5 18.1661C12.5 19.3528 12.8519 20.5129 13.5112 21.4996C14.1705 22.4863 15.1075 23.2553 16.2039 23.7094C17.3003 24.1635 18.5067 24.2824 19.6705 24.0508C20.8344 23.8193 21.9035 23.2479 22.7426 22.4088C23.5818 21.5697 24.1532 20.5006 24.3847 19.3367C24.6162 18.1728 24.4974 16.9664 24.0433 15.87C23.5892 14.7737 22.8201 13.8366 21.8334 13.1773C20.8467 12.518 19.6867 12.1661 18.5 12.1661C18.2348 12.1661 17.9804 12.0608 17.7929 11.8732C17.6054 11.6857 17.5 11.4314 17.5 11.1661Z" fill="white"/>
<path fill-rule="evenodd" clip-rule="evenodd" d="M14.394 19.6131C14.5124 19.376 14.5319 19.1016 14.4481 18.8501C14.3642 18.5987 14.184 18.3908 13.947 18.2721L11.947 17.2721C11.8294 17.2122 11.7011 17.1762 11.5695 17.1661C11.4379 17.156 11.3057 17.172 11.1803 17.2133C11.0549 17.2546 10.939 17.3203 10.8391 17.4066C10.7393 17.4929 10.6575 17.5981 10.5985 17.7161C10.5395 17.8342 10.5045 17.9628 10.4954 18.0944C10.4863 18.2261 10.5034 18.3582 10.5457 18.4833C10.5879 18.6083 10.6545 18.7237 10.7416 18.8229C10.8287 18.9221 10.9345 19.0031 11.053 19.0611L13.053 20.0611C13.2903 20.1795 13.5648 20.1988 13.8163 20.1148C14.0677 20.0308 14.2755 19.8503 14.394 19.6131Z" fill="white"/>
<path d="M16.5 11.6661C16.5 11.9314 16.3946 12.1857 16.2071 12.3732C16.0196 12.5608 15.7652 12.6661 15.5 12.6661C15.2348 12.6661 14.9804 12.5608 14.7929 12.3732C14.6054 12.1857 14.5 11.9314 14.5 11.6661C14.5 11.4009 14.6054 11.1466 14.7929 10.959C14.9804 10.7715 15.2348 10.6661 15.5 10.6661C15.7652 10.6661 16.0196 10.7715 16.2071 10.959C16.3946 11.1466 16.5 11.4009 16.5 11.6661ZM14 13.1661C14 13.4314 13.8946 13.6857 13.7071 13.8732C13.5196 14.0608 13.2652 14.1661 13 14.1661C12.7348 14.1661 12.4804 14.0608 12.2929 13.8732C12.1054 13.6857 12 13.4314 12 13.1661C12 12.9009 12.1054 12.6466 12.2929 12.459C12.4804 12.2715 12.7348 12.1661 13 12.1661C13.2652 12.1661 13.5196 12.2715 13.7071 12.459C13.8946 12.6466 14 12.9009 14 13.1661ZM12.5 15.6661C12.5 15.9314 12.3946 16.1857 12.2071 16.3732C12.0196 16.5608 11.7652 16.6661 11.5 16.6661C11.2348 16.6661 10.9804 16.5608 10.7929 16.3732C10.6054 16.1857 10.5 15.9314 10.5 15.6661C10.5 15.4009 10.6054 15.1466 10.7929 14.959C10.9804 14.7715 11.2348 14.6661 11.5 14.6661C11.7652 14.6661 12.0196 14.7715 12.2071 14.959C12.3946 15.1466 12.5 15.4009 12.5 15.6661Z" fill="white"/>
<path fill-rule="evenodd" clip-rule="evenodd" d="M12.207 17.4591C12.3945 17.6467 12.4998 17.901 12.4998 18.1661C12.4998 18.4313 12.3945 18.6856 12.207 18.8731L10.707 20.3731C10.5184 20.5553 10.2658 20.6561 10.0036 20.6538C9.74144 20.6515 9.49063 20.5464 9.30522 20.361C9.11981 20.1755 9.01465 19.9247 9.01237 19.6625C9.01009 19.4003 9.11088 19.1477 9.29304 18.9591L10.793 17.4591C10.9806 17.2717 11.2349 17.1664 11.5 17.1664C11.7652 17.1664 12.0195 17.2717 12.207 17.4591ZM18.5 14.1661C18.7653 14.1661 19.0196 14.2715 19.2071 14.459C19.3947 14.6466 19.5 14.9009 19.5 15.1661V18.1661C19.5 18.4314 19.3947 18.6857 19.2071 18.8732C19.0196 19.0608 18.7653 19.1661 18.5 19.1661C18.2348 19.1661 17.9805 19.0608 17.7929 18.8732C17.6054 18.6857 17.5 18.4314 17.5 18.1661V15.1661C17.5 14.9009 17.6054 14.6466 17.7929 14.459C17.9805 14.2715 18.2348 14.1661 18.5 14.1661Z" fill="white"/>
<path fill-rule="evenodd" clip-rule="evenodd" d="M22.5 18.1661C22.5 18.4314 22.3946 18.6857 22.2071 18.8732C22.0196 19.0608 21.7652 19.1661 21.5 19.1661H18.5C18.2348 19.1661 17.9804 19.0608 17.7929 18.8732C17.6054 18.6857 17.5 18.4314 17.5 18.1661C17.5 17.9009 17.6054 17.6466 17.7929 17.459C17.9804 17.2715 18.2348 17.1661 18.5 17.1661H21.5C21.7652 17.1661 22.0196 17.2715 22.2071 17.459C22.3946 17.6466 22.5 17.9009 22.5 18.1661Z" fill="white"/>
</svg>
