<svg width="36" height="37" viewBox="0 0 36 37" fill="none" xmlns="http://www.w3.org/2000/svg">
<rect y="0.5" width="36" height="36" rx="4" fill="#FF0000"/>
<path d="M26.6484 24.6328C27.1641 24.8828 27.625 25.1953 28.0312 25.5703C28.4375 25.9453 28.7891 26.3672 29.0859 26.8359C29.3828 27.3047 29.6094 27.8047 29.7656 28.3359C29.9219 28.8672 30 29.4219 30 30H28.5C28.5 29.3828 28.3828 28.8008 28.1484 28.2539C27.9141 27.707 27.5898 27.2305 27.1758 26.8242C26.7617 26.418 26.2852 26.0977 25.7461 25.8633C25.207 25.6289 24.625 25.5078 24 25.5C23.3828 25.5 22.8008 25.6172 22.2539 25.8516C21.707 26.0859 21.2305 26.4102 20.8242 26.8242C20.418 27.2383 20.0977 27.7148 19.8633 28.2539C19.6289 28.793 19.5078 29.375 19.5 30H18C18 29.4297 18.0781 28.8789 18.2344 28.3477C18.3906 27.8164 18.6133 27.3164 18.9023 26.8477C19.1914 26.3789 19.543 25.957 19.957 25.582C20.3711 25.207 20.8359 24.8906 21.3516 24.6328C20.7656 24.2109 20.3125 23.6836 19.9922 23.0508C19.6719 22.418 19.5078 21.7344 19.5 21C19.5 20.3828 19.6172 19.8008 19.8516 19.2539C20.0859 18.707 20.4062 18.2305 20.8125 17.8242C21.2188 17.418 21.6953 17.0938 22.2422 16.8516C22.7891 16.6094 23.375 16.4922 24 16.5C24.6172 16.5 25.1992 16.6172 25.7461 16.8516C26.293 17.0859 26.7695 17.4062 27.1758 17.8125C27.582 18.2188 27.9062 18.6992 28.1484 19.2539C28.3906 19.8086 28.5078 20.3906 28.5 21C28.5 21.7266 28.3398 22.4062 28.0195 23.0391C27.6992 23.6719 27.2422 24.2031 26.6484 24.6328ZM24 24C24.4141 24 24.8008 23.9219 25.1602 23.7656C25.5195 23.6094 25.8398 23.3945 26.1211 23.1211C26.4023 22.8477 26.6172 22.5312 26.7656 22.1719C26.9141 21.8125 26.9922 21.4219 27 21C27 20.5859 26.9219 20.1992 26.7656 19.8398C26.6094 19.4805 26.3945 19.1602 26.1211 18.8789C25.8477 18.5977 25.5312 18.3828 25.1719 18.2344C24.8125 18.0859 24.4219 18.0078 24 18C23.5859 18 23.1992 18.0781 22.8398 18.2344C22.4805 18.3906 22.1602 18.6055 21.8789 18.8789C21.5977 19.1523 21.3828 19.4688 21.2344 19.8281C21.0859 20.1875 21.0078 20.5781 21 21C21 21.4141 21.0781 21.8008 21.2344 22.1602C21.3906 22.5195 21.6055 22.8398 21.8789 23.1211C22.1523 23.4023 22.4688 23.6172 22.8281 23.7656C23.1875 23.9141 23.5781 23.9922 24 24ZM30 7.5V19.5C30 19.125 29.9648 18.7969 29.8945 18.5156C29.8242 18.2344 29.7266 17.9727 29.6016 17.7305C29.4766 17.4883 29.3203 17.2539 29.1328 17.0273C28.9453 16.8008 28.7344 16.5547 28.5 16.2891V9H7.5V22.5H10.5V25.6289L13.6289 22.5H18.1992C18.2617 22.7656 18.3438 23.0234 18.4453 23.2734C18.5469 23.5234 18.668 23.7656 18.8086 24H14.25L9 29.25V24H6V7.5H30Z" fill="white"/>
</svg>
