<svg width="36" height="37" viewBox="0 0 36 37" fill="none" xmlns="http://www.w3.org/2000/svg">
<rect y="0.5" width="36" height="36" rx="4" fill="#FF0000"/>
<g clip-path="url(#clip0_529_4178)">
<path d="M18.25 16.5C17.2554 16.5 16.3016 16.1049 15.5983 15.4017C14.8951 14.6984 14.5 13.7446 14.5 12.75C14.5 11.7554 14.8951 10.8016 15.5983 10.0983C16.3016 9.39509 17.2554 9 18.25 9C19.2446 9 20.1984 9.39509 20.9017 10.0983C21.6049 10.8016 22 11.7554 22 12.75C22 13.7446 21.6049 14.6984 20.9017 15.4017C20.1984 16.1049 19.2446 16.5 18.25 16.5ZM18.25 10.5C17.005 10.5 16 11.505 16 12.75C16 13.995 17.005 15 18.25 15C19.495 15 20.5 13.995 20.5 12.75C20.5 11.505 19.495 10.5 18.25 10.5Z" fill="white"/>
<path d="M27.25 22.5C26.83 22.5 26.5 22.17 26.5 21.75C26.5 21.33 26.83 21 27.25 21C27.67 21 28 20.67 28 20.25C28 19.2554 27.6049 18.3016 26.9016 17.5983C26.1984 16.8951 25.2446 16.5 24.25 16.5H22.75C22.33 16.5 22 16.17 22 15.75C22 15.33 22.33 15 22.75 15C23.995 15 25 13.995 25 12.75C25 11.505 23.995 10.5 22.75 10.5C22.33 10.5 22 10.17 22 9.75C22 9.33 22.33 9 22.75 9C23.7446 9 24.6984 9.39509 25.4016 10.0983C26.1049 10.8016 26.5 11.7554 26.5 12.75C26.5 13.68 26.17 14.52 25.6 15.18C27.835 15.78 29.5 17.82 29.5 20.25C29.5 21.495 28.495 22.5 27.25 22.5ZM9.25 22.5C8.005 22.5 7 21.495 7 20.25C7 17.82 8.65 15.78 10.9 15.18C10.345 14.52 10 13.68 10 12.75C10 11.7554 10.3951 10.8016 11.0983 10.0983C11.8016 9.39509 12.7554 9 13.75 9C14.17 9 14.5 9.33 14.5 9.75C14.5 10.17 14.17 10.5 13.75 10.5C12.505 10.5 11.5 11.505 11.5 12.75C11.5 13.995 12.505 15 13.75 15C14.17 15 14.5 15.33 14.5 15.75C14.5 16.17 14.17 16.5 13.75 16.5H12.25C11.2554 16.5 10.3016 16.8951 9.59835 17.5983C8.89509 18.3016 8.5 19.2554 8.5 20.25C8.5 20.67 8.83 21 9.25 21C9.67 21 10 21.33 10 21.75C10 22.17 9.67 22.5 9.25 22.5ZM22.75 27H13.75C12.505 27 11.5 25.995 11.5 24.75V23.25C11.5 20.355 13.855 18 16.75 18H19.75C22.645 18 25 20.355 25 23.25V24.75C25 25.995 23.995 27 22.75 27ZM16.75 19.5C15.7554 19.5 14.8016 19.8951 14.0983 20.5983C13.3951 21.3016 13 22.2554 13 23.25V24.75C13 25.17 13.33 25.5 13.75 25.5H22.75C23.17 25.5 23.5 25.17 23.5 24.75V23.25C23.5 22.2554 23.1049 21.3016 22.4017 20.5983C21.6984 19.8951 20.7446 19.5 19.75 19.5H16.75Z" fill="white"/>
</g>
<defs>
<clipPath id="clip0_529_4178">
<rect width="22.5" height="24" fill="white" transform="translate(7 6)"/>
</clipPath>
</defs>
</svg>
