<svg width="36" height="37" viewBox="0 0 36 37" fill="none" xmlns="http://www.w3.org/2000/svg">
<rect y="0.5" width="36" height="36" rx="4" fill="#FF0000"/>
<g clip-path="url(#clip0_529_4201)">
<path d="M20.316 15.0977C20.1775 14.7082 19.922 14.3709 19.5844 14.1322C19.2469 13.8934 18.8438 13.7648 18.4303 13.764H16.8823C16.4407 13.7617 16.0139 13.9232 15.6844 14.2173C15.355 14.5115 15.1463 14.9173 15.0988 15.3564C15.0512 15.7955 15.1682 16.2366 15.427 16.5944C15.6858 16.9523 16.0681 17.2014 16.5 17.2937L18.8572 17.808C19.3391 17.9135 19.7651 18.1934 20.0533 18.5939C20.3414 18.9944 20.4714 19.4873 20.4183 19.9778C20.3651 20.4683 20.1326 20.9219 19.7653 21.2514C19.398 21.5809 18.922 21.763 18.4286 21.7629H17.0966C16.2257 21.7629 15.4852 21.2074 15.2109 20.4309M17.7635 13.764V11.7634M17.7635 23.7634V21.7646M9.42517 29.1394V24.8537H13.7109" stroke="white" stroke-width="1.71429" stroke-linecap="round" stroke-linejoin="round"/>
<path d="M28.9509 15.9497C29.406 18.3758 29.0427 20.8843 27.9179 23.0816C26.7931 25.2788 24.9706 27.0404 22.7364 28.0898C20.5022 29.1392 17.9828 29.4171 15.5736 28.8798C13.1644 28.3425 11.0018 27.0205 9.42519 25.1211M7.04919 20.0503C6.59409 17.6242 6.95744 15.1157 8.0822 12.9184C9.20697 10.7212 11.0295 8.95962 13.2637 7.91019C15.4979 6.86076 18.0173 6.58289 20.4265 7.12019C22.8357 7.65749 24.9983 8.97955 26.5749 10.8789" stroke="white" stroke-width="1.71429" stroke-linecap="round" stroke-linejoin="round"/>
<path d="M26.5749 6.86057V11.1463H22.2892" stroke="white" stroke-width="1.71429" stroke-linecap="round" stroke-linejoin="round"/>
</g>
<defs>
<clipPath id="clip0_529_4201">
<rect width="24" height="24" fill="white" transform="translate(6 6)"/>
</clipPath>
</defs>
</svg>
