<svg width="36" height="37" viewBox="0 0 36 37" fill="none" xmlns="http://www.w3.org/2000/svg">
<rect y="0.166138" width="36" height="36" rx="4" fill="#FF0000"/>
<path d="M25.5 13.6661C25.6326 13.6661 25.7598 13.7188 25.8536 13.8126C25.9473 13.9064 26 14.0335 26 14.1661C26 14.2987 25.9473 14.4259 25.8536 14.5197C25.7598 14.6135 25.6326 14.6661 25.5 14.6661H10.5C10.3674 14.6661 10.2402 14.6135 10.1464 14.5197C10.0527 14.4259 10 14.2987 10 14.1661C10 14.0335 10.0527 13.9064 10.1464 13.8126C10.2402 13.7188 10.3674 13.6661 10.5 13.6661H25.5ZM25.5 16.6661C25.6326 16.6661 25.7598 16.7188 25.8536 16.8126C25.9473 16.9064 26 17.0335 26 17.1661C26 17.2987 25.9473 17.4259 25.8536 17.5197C25.7598 17.6135 25.6326 17.6661 25.5 17.6661H10.5C10.3674 17.6661 10.2402 17.6135 10.1464 17.5197C10.0527 17.4259 10 17.2987 10 17.1661C10 17.0335 10.0527 16.9064 10.1464 16.8126C10.2402 16.7188 10.3674 16.6661 10.5 16.6661H25.5ZM17 23.1661C17 22.9981 17.0073 22.8315 17.022 22.6661H10.5C10.3674 22.6661 10.2402 22.7188 10.1464 22.8126C10.0527 22.9064 10 23.0335 10 23.1661C10 23.2987 10.0527 23.4259 10.1464 23.5197C10.2402 23.6135 10.3674 23.6661 10.5 23.6661H17.022C17.0077 23.4998 17.0004 23.333 17 23.1661ZM17.6 20.6661C17.784 20.3075 18.003 19.9741 18.257 19.6661H10.5C10.3674 19.6661 10.2402 19.7188 10.1464 19.8126C10.0527 19.9064 10 20.0335 10 20.1661C10 20.2987 10.0527 20.4259 10.1464 20.5197C10.2402 20.6135 10.3674 20.6661 10.5 20.6661H17.6ZM22.5 18.6661C23.6935 18.6661 24.8381 19.1402 25.682 19.9842C26.5259 20.8281 27 21.9727 27 23.1661C27 24.3596 26.5259 25.5042 25.682 26.3481C24.8381 27.192 23.6935 27.6661 22.5 27.6661C21.3065 27.6661 20.1619 27.192 19.318 26.3481C18.4741 25.5042 18 24.3596 18 23.1661C18 21.9727 18.4741 20.8281 19.318 19.9842C20.1619 19.1402 21.3065 18.6661 22.5 18.6661ZM21.379 24.4351L20.38 23.2081L20.317 23.1441C20.222 23.0635 20.1004 23.0213 19.9759 23.0257C19.8514 23.0301 19.733 23.0808 19.644 23.1678C19.5549 23.2549 19.5015 23.3721 19.4943 23.4964C19.4871 23.6208 19.5266 23.7434 19.605 23.8401L20.945 25.4851L21.011 25.5521C21.1051 25.6312 21.225 25.6729 21.3478 25.6692C21.4707 25.6656 21.5879 25.6167 21.677 25.5321L25.189 21.8911L25.249 21.8231C25.3232 21.7223 25.3568 21.5973 25.3433 21.4728C25.3298 21.3484 25.2701 21.2335 25.1759 21.151C25.0818 21.0684 24.9602 21.0242 24.835 21.027C24.7099 21.0298 24.5903 21.0794 24.5 21.1661L21.379 24.4351Z" fill="white"/>
</svg>
