<svg width="36" height="37" viewBox="0 0 36 37" fill="none" xmlns="http://www.w3.org/2000/svg">
<rect y="0.166138" width="36" height="36" rx="4" fill="#FF0000"/>
<g clip-path="url(#clip0_1136_9025)">
<path d="M16.6042 20.9686C15.5644 20.6663 14.6509 20.0347 14.001 19.1686C13.351 18.3026 12.9998 17.2489 13 16.1661V9.49945H23V16.9995M13 11.1661H8.83337V14.4995C8.83337 16.5903 10.3259 17.8328 12.1667 17.8328H13M24.695 17.737C26.1184 17.4078 27.1667 16.252 27.1667 14.4995V11.1661H23M16.3334 24.4995H12.1667V27.8328H21.75M21.75 27.8328C20.3135 27.8328 18.9357 27.2621 17.9199 26.2463C16.9041 25.2305 16.3334 23.8527 16.3334 22.4161C16.3334 20.9795 16.9041 19.6018 17.9199 18.586C18.9357 17.5701 20.3135 16.9995 21.75 16.9995C23.1866 16.9995 24.5644 17.5701 25.5802 18.586C26.596 19.6018 27.1667 20.9795 27.1667 22.4161C27.1667 23.8527 26.596 25.2305 25.5802 26.2463C24.5644 27.2621 23.1866 27.8328 21.75 27.8328ZM24.6667 20.3328L20.9167 24.0828L18.8334 21.9995M16.505 21.5195C15.9524 21.7968 15.4877 22.2224 15.1631 22.7486C14.8384 23.2749 14.6666 23.8811 14.6667 24.4995" stroke="white" stroke-width="2"/>
</g>
<defs>
<clipPath id="clip0_1136_9025">
<rect width="20" height="20" fill="white" transform="translate(8 8.66614)"/>
</clipPath>
</defs>
</svg>
