<svg width="20" height="21" viewBox="0 0 20 21" fill="none" xmlns="http://www.w3.org/2000/svg">
<path d="M8.66665 5.53487H11.3333C11.3333 5.18125 11.1928 4.84211 10.9428 4.59206C10.6927 4.34201 10.3536 4.20154 9.99998 4.20154C9.64636 4.20154 9.30722 4.34201 9.05717 4.59206C8.80712 4.84211 8.66665 5.18125 8.66665 5.53487ZM7.66665 5.53487C7.66665 5.22845 7.727 4.92504 7.84426 4.64194C7.96152 4.35885 8.13339 4.10163 8.35006 3.88496C8.56673 3.66829 8.82396 3.49641 9.10705 3.37915C9.39014 3.26189 9.69356 3.20154 9.99998 3.20154C10.3064 3.20154 10.6098 3.26189 10.8929 3.37915C11.176 3.49641 11.4332 3.66829 11.6499 3.88496C11.8666 4.10163 12.0384 4.35885 12.1557 4.64194C12.273 4.92504 12.3333 5.22845 12.3333 5.53487H16.1666C16.2993 5.53487 16.4264 5.58755 16.5202 5.68132C16.614 5.77509 16.6666 5.90226 16.6666 6.03487C16.6666 6.16748 16.614 6.29466 16.5202 6.38842C16.4264 6.48219 16.2993 6.53487 16.1666 6.53487H15.2866L14.5066 14.6089C14.4468 15.2275 14.1587 15.8017 13.6984 16.2194C13.2382 16.6371 12.6389 16.8684 12.0173 16.8682H7.98265C7.36122 16.8683 6.76205 16.6369 6.30195 16.2192C5.84184 15.8015 5.5538 15.2274 5.49398 14.6089L4.71331 6.53487H3.83331C3.7007 6.53487 3.57353 6.48219 3.47976 6.38842C3.38599 6.29466 3.33331 6.16748 3.33331 6.03487C3.33331 5.90226 3.38599 5.77509 3.47976 5.68132C3.57353 5.58755 3.7007 5.53487 3.83331 5.53487H7.66665ZM8.99998 8.70154C8.99998 8.56893 8.9473 8.44175 8.85353 8.34799C8.75976 8.25422 8.63259 8.20154 8.49998 8.20154C8.36737 8.20154 8.24019 8.25422 8.14643 8.34799C8.05266 8.44175 7.99998 8.56893 7.99998 8.70154V13.7015C7.99998 13.8341 8.05266 13.9613 8.14643 14.0551C8.24019 14.1489 8.36737 14.2015 8.49998 14.2015C8.63259 14.2015 8.75976 14.1489 8.85353 14.0551C8.9473 13.9613 8.99998 13.8341 8.99998 13.7015V8.70154ZM11.5 8.20154C11.6326 8.20154 11.7598 8.25422 11.8535 8.34799C11.9473 8.44175 12 8.56893 12 8.70154V13.7015C12 13.8341 11.9473 13.9613 11.8535 14.0551C11.7598 14.1489 11.6326 14.2015 11.5 14.2015C11.3674 14.2015 11.2402 14.1489 11.1464 14.0551C11.0527 13.9613 11 13.8341 11 13.7015V8.70154C11 8.56893 11.0527 8.44175 11.1464 8.34799C11.2402 8.25422 11.3674 8.20154 11.5 8.20154ZM6.48931 14.5129C6.52527 14.884 6.69814 15.2284 6.97422 15.4789C7.25031 15.7295 7.60981 15.8683 7.98265 15.8682H12.0173C12.3901 15.8683 12.7497 15.7295 13.0257 15.4789C13.3018 15.2284 13.4747 14.884 13.5106 14.5129L14.2826 6.53487H5.71731L6.48931 14.5129Z" fill="black"/>
</svg>
