<svg width="16" height="17" viewBox="0 0 16 17" fill="none" xmlns="http://www.w3.org/2000/svg">
<path d="M13.3333 4.03488C13.5101 4.03488 13.6797 4.10512 13.8047 4.23014C13.9298 4.35517 14 4.52474 14 4.70155C14 4.87836 13.9298 5.04793 13.8047 5.17295C13.6797 5.29798 13.5101 5.36822 13.3333 5.36822H12.6667L12.6647 5.41555L12.0427 14.1295C12.0187 14.4659 11.8682 14.7808 11.6214 15.0106C11.3746 15.2404 11.0499 15.3682 10.7127 15.3682H5.28667C4.94943 15.3682 4.62471 15.2404 4.37792 15.0106C4.13114 14.7808 3.98061 14.4659 3.95667 14.1295L3.33467 5.41621L3.33333 5.36822H2.66667C2.48986 5.36822 2.32029 5.29798 2.19526 5.17295C2.07024 5.04793 2 4.87836 2 4.70155C2 4.52474 2.07024 4.35517 2.19526 4.23014C2.32029 4.10512 2.48986 4.03488 2.66667 4.03488H13.3333ZM11.3313 5.36822H4.66867L5.28733 14.0349H10.7127L11.3313 5.36822ZM9.33333 2.03488C9.51014 2.03488 9.67971 2.10512 9.80474 2.23014C9.92976 2.35517 10 2.52474 10 2.70155C10 2.87836 9.92976 3.04793 9.80474 3.17295C9.67971 3.29798 9.51014 3.36821 9.33333 3.36821H6.66667C6.48986 3.36821 6.32029 3.29798 6.19526 3.17295C6.07024 3.04793 6 2.87836 6 2.70155C6 2.52474 6.07024 2.35517 6.19526 2.23014C6.32029 2.10512 6.48986 2.03488 6.66667 2.03488H9.33333Z" fill="white"/>
</svg>
