<svg width="18" height="18" viewBox="0 0 18 18" fill="none" xmlns="http://www.w3.org/2000/svg">
<path fill-rule="evenodd" clip-rule="evenodd" d="M11.386 9.3335C11.2481 8.94347 10.9927 8.60579 10.655 8.36696C10.3172 8.12814 9.91367 7.99993 9.5 8V7.5H8.5V8C7.96957 8 7.46086 8.21071 7.08579 8.58579C6.71071 8.96086 6.5 9.46957 6.5 10C6.5 10.5304 6.71071 11.0391 7.08579 11.4142C7.46086 11.7893 7.96957 12 8.5 12V14C8.065 14 7.6945 13.7225 7.5565 13.3335C7.53603 13.2699 7.503 13.211 7.45936 13.1603C7.41573 13.1097 7.36239 13.0683 7.30248 13.0386C7.24257 13.0089 7.17732 12.9916 7.11059 12.9875C7.04386 12.9835 6.97699 12.9929 6.91396 13.0152C6.85092 13.0375 6.79299 13.0721 6.7436 13.1172C6.6942 13.1622 6.65434 13.2167 6.62637 13.2775C6.59841 13.3382 6.5829 13.4039 6.58078 13.4707C6.57865 13.5376 6.58995 13.6041 6.614 13.6665C6.75186 14.0565 7.00726 14.3942 7.34504 14.633C7.68281 14.8719 8.08633 15.0001 8.5 15V15.5H9.5V15C10.0304 15 10.5391 14.7893 10.9142 14.4142C11.2893 14.0391 11.5 13.5304 11.5 13C11.5 12.4696 11.2893 11.9609 10.9142 11.5858C10.5391 11.2107 10.0304 11 9.5 11V9C9.70681 8.99995 9.90854 9.06402 10.0774 9.18338C10.2463 9.30274 10.374 9.47153 10.443 9.6665C10.4872 9.79155 10.5792 9.89394 10.6988 9.95113C10.7581 9.97946 10.8223 9.99583 10.8879 9.99933C10.9535 10.0028 11.0191 9.99337 11.081 9.9715C11.1429 9.94964 11.1999 9.91579 11.2488 9.87189C11.2976 9.828 11.3373 9.77491 11.3656 9.71567C11.394 9.65642 11.4103 9.59218 11.4138 9.52661C11.4173 9.46104 11.4079 9.39542 11.386 9.3335ZM8.5 9C8.23478 9 7.98043 9.10536 7.79289 9.29289C7.60536 9.48043 7.5 9.73478 7.5 10C7.5 10.2652 7.60536 10.5196 7.79289 10.7071C7.98043 10.8946 8.23478 11 8.5 11V9ZM9.5 14C9.76522 14 10.0196 13.8946 10.2071 13.7071C10.3946 13.5196 10.5 13.2652 10.5 13C10.5 12.7348 10.3946 12.4804 10.2071 12.2929C10.0196 12.1054 9.76522 12 9.5 12V14Z" fill="black"/>
<path fill-rule="evenodd" clip-rule="evenodd" d="M3.57649 1.3105C4.80349 0.71 6.81649 0 9.01949 0C11.1765 0 13.1365 0.6805 14.357 1.273L14.426 1.3065C14.794 1.4885 15.091 1.6605 15.3 1.8L13.453 4.5C17.711 8.853 21 17.9985 9.01949 17.9985C-2.96101 17.9985 0.23949 9.019 4.53449 4.5L2.69949 1.8C2.84099 1.7075 3.02049 1.6 3.23449 1.486C3.34049 1.429 3.45449 1.37017 3.57649 1.3105ZM12.266 4.4645L13.7445 2.303C12.3695 2.402 10.7335 2.725 9.15849 3.181C8.03349 3.506 6.78349 3.4565 5.62599 3.243C5.33429 3.18899 5.04461 3.12462 4.75749 3.05L5.71749 4.4635C7.77499 5.196 10.208 5.196 12.266 4.4645ZM5.13999 5.315C7.54749 6.245 10.441 6.245 12.8485 5.314C13.8532 6.37356 14.6938 7.57736 15.3425 8.8855C16.0185 10.2645 16.3865 11.643 16.3265 12.831C16.2685 13.9775 15.8175 14.957 14.7875 15.685C13.714 16.4435 11.9085 16.9985 9.01899 16.9985C6.12649 16.9985 4.31249 16.453 3.22899 15.703C2.19149 14.9845 1.73599 14.018 1.67149 12.887C1.60399 11.712 1.96399 10.3405 2.63749 8.952C3.27999 7.628 4.17649 6.3535 5.13999 5.315ZM4.56499 1.958C4.96499 2.077 5.38299 2.1805 5.80699 2.259C6.88199 2.457 7.95999 2.486 8.87999 2.2195C9.95207 1.90705 11.0425 1.66141 12.145 1.484C11.225 1.207 10.149 1 9.01899 1C7.29649 1 5.68999 1.4805 4.56499 1.958Z" fill="black"/>
</svg>
