<svg width="24" height="24" viewBox="0 0 24 24" fill="none" xmlns="http://www.w3.org/2000/svg">
<path d="M20.4 12C20.4 10.6745 19.3255 9.59999 18 9.59999C16.6745 9.59999 15.6 10.6745 15.6 12C15.6 13.3255 16.6745 14.4 18 14.4C19.3255 14.4 20.4 13.3255 20.4 12Z" fill="white"/>
<path d="M14.4 12C14.4 10.6745 13.3255 9.59999 12 9.59999C10.6745 9.59999 9.59998 10.6745 9.59998 12C9.59998 13.3255 10.6745 14.4 12 14.4C13.3255 14.4 14.4 13.3255 14.4 12Z" fill="white"/>
<path d="M8.39998 12C8.39998 10.6745 7.32546 9.59999 5.99998 9.59999C4.67449 9.59999 3.59998 10.6745 3.59998 12C3.59998 13.3255 4.67449 14.4 5.99998 14.4C7.32546 14.4 8.39998 13.3255 8.39998 12Z" fill="white"/>
</svg>
