<svg width="24" height="24" viewBox="0 0 24 24" fill="none" xmlns="http://www.w3.org/2000/svg">
<path d="M8.25 15L6.375 15C5.87772 15 5.40081 14.8025 5.04918 14.4508C4.69754 14.0992 4.5 13.6223 4.5 13.125L4.5 4.125C4.5 3.62772 4.69755 3.1508 5.04918 2.79917C5.40081 2.44754 5.87772 2.25 6.375 2.25L17.625 2.25C18.1223 2.25 18.5992 2.44754 18.9508 2.79917C19.3025 3.15081 19.5 3.62772 19.5 4.125L19.5 13.125C19.5 13.6223 19.3025 14.0992 18.9508 14.4508C18.5992 14.8025 18.1223 15 17.625 15L15.75 15M8.25 18L12 21.75M12 21.75L15.75 18M12 21.75L12 8.95312" stroke="black" stroke-width="1.5" stroke-linecap="round" stroke-linejoin="round"/>
</svg>
