<svg width="24" height="24" viewBox="0 0 24 24" fill="none" xmlns="http://www.w3.org/2000/svg">
<path d="M17.6402 8.45472C17.7527 8.3422 17.8159 8.18961 17.8159 8.03052C17.8159 7.87142 17.7527 7.71883 17.6402 7.60632L16.1126 6.07872C16.0573 6.02141 15.9911 5.9757 15.9179 5.94425C15.8447 5.91281 15.7659 5.89626 15.6863 5.89557C15.6066 5.89487 15.5276 5.91005 15.4539 5.94022C15.3801 5.97039 15.3131 6.01494 15.2568 6.07128C15.2005 6.12761 15.1559 6.19461 15.1257 6.26834C15.0956 6.34208 15.0804 6.42109 15.0811 6.50076C15.0818 6.58042 15.0983 6.65916 15.1298 6.73236C15.1612 6.80556 15.2069 6.87177 15.2642 6.92712L16.7906 8.45472C16.9031 8.5672 17.0557 8.63039 17.2148 8.63039C17.3739 8.63039 17.5277 8.5672 17.6402 8.45472ZM9.49462 15.7519C9.55033 15.8077 9.5945 15.8739 9.62462 15.9468C9.65474 16.0196 9.67021 16.0977 9.67016 16.1765C9.6701 16.2554 9.65452 16.3334 9.6243 16.4062C9.59408 16.4791 9.54981 16.5452 9.49402 16.6009C9.43824 16.6566 9.37203 16.7008 9.29917 16.7309C9.22631 16.761 9.14824 16.7765 9.0694 16.7765C8.99056 16.7764 8.91251 16.7608 8.83969 16.7306C8.76688 16.7004 8.70073 16.6561 8.64502 16.6003L7.11862 15.0739C7.00596 14.9614 6.9426 14.8088 6.94249 14.6495C6.94243 14.5707 6.95791 14.4926 6.98803 14.4198C7.01814 14.3469 7.06232 14.2807 7.11802 14.2249C7.17373 14.1691 7.23988 14.1249 7.31269 14.0946C7.38551 14.0644 7.46356 14.0488 7.5424 14.0488C7.70162 14.0487 7.85436 14.1118 7.96702 14.2243L9.49462 15.7519ZM20.7254 3.01512C20.3955 2.68529 19.9481 2.5 19.4816 2.5C19.0151 2.5 18.5677 2.68529 18.2378 3.01512L17.4938 3.75912L17.1998 3.46632C16.968 3.2343 16.6875 3.0566 16.3787 2.94604C16.0699 2.83547 15.7404 2.7948 15.4139 2.82694C15.0875 2.85907 14.7723 2.96323 14.4909 3.13189C14.2096 3.30056 13.9692 3.52953 13.787 3.80232C13.2113 3.67732 12.6105 3.7421 12.0747 3.98697C11.5388 4.23184 11.0966 4.64364 10.8143 5.16074C10.532 5.67785 10.4247 6.27247 10.5085 6.85564C10.5922 7.43881 10.8626 7.97919 11.279 8.39592L12.0686 9.18432L9.70582 11.5471L8.91622 10.7575C8.49949 10.341 7.95912 10.0707 7.37595 9.98694C6.79277 9.90317 6.19816 10.0105 5.68105 10.2928C5.16394 10.5751 4.75215 11.0173 4.50728 11.5532C4.26241 12.089 4.19763 12.6898 4.32262 13.2655C4.05055 13.4482 3.82226 13.6889 3.6541 13.9702C3.48595 14.2515 3.3821 14.5665 3.34999 14.8927C3.31788 15.2189 3.3583 15.5481 3.46836 15.8568C3.57843 16.1655 3.75541 16.446 3.98662 16.6783L4.28062 16.9723L3.51622 17.7367C3.18603 18.0664 3.00034 18.5138 3 18.9804C2.99966 19.4471 3.18471 19.8947 3.51442 20.2249C3.84414 20.5551 4.29152 20.7408 4.75815 20.7411C5.22478 20.7415 5.67243 20.5564 6.00262 20.2267L6.76822 19.4611L7.06102 19.7539C7.29289 19.9859 7.57333 20.1636 7.88215 20.2742C8.19097 20.3848 8.52048 20.4254 8.84691 20.3933C9.17335 20.3612 9.48859 20.257 9.76992 20.0883C10.0512 19.9197 10.2917 19.6907 10.4738 19.4179C11.0496 19.5429 11.6503 19.4781 12.1862 19.2333C12.722 18.9884 13.1642 18.5766 13.4465 18.0595C13.7289 17.5424 13.8362 16.9478 13.7524 16.3646C13.6686 15.7814 13.3983 15.241 12.9818 14.8243L12.1922 14.0359L14.555 11.6743L15.3446 12.4627C15.7615 12.8786 16.3017 13.1485 16.8846 13.2319C17.4675 13.3154 18.0617 13.208 18.5785 12.9257C19.0953 12.6435 19.5069 12.2016 19.7518 11.6661C19.9966 11.1306 20.0616 10.5302 19.937 9.95472C20.057 9.87472 20.169 9.78272 20.273 9.67872C20.6885 9.2625 20.9219 8.69842 20.9219 8.11032C20.9219 7.52221 20.6885 6.95813 20.273 6.54192L19.9802 6.24912L20.7242 5.50512C21.0532 5.17454 21.238 4.72712 21.238 4.26072C21.238 3.79431 21.0532 3.34689 20.7242 3.01632M19.1306 5.39952L18.341 4.60752L19.085 3.86352C19.137 3.81159 19.1987 3.77042 19.2667 3.74235C19.3346 3.71428 19.4074 3.69986 19.4808 3.69991C19.5543 3.69997 19.6271 3.7145 19.695 3.74267C19.7628 3.77085 19.8245 3.81211 19.8764 3.86412C19.9283 3.91612 19.9695 3.97784 19.9976 4.04576C20.0257 4.11367 20.0401 4.18645 20.04 4.25994C20.04 4.33343 20.0254 4.40619 19.9973 4.47406C19.9691 4.54193 19.9278 4.60359 19.8758 4.65552L19.1306 5.39952ZM13.7066 10.8235L11.3438 13.1863L10.553 12.3955L12.9158 10.0339L13.7066 10.8235ZM5.91862 18.6115L5.15422 19.3759C5.04936 19.4809 4.90706 19.54 4.75865 19.5401C4.61023 19.5402 4.46785 19.4814 4.36282 19.3765C4.2578 19.2717 4.19873 19.1294 4.19862 18.9809C4.19851 18.8325 4.25736 18.6901 4.36222 18.5851L5.12902 17.8207L5.91862 18.6115ZM14.9114 4.31472C15.1026 4.12419 15.3615 4.01721 15.6314 4.01721C15.9013 4.01721 16.1602 4.12419 16.3514 4.31472L19.4258 7.38912C19.5495 7.51206 19.6395 7.66473 19.6872 7.83247C19.7349 8.00022 19.7387 8.1774 19.6982 8.34704C19.6578 8.51667 19.5744 8.67305 19.4561 8.80118C19.3378 8.9293 19.1885 9.02487 19.0226 9.07872C18.9423 9.10489 18.8683 9.14775 18.8057 9.20448C18.7431 9.26121 18.6931 9.33054 18.6591 9.40792C18.6251 9.48529 18.6079 9.56898 18.6085 9.65349C18.6091 9.738 18.6275 9.82143 18.6626 9.89832C18.8113 10.2239 18.8409 10.5913 18.7463 10.9365C18.6516 11.2817 18.4388 11.5827 18.145 11.787C17.8511 11.9913 17.4948 12.0859 17.1383 12.0544C16.7818 12.0228 16.4476 11.8671 16.1942 11.6143L12.1262 7.54752C11.8735 7.2941 11.7177 6.95998 11.6862 6.60346C11.6546 6.24694 11.7492 5.89066 11.9535 5.59678C12.1578 5.3029 12.4588 5.09009 12.804 4.99548C13.1492 4.90087 13.5166 4.93047 13.8422 5.07912C13.9192 5.11441 14.0027 5.13302 14.0874 5.13373C14.172 5.13444 14.2558 5.11722 14.3334 5.08322C14.4109 5.04922 14.4803 4.9992 14.5372 4.93645C14.594 4.87369 14.6369 4.79963 14.663 4.71912C14.7126 4.5669 14.7978 4.42748 14.9114 4.31472ZM5.90782 11.6071C6.19429 11.3207 6.58277 11.1599 6.98782 11.1599C7.39288 11.1599 7.78136 11.3207 8.06782 11.6071L12.1346 15.6739C12.3874 15.9273 12.5431 16.2614 12.5747 16.618C12.6063 16.9745 12.5116 17.3308 12.3073 17.6247C12.103 17.9185 11.802 18.1313 11.4568 18.2259C11.1117 18.3206 10.7442 18.291 10.4186 18.1423C10.3417 18.1072 10.2583 18.0888 10.1738 18.0882C10.0893 18.0876 10.0056 18.1048 9.92822 18.1388C9.85085 18.1728 9.78152 18.2228 9.72479 18.2854C9.66806 18.348 9.6252 18.422 9.59902 18.5023C9.54499 18.6677 9.44943 18.8165 9.32149 18.9345C9.19355 19.0524 9.0375 19.1356 8.86825 19.1761C8.699 19.2165 8.52221 19.2129 8.35476 19.1655C8.18731 19.1181 8.03481 19.0286 7.91182 18.9055L4.83622 15.8311C4.71311 15.7081 4.6236 15.5556 4.57624 15.3882C4.52887 15.2207 4.52524 15.0439 4.56569 14.8747C4.60614 14.7054 4.68931 14.5494 4.80726 14.4214C4.92522 14.2935 5.07401 14.198 5.23942 14.1439C5.31993 14.1178 5.394 14.0749 5.45675 14.0181C5.51951 13.9612 5.56953 13.8918 5.60353 13.8143C5.63753 13.7367 5.65474 13.6529 5.65404 13.5683C5.65333 13.4836 5.63472 13.4001 5.59942 13.3231C5.46914 13.0399 5.42885 12.7235 5.484 12.4167C5.53914 12.1098 5.68707 11.8273 5.90782 11.6071Z" fill="black"/>
</svg>
