<svg width="24" height="24" viewBox="0 0 24 24" fill="none" xmlns="http://www.w3.org/2000/svg">
<path d="M19.07 13.88L13 19.94V22H15.06L21.12 15.93M22.7 13.58L21.42 12.3C21.3718 12.247 21.3131 12.2046 21.2478 12.1753C21.1824 12.1461 21.1116 12.1306 21.04 12.13C20.89 12.14 20.75 12.19 20.65 12.3L19.65 13.3L21.7 15.3L22.7 14.3C22.89 14.1 22.89 13.78 22.7 13.58ZM11 18H4V8L12 13L20 8V10H22V6C22 4.9 21.1 4 20 4H4C2.9 4 2 4.9 2 6V18C2 19.1 2.9 20 4 20H11V18ZM20 6L12 11L4 6H20Z" fill="#B0B0B0"/>
</svg>
