<svg width="22" height="22" viewBox="0 0 22 22" fill="none" xmlns="http://www.w3.org/2000/svg">
<path fill-rule="evenodd" clip-rule="evenodd" d="M13.7569 1.621C14.635 0.742868 15.826 0.249539 17.0679 0.249539C18.3098 0.249539 19.5008 0.742868 20.3789 1.621C21.257 2.49913 21.7504 3.69013 21.7504 4.932C21.7504 6.17387 21.257 7.36487 20.3789 8.243L10.8929 17.729C10.3509 18.271 10.0329 18.589 9.6769 18.866C9.25823 19.194 8.80823 19.4723 8.32689 19.701C7.92089 19.894 7.4929 20.037 6.7669 20.279L3.4349 21.389L2.63289 21.657C2.31392 21.7635 1.97159 21.779 1.6443 21.7018C1.317 21.6246 1.01768 21.4578 0.779893 21.22C0.54211 20.9822 0.37527 20.6829 0.298083 20.3556C0.220895 20.0283 0.236413 19.686 0.342895 19.367L1.72089 15.234C1.96289 14.507 2.1059 14.079 2.2989 13.672C2.52823 13.192 2.80656 12.742 3.13389 12.322C3.40989 11.968 3.72889 11.649 4.2709 11.107L13.7569 1.621ZM3.3999 19.821L6.2409 18.873C7.0319 18.609 7.36789 18.496 7.68089 18.347C8.06223 18.1643 8.4199 17.9433 8.75389 17.684C9.02689 17.47 9.2789 17.221 9.8689 16.631L17.4389 9.061C16.401 8.69322 15.4589 8.09725 14.6819 7.317C13.9024 6.53983 13.3071 5.5977 12.9399 4.56L5.36989 12.13C4.77989 12.719 4.52989 12.97 4.3169 13.244C4.0569 13.5773 3.83589 13.935 3.65389 14.317C3.50489 14.63 3.39189 14.966 3.12789 15.757L2.1799 18.6L3.3999 19.821ZM14.1549 3.343C14.1899 3.518 14.2469 3.756 14.3439 4.033C14.6364 4.87005 15.1151 5.62979 15.7439 6.255C16.3688 6.88364 17.1282 7.36232 17.9649 7.655C18.2429 7.752 18.4809 7.809 18.6559 7.844L19.3179 7.182C19.9112 6.58454 20.2435 5.77629 20.242 4.93431C20.2405 4.09232 19.9054 3.28524 19.31 2.68986C18.7147 2.09448 17.9076 1.75935 17.0656 1.75788C16.2236 1.75641 15.4154 2.08871 14.8179 2.682L14.1549 3.343Z" fill="black"/>
</svg>
