<svg width="36" height="36" viewBox="0 0 36 36" fill="none" xmlns="http://www.w3.org/2000/svg">
<rect width="36" height="36" rx="18" fill="#E6E6E6"/>
<path fill-rule="evenodd" clip-rule="evenodd" d="M18 17C19.873 17 21.57 17.62 22.815 18.487C23.998 19.312 25 20.538 25 21.857C25 22.581 24.691 23.181 24.204 23.627C23.746 24.048 23.148 24.321 22.532 24.507C21.301 24.88 19.68 25 18 25C16.32 25 14.699 24.88 13.468 24.507C12.852 24.321 12.254 24.048 11.795 23.627C11.31 23.182 11 22.582 11 21.858C11 20.539 12.002 19.313 13.185 18.488C14.43 17.62 16.127 17 18 17ZM18 19C16.56 19 15.257 19.48 14.33 20.127C13.341 20.817 13 21.519 13 21.857C13 22.161 13.352 22.351 13.672 22.471L13.877 22.541L14.047 22.593C14.987 22.877 16.367 23 18 23C19.508 23 20.799 22.895 21.728 22.656L22.032 22.569L22.222 22.509C22.565 22.392 23 22.195 23 21.857C23 21.519 22.659 20.817 21.67 20.127C20.744 19.481 19.44 19 18 19ZM25 18C26.044 18 26.992 18.345 27.693 18.833C28.333 19.28 29 20.023 29 20.929C29 22.264 27.703 22.742 26.537 22.909L26.237 22.946L25.948 22.971L25.81 22.979C25.932 22.634 26 22.259 26 21.857C25.9994 21.5578 25.9635 21.2598 25.893 20.969C26.279 20.939 26.596 20.889 26.832 20.818C26.936 20.786 26.842 20.688 26.732 20.603L26.625 20.525L26.549 20.474C26.2488 20.2691 25.9104 20.127 25.554 20.056C25.174 19.296 24.59 18.638 23.968 18.113C24.3069 18.0381 24.6529 18.0002 25 18ZM11 18C11.358 18.0013 11.702 18.039 12.032 18.113C11.41 18.638 10.826 19.296 10.446 20.056C10.0896 20.127 9.75116 20.2691 9.451 20.474L9.323 20.562C9.196 20.654 9.047 20.782 9.168 20.818C9.404 20.889 9.721 20.94 10.108 20.969C10.0362 21.2595 9.99995 21.5577 10 21.857C10 22.259 10.068 22.634 10.19 22.979L9.91 22.959L9.614 22.929C8.412 22.782 7 22.322 7 20.929C7 20.024 7.666 19.28 8.307 18.833C9.09997 18.2898 10.0388 17.9994 11 18ZM24.5 12C25.163 12 25.7989 12.2634 26.2678 12.7322C26.7366 13.2011 27 13.837 27 14.5C27 15.163 26.7366 15.7989 26.2678 16.2678C25.7989 16.7366 25.163 17 24.5 17C23.837 17 23.2011 16.7366 22.7322 16.2678C22.2634 15.7989 22 15.163 22 14.5C22 13.837 22.2634 13.2011 22.7322 12.7322C23.2011 12.2634 23.837 12 24.5 12ZM11.5 12C12.163 12 12.7989 12.2634 13.2678 12.7322C13.7366 13.2011 14 13.837 14 14.5C14 15.163 13.7366 15.7989 13.2678 16.2678C12.7989 16.7366 12.163 17 11.5 17C10.837 17 10.2011 16.7366 9.73223 16.2678C9.26339 15.7989 9 15.163 9 14.5C9 13.837 9.26339 13.2011 9.73223 12.7322C10.2011 12.2634 10.837 12 11.5 12ZM18 8C19.0609 8 20.0783 8.42143 20.8284 9.17157C21.5786 9.92172 22 10.9391 22 12C22 13.0609 21.5786 14.0783 20.8284 14.8284C20.0783 15.5786 19.0609 16 18 16C16.9391 16 15.9217 15.5786 15.1716 14.8284C14.4214 14.0783 14 13.0609 14 12C14 10.9391 14.4214 9.92172 15.1716 9.17157C15.9217 8.42143 16.9391 8 18 8ZM24.5 14C24.3674 14 24.2402 14.0527 24.1464 14.1464C24.0527 14.2402 24 14.3674 24 14.5C24 14.6326 24.0527 14.7598 24.1464 14.8536C24.2402 14.9473 24.3674 15 24.5 15C24.6326 15 24.7598 14.9473 24.8536 14.8536C24.9473 14.7598 25 14.6326 25 14.5C25 14.3674 24.9473 14.2402 24.8536 14.1464C24.7598 14.0527 24.6326 14 24.5 14ZM11.5 14C11.3674 14 11.2402 14.0527 11.1464 14.1464C11.0527 14.2402 11 14.3674 11 14.5C11 14.6326 11.0527 14.7598 11.1464 14.8536C11.2402 14.9473 11.3674 15 11.5 15C11.6326 15 11.7598 14.9473 11.8536 14.8536C11.9473 14.7598 12 14.6326 12 14.5C12 14.3674 11.9473 14.2402 11.8536 14.1464C11.7598 14.0527 11.6326 14 11.5 14ZM18 10C17.4696 10 16.9609 10.2107 16.5858 10.5858C16.2107 10.9609 16 11.4696 16 12C16 12.5304 16.2107 13.0391 16.5858 13.4142C16.9609 13.7893 17.4696 14 18 14C18.5304 14 19.0391 13.7893 19.4142 13.4142C19.7893 13.0391 20 12.5304 20 12C20 11.4696 19.7893 10.9609 19.4142 10.5858C19.0391 10.2107 18.5304 10 18 10Z" fill="black"/>
</svg>
