<svg width="16" height="16" viewBox="0 0 16 16" fill="none" xmlns="http://www.w3.org/2000/svg">
<path d="M8.00001 6.00001L5.66667 3.66668L8.00001 1.33334L10.3333 3.66668L8.00001 6.00001ZM0.666672 13.3333V10.6667C0.666672 10.2889 0.797338 9.97223 1.05867 9.71668C1.32001 9.46112 1.63378 9.33334 2.00001 9.33334H4.18334C4.40556 9.33334 4.61667 9.3889 4.81667 9.50001C5.01667 9.61112 5.17778 9.76112 5.30001 9.95001C5.62223 10.3833 6.01956 10.7222 6.49201 10.9667C6.96445 11.2111 7.46712 11.3333 8.00001 11.3333C8.54445 11.3333 9.05289 11.2111 9.52534 10.9667C9.99778 10.7222 10.3893 10.3833 10.7 9.95001C10.8444 9.76112 11.014 9.61112 11.2087 9.50001C11.4033 9.3889 11.606 9.33334 11.8167 9.33334H14C14.3778 9.33334 14.6945 9.46112 14.95 9.71668C15.2056 9.97223 15.3333 10.2889 15.3333 10.6667V13.3333H10.6667V11.8167C10.2778 12.0945 9.85823 12.3056 9.40801 12.45C8.95778 12.5945 8.48845 12.6667 8.00001 12.6667C7.52223 12.6667 7.05556 12.5918 6.60001 12.442C6.14445 12.2922 5.72223 12.0782 5.33334 11.8V13.3333H0.666672ZM2.66667 8.66668C2.11112 8.66668 1.63889 8.47223 1.25001 8.08334C0.861116 7.69445 0.666672 7.22223 0.666672 6.66668C0.666672 6.10001 0.861116 5.62512 1.25001 5.24201C1.63889 4.8589 2.11112 4.66712 2.66667 4.66668C3.23334 4.66668 3.70845 4.85845 4.09201 5.24201C4.47556 5.62557 4.66712 6.10045 4.66667 6.66668C4.66667 7.22223 4.47512 7.69445 4.09201 8.08334C3.70889 8.47223 3.23378 8.66668 2.66667 8.66668ZM13.3333 8.66668C12.7778 8.66668 12.3056 8.47223 11.9167 8.08334C11.5278 7.69445 11.3333 7.22223 11.3333 6.66668C11.3333 6.10001 11.5278 5.62512 11.9167 5.24201C12.3056 4.8589 12.7778 4.66712 13.3333 4.66668C13.9 4.66668 14.3751 4.85845 14.7587 5.24201C15.1422 5.62557 15.3338 6.10045 15.3333 6.66668C15.3333 7.22223 15.1418 7.69445 14.7587 8.08334C14.3756 8.47223 13.9005 8.66668 13.3333 8.66668Z" fill="#8A8A8A"/>
</svg>
