<svg width="75" height="56" viewBox="0 0 75 56" fill="none" xmlns="http://www.w3.org/2000/svg">
<rect width="74.25" height="56" rx="8" fill="white"/>
<g clip-path="url(#clip0_1531_399)">
<path d="M49.125 28C49.125 21.3726 43.7524 16 37.125 16C30.4976 16 25.125 21.3726 25.125 28C25.125 33.9895 29.5132 38.954 35.25 39.8542V31.4688H32.2031V28H35.25V25.3563C35.25 22.3488 37.0416 20.6875 39.7826 20.6875C41.0955 20.6875 42.4688 20.9219 42.4688 20.9219V23.875H40.9556C39.4649 23.875 39 24.8 39 25.7491V28H42.3281L41.7961 31.4688H39V39.8542C44.7367 38.954 49.125 33.9896 49.125 28Z" fill="#1877F2"/>
<path d="M41.7961 31.4688L42.3281 28H39V25.7491C39 24.7999 39.4649 23.875 40.9556 23.875H42.4688V20.9219C42.4688 20.9219 41.0955 20.6875 39.7825 20.6875C37.0416 20.6875 35.25 22.3488 35.25 25.3563V28H32.2031V31.4688H35.25V39.8542C35.8703 39.9514 36.4972 40.0001 37.125 40C37.7528 40.0001 38.3797 39.9514 39 39.8542V31.4688H41.7961Z" fill="white"/>
</g>
<defs>
<clipPath id="clip0_1531_399">
<rect width="24" height="24" fill="white" transform="translate(25.125 16)"/>
</clipPath>
</defs>
</svg>
