<svg width="25" height="24" viewBox="0 0 25 24" fill="none" xmlns="http://www.w3.org/2000/svg">
<g clip-path="url(#clip0_1531_408)">
<path d="M24.125 12C24.125 5.37262 18.7524 0 12.125 0C5.49762 0 0.125 5.37262 0.125 12C0.125 17.9895 4.51325 22.954 10.25 23.8542V15.4688H7.20312V12H10.25V9.35625C10.25 6.34875 12.0416 4.6875 14.7826 4.6875C16.0955 4.6875 17.4688 4.92188 17.4688 4.92188V7.875H15.9556C14.4649 7.875 14 8.80003 14 9.74906V12H17.3281L16.7961 15.4688H14V23.8542C19.7367 22.954 24.125 17.9896 24.125 12Z" fill="#1877F2"/>
<path d="M16.7961 15.4688L17.3281 12H14V9.74906C14 8.79994 14.4649 7.875 15.9556 7.875H17.4688V4.92188C17.4688 4.92188 16.0955 4.6875 14.7825 4.6875C12.0416 4.6875 10.25 6.34875 10.25 9.35625V12H7.20312V15.4688H10.25V23.8542C10.8703 23.9514 11.4972 24.0001 12.125 24C12.7528 24.0001 13.3797 23.9514 14 23.8542V15.4688H16.7961Z" fill="white"/>
</g>
<defs>
<clipPath id="clip0_1531_408">
<rect width="24" height="24" fill="white" transform="translate(0.125)"/>
</clipPath>
</defs>
</svg>
