<svg width="20" height="20" viewBox="0 0 20 20" fill="none" xmlns="http://www.w3.org/2000/svg">
<path fill-rule="evenodd" clip-rule="evenodd" d="M15 8.5H11.187L13.46 3.197C13.4926 3.12091 13.5058 3.03792 13.4984 2.95547C13.4911 2.87301 13.4633 2.79368 13.4177 2.72459C13.3721 2.6555 13.3101 2.59881 13.2372 2.55961C13.1643 2.52041 13.0828 2.49993 13 2.5H7.99997C7.90205 2.49991 7.80626 2.52858 7.72449 2.58245C7.64271 2.63631 7.57855 2.713 7.53997 2.803L4.53997 9.803C4.50736 9.87909 4.49414 9.96208 4.50151 10.0445C4.50889 10.127 4.53662 10.2063 4.58222 10.2754C4.62782 10.3445 4.68986 10.4012 4.76277 10.4404C4.83568 10.4796 4.91719 10.5001 4.99997 10.5H7.47397L4.53597 17.814C4.33597 18.311 4.95297 18.732 5.34297 18.364L10.367 13.621L15.325 9.38C15.4027 9.31357 15.4581 9.22493 15.4839 9.12601C15.5096 9.02709 15.5045 8.92266 15.469 8.82678C15.4336 8.73089 15.3697 8.64816 15.2858 8.58974C15.2019 8.53131 15.1022 8.49999 15 8.5ZM10.429 9.5H13.646L9.69797 12.878L6.31297 16.073L8.67797 10.186C8.70838 10.1101 8.71972 10.028 8.71101 9.94672C8.7023 9.86546 8.6738 9.78757 8.62801 9.71987C8.58223 9.65217 8.52054 9.59673 8.44836 9.5584C8.37618 9.52007 8.2957 9.50002 8.21397 9.5H5.75797L8.32997 3.5H12.242L9.96897 8.803C9.93636 8.87909 9.92314 8.96208 9.93051 9.04453C9.93789 9.12699 9.96562 9.20632 10.0112 9.27541C10.0568 9.3445 10.1189 9.40119 10.1918 9.44039C10.2647 9.47959 10.3462 9.50007 10.429 9.5Z" fill="black"/>
</svg>
