<svg width="24" height="24" viewBox="0 0 24 24" fill="none" xmlns="http://www.w3.org/2000/svg">
<path d="M14.7701 12.4C14.9201 12.47 15.0901 12.5 15.2501 12.5C15.5801 12.5 15.8901 12.37 16.1301 12.14L18.3101 10H19.2501C20.7701 10 22.0001 8.77 22.0001 7.25V4.75C22.0001 3.23 20.7701 2 19.2501 2H14.7501C13.2301 2 12.0001 3.23 12.0001 4.75V7.25C12.0001 8.51 12.8501 9.57 14.0001 9.9V11.25C14.0001 11.75 14.3101 12.2 14.7701 12.4ZM13.5001 4.75C13.5001 4.06 14.0601 3.5 14.7501 3.5H19.2501C19.9401 3.5 20.5001 4.06 20.5001 4.75V7.25C20.5001 7.94 19.9401 8.5 19.2501 8.5H17.6901L15.5001 10.65V8.5H14.7501C14.0601 8.5 13.5001 7.94 13.5001 7.25V4.75ZM8.0001 13.5C6.0701 13.5 4.5001 11.93 4.5001 10C4.5001 8.07 6.0701 6.5 8.0001 6.5C9.9301 6.5 11.5001 8.07 11.5001 10C11.5001 11.93 9.9301 13.5 8.0001 13.5ZM8.0001 8C6.9001 8 6.0001 8.9 6.0001 10C6.0001 11.1 6.9001 12 8.0001 12C9.1001 12 10.0001 11.1 10.0001 10C10.0001 8.9 9.1001 8 8.0001 8ZM8.0001 22C5.9401 22 4.3601 21.44 3.3001 20.33C1.9641 18.926 1.9971 17.156 2.0001 16.973V16.96C2.0001 15.89 2.9001 15 4.0001 15H12.0001C13.1001 15 14.0001 15.9 14.0001 17L14.0011 17.006C14.0041 17.133 14.0461 18.916 12.7011 20.33C11.6401 21.44 10.0601 22 8.0001 22ZM4.0001 16.5C3.7201 16.5 3.5001 16.72 3.5001 17V17.005C3.5001 17.1 3.4831 18.353 4.4001 19.31C5.1601 20.1 6.3701 20.5 8.0001 20.5C9.6301 20.5 10.8501 20.09 11.6101 19.29C12.5231 18.338 12.5021 17.098 12.5001 17.032V17.03C12.5001 16.72 12.2701 16.49 12.0001 16.49H4.0001V16.5Z" fill="white"/>
</svg>
