<svg width="16" height="16" viewBox="0 0 16 16" fill="none" xmlns="http://www.w3.org/2000/svg">
<path d="M11.6784 5.90401C11.7534 5.829 11.7955 5.72728 11.7955 5.62121C11.7955 5.51515 11.7534 5.41343 11.6784 5.33841L10.66 4.32001C10.6231 4.28181 10.579 4.25134 10.5302 4.23037C10.4814 4.20941 10.4289 4.19838 10.3758 4.19791C10.3226 4.19745 10.27 4.20757 10.2208 4.22769C10.1717 4.2478 10.127 4.2775 10.0894 4.31506C10.0519 4.35261 10.0222 4.39727 10.0021 4.44643C9.98195 4.49559 9.97183 4.54826 9.97229 4.60137C9.97275 4.65449 9.98379 4.70697 10.0048 4.75578C10.0257 4.80458 10.0562 4.84872 10.0944 4.88561L11.112 5.90401C11.187 5.979 11.2887 6.02113 11.3948 6.02113C11.5009 6.02113 11.6034 5.979 11.6784 5.90401ZM6.24799 10.7688C6.28513 10.806 6.31458 10.8501 6.33466 10.8987C6.35474 10.9473 6.36505 10.9993 6.36501 11.0519C6.36498 11.1045 6.35459 11.1565 6.33444 11.205C6.31429 11.2536 6.28478 11.2977 6.24759 11.3348C6.2104 11.372 6.16626 11.4014 6.11769 11.4215C6.06912 11.4416 6.01707 11.4519 5.96451 11.4518C5.91195 11.4518 5.85992 11.4414 5.81137 11.4213C5.76283 11.4011 5.71873 11.3716 5.68159 11.3344L4.66399 10.3168C4.58888 10.2418 4.54665 10.14 4.54657 10.0339C4.54653 9.98134 4.55685 9.92929 4.57693 9.88072C4.59701 9.83215 4.62645 9.78801 4.66359 9.75081C4.70073 9.71362 4.74483 9.68411 4.79337 9.66397C4.84192 9.64382 4.89395 9.63343 4.94651 9.63339C5.05266 9.63332 5.15448 9.67541 5.22959 9.75041L6.24799 10.7688ZM13.7352 2.27761C13.5153 2.05773 13.217 1.9342 12.906 1.9342C12.595 1.9342 12.2967 2.05773 12.0768 2.27761L11.5808 2.77361L11.3848 2.57841C11.2302 2.42373 11.0433 2.30527 10.8374 2.23156C10.6315 2.15785 10.4118 2.13074 10.1942 2.15216C9.97657 2.17359 9.76641 2.24302 9.57886 2.35547C9.39131 2.46791 9.23104 2.62056 9.10959 2.80241C8.72576 2.71908 8.32527 2.76227 7.96803 2.92552C7.61079 3.08877 7.31601 3.36329 7.12779 3.70803C6.93957 4.05277 6.86803 4.44918 6.92388 4.83796C6.97972 5.22675 7.15995 5.58699 7.43759 5.86481L7.96399 6.39041L6.38879 7.96561L5.86239 7.43921C5.58457 7.16157 5.22432 6.98134 4.83554 6.9255C4.44676 6.86965 4.05035 6.94119 3.70561 7.12941C3.36087 7.31763 3.08634 7.61241 2.9231 7.96965C2.75985 8.32689 2.71666 8.72738 2.79999 9.11121C2.61861 9.23303 2.46642 9.39346 2.35431 9.581C2.24221 9.76854 2.17298 9.97856 2.15157 10.196C2.13016 10.4134 2.15711 10.6329 2.23049 10.8387C2.30386 11.0445 2.42185 11.2316 2.57599 11.3864L2.77199 11.5824L2.26239 12.092C2.04226 12.3118 1.91847 12.6101 1.91824 12.9212C1.91802 13.2323 2.04138 13.5307 2.26119 13.7508C2.481 13.9709 2.77926 14.0947 3.09034 14.095C3.40143 14.0952 3.69986 13.9718 3.91999 13.752L4.43039 13.2416L4.62559 13.4368C4.78017 13.5915 4.96713 13.71 5.17301 13.7837C5.37889 13.8574 5.59856 13.8845 5.81618 13.8631C6.03381 13.8416 6.24397 13.7722 6.43152 13.6598C6.61908 13.5473 6.77935 13.3947 6.90079 13.2128C7.28462 13.2961 7.68512 13.253 8.04236 13.0897C8.3996 12.9265 8.69438 12.6519 8.8826 12.3072C9.07082 11.9625 9.14235 11.566 9.08651 11.1773C9.03066 10.7885 8.85044 10.4282 8.57279 10.1504L8.04639 9.62481L9.62159 8.05041L10.148 8.57601C10.4259 8.85329 10.786 9.03319 11.1746 9.08883C11.5632 9.14447 11.9594 9.07286 12.3039 8.8847C12.6485 8.69655 12.9228 8.40195 13.0861 8.04494C13.2493 7.68794 13.2927 7.28769 13.2096 6.90401C13.2896 6.85068 13.3643 6.78935 13.4336 6.72001C13.7106 6.44254 13.8662 6.06649 13.8662 5.67441C13.8662 5.28234 13.7106 4.90629 13.4336 4.62881L13.2384 4.43361L13.7344 3.93761C13.9537 3.71723 14.0769 3.41895 14.0769 3.10801C14.0769 2.79708 13.9537 2.4988 13.7344 2.27841M12.672 3.86721L12.1456 3.33921L12.6416 2.84321C12.6763 2.8086 12.7174 2.78115 12.7627 2.76243C12.808 2.74372 12.8565 2.73411 12.9055 2.73414C12.9545 2.73418 13.003 2.74387 13.0482 2.76265C13.0935 2.78143 13.1346 2.80895 13.1692 2.84361C13.2038 2.87828 13.2313 2.91943 13.25 2.96471C13.2687 3.00999 13.2783 3.05851 13.2783 3.1075C13.2782 3.15649 13.2685 3.20499 13.2498 3.25024C13.231 3.29549 13.2035 3.3366 13.1688 3.37121L12.672 3.86721ZM9.05599 7.48321L7.48079 9.05841L6.95359 8.53121L8.52879 6.95681L9.05599 7.48321ZM3.86399 12.6752L3.35439 13.1848C3.28448 13.2548 3.18962 13.2942 3.09068 13.2943C2.99173 13.2944 2.89681 13.2551 2.82679 13.1852C2.75678 13.1153 2.7174 13.0204 2.71732 12.9215C2.71725 12.8226 2.75648 12.7276 2.82639 12.6576L3.33759 12.148L3.86399 12.6752ZM9.85919 3.14401C9.98665 3.017 10.1593 2.94568 10.3392 2.94568C10.5191 2.94568 10.6917 3.017 10.8192 3.14401L12.8688 5.19361C12.9513 5.27558 13.0113 5.37736 13.0431 5.48919C13.0749 5.60101 13.0774 5.71914 13.0504 5.83223C13.0234 5.94532 12.9678 6.04957 12.889 6.13499C12.8101 6.22041 12.7106 6.28412 12.6 6.32001C12.5464 6.33747 12.4971 6.36604 12.4554 6.40386C12.4136 6.44168 12.3803 6.4879 12.3577 6.53948C12.335 6.59107 12.3235 6.64686 12.3239 6.7032C12.3243 6.75954 12.3366 6.81516 12.36 6.86641C12.4591 7.08347 12.4788 7.32844 12.4157 7.55856C12.3527 7.78868 12.2108 7.98935 12.0149 8.12555C11.819 8.26175 11.5814 8.32483 11.3438 8.30379C11.1061 8.28275 10.8833 8.17892 10.7144 8.01041L8.00239 5.29921C7.83389 5.13027 7.73006 4.90753 7.70901 4.66985C7.68797 4.43217 7.75106 4.19464 7.88726 3.99873C8.02346 3.80281 8.22412 3.66093 8.45425 3.59786C8.68437 3.53479 8.92933 3.55452 9.14639 3.65361C9.19769 3.67714 9.25338 3.68955 9.30982 3.69002C9.36625 3.69049 9.42214 3.67902 9.47382 3.65635C9.52551 3.63368 9.57181 3.60034 9.60968 3.5585C9.64756 3.51667 9.67616 3.46729 9.69359 3.41361C9.72666 3.31214 9.78343 3.21919 9.85919 3.14401ZM3.85679 8.00561C4.04777 7.8147 4.30675 7.70745 4.57679 7.70745C4.84683 7.70745 5.10581 7.8147 5.29679 8.00561L8.00799 10.7168C8.1765 10.8858 8.28033 11.1085 8.30137 11.3462C8.32241 11.5839 8.25933 11.8214 8.12313 12.0173C7.98693 12.2132 7.78626 12.3551 7.55614 12.4182C7.32602 12.4812 7.08105 12.4615 6.86399 12.3624C6.81274 12.339 6.75712 12.3267 6.70078 12.3263C6.64443 12.3259 6.58864 12.3374 6.53706 12.3601C6.48547 12.3827 6.43926 12.416 6.40144 12.4578C6.36362 12.4996 6.33504 12.5488 6.31759 12.6024C6.28157 12.7127 6.21786 12.8119 6.13257 12.8905C6.04728 12.9692 5.94325 13.0246 5.83041 13.0516C5.71758 13.0785 5.59971 13.0761 5.48808 13.0445C5.37645 13.013 5.27478 12.9533 5.19279 12.8712L3.14239 10.8216C3.06032 10.7396 3.00064 10.638 2.96907 10.5263C2.93749 10.4147 2.93507 10.2968 2.96204 10.184C2.989 10.0712 3.04445 9.96713 3.12309 9.88184C3.20172 9.79654 3.30092 9.73284 3.41119 9.69682C3.46487 9.67938 3.51424 9.65078 3.55608 9.61291C3.59792 9.57503 3.63126 9.52873 3.65393 9.47705C3.6766 9.42536 3.68807 9.36947 3.6876 9.31304C3.68713 9.25661 3.67472 9.20091 3.65119 9.14961C3.56434 8.96079 3.53748 8.74987 3.57424 8.54531C3.61101 8.34075 3.70962 8.15238 3.85679 8.00561Z" fill="#8A8A8A"/>
</svg>
