<svg width="24" height="25" viewBox="0 0 24 25" fill="none" xmlns="http://www.w3.org/2000/svg">
<path d="M17.5175 9.35601C17.63 9.24349 17.6932 9.09091 17.6932 8.93181C17.6932 8.77271 17.63 8.62012 17.5175 8.50761L15.9899 6.98001C15.9346 6.9227 15.8684 6.87699 15.7952 6.84555C15.722 6.8141 15.6433 6.79755 15.5636 6.79686C15.4839 6.79616 15.4049 6.81135 15.3312 6.84151C15.2574 6.87168 15.1904 6.91623 15.1341 6.97257C15.0778 7.02891 15.0332 7.0959 15.0031 7.16963C14.9729 7.24337 14.9577 7.32238 14.9584 7.40205C14.9591 7.48171 14.9756 7.56045 15.0071 7.63365C15.0385 7.70685 15.0842 7.77306 15.1415 7.82841L16.6679 9.35601C16.7805 9.46849 16.933 9.53168 17.0921 9.53168C17.2512 9.53168 17.405 9.46849 17.5175 9.35601ZM9.37194 16.6532C9.42765 16.709 9.47182 16.7752 9.50194 16.8481C9.53206 16.9209 9.54753 16.999 9.54748 17.0778C9.54742 17.1567 9.53184 17.2347 9.50162 17.3075C9.4714 17.3804 9.42713 17.4465 9.37134 17.5022C9.31556 17.5579 9.24935 17.6021 9.17649 17.6322C9.10363 17.6623 9.02556 17.6778 8.94672 17.6777C8.86788 17.6777 8.78983 17.6621 8.71701 17.6319C8.6442 17.6017 8.57805 17.5574 8.52234 17.5016L6.99594 15.9752C6.88328 15.8627 6.81992 15.71 6.81981 15.5508C6.81975 15.472 6.83523 15.3939 6.86534 15.3211C6.89546 15.2482 6.93964 15.182 6.99534 15.1262C7.05105 15.0704 7.1172 15.0262 7.19001 14.9959C7.26283 14.9657 7.34088 14.9501 7.41972 14.9501C7.57894 14.95 7.73168 15.0131 7.84434 15.1256L9.37194 16.6532ZM20.6027 3.91641C20.2728 3.58658 19.8254 3.40129 19.3589 3.40129C18.8924 3.40129 18.445 3.58658 18.1151 3.91641L17.3711 4.66041L17.0771 4.36761C16.8453 4.13559 16.5648 3.95789 16.256 3.84733C15.9472 3.73677 15.6177 3.69609 15.2913 3.72823C14.9648 3.76036 14.6496 3.86452 14.3682 4.03318C14.0869 4.20185 13.8465 4.43082 13.6643 4.70361C13.0886 4.57861 12.4879 4.64339 11.952 4.88826C11.4161 5.13313 10.974 5.54493 10.6916 6.06203C10.4093 6.57914 10.302 7.17376 10.3858 7.75693C10.4695 8.3401 10.7399 8.88048 11.1563 9.29721L11.9459 10.0856L9.58314 12.4484L8.79354 11.6588C8.37681 11.2423 7.83644 10.972 7.25327 10.8882C6.67009 10.8045 6.07547 10.9118 5.55837 11.1941C5.04126 11.4764 4.62947 11.9186 4.3846 12.4545C4.13973 12.9903 4.07495 13.5911 4.19994 14.1668C3.92787 14.3495 3.69958 14.5902 3.53142 14.8715C3.36327 15.1528 3.25942 15.4678 3.22731 15.794C3.19519 16.1202 3.23562 16.4494 3.34568 16.7581C3.45575 17.0668 3.63273 17.3473 3.86394 17.5796L4.15794 17.8736L3.39354 18.638C3.06335 18.9677 2.87766 19.4151 2.87732 19.8817C2.87698 20.3484 3.06203 20.796 3.39174 21.1262C3.72146 21.4564 4.16884 21.6421 4.63547 21.6424C5.1021 21.6428 5.54975 21.4577 5.87994 21.128L6.64554 20.3624L6.93834 20.6552C7.17021 20.8872 7.45065 21.0649 7.75947 21.1755C8.06829 21.286 8.3978 21.3267 8.72423 21.2946C9.05067 21.2624 9.36591 21.1583 9.64724 20.9896C9.92857 20.821 10.169 20.592 10.3511 20.3192C10.9269 20.4442 11.5276 20.3794 12.0635 20.1345C12.5994 19.8897 13.0415 19.4779 13.3238 18.9608C13.6062 18.4437 13.7135 17.8491 13.6297 17.2659C13.5459 16.6827 13.2756 16.1423 12.8591 15.7256L12.0695 14.9372L14.4323 12.5756L15.2219 13.364C15.6388 13.7799 16.179 14.0498 16.7619 14.1332C17.3448 14.2167 17.9391 14.1093 18.4558 13.827C18.9726 13.5448 19.3842 13.1029 19.6291 12.5674C19.874 12.0319 19.9389 11.4315 19.8143 10.856C19.9343 10.776 20.0463 10.684 20.1503 10.58C20.5658 10.1638 20.7992 9.59971 20.7992 9.01161C20.7992 8.4235 20.5658 7.85942 20.1503 7.44321L19.8575 7.15041L20.6015 6.40641C20.9306 6.07583 21.1153 5.62841 21.1153 5.16201C21.1153 4.6956 20.9306 4.24818 20.6015 3.91761M19.0079 6.30081L18.2183 5.50881L18.9623 4.76481C19.0143 4.71288 19.0761 4.67171 19.144 4.64364C19.2119 4.61557 19.2847 4.60115 19.3582 4.6012C19.4317 4.60126 19.5044 4.61579 19.5723 4.64396C19.6402 4.67214 19.7018 4.7134 19.7537 4.76541C19.8057 4.81741 19.8468 4.87913 19.8749 4.94705C19.903 5.01496 19.9174 5.08774 19.9173 5.16123C19.9173 5.23472 19.9028 5.30748 19.8746 5.37535C19.8464 5.44322 19.8051 5.50488 19.7531 5.55681L19.0079 6.30081ZM13.5839 11.7248L11.2211 14.0876L10.4303 13.2968L12.7931 10.9352L13.5839 11.7248ZM5.79594 19.5128L5.03154 20.2772C4.92668 20.3822 4.78438 20.4413 4.63597 20.4414C4.48755 20.4415 4.34517 20.3827 4.24014 20.2778C4.13512 20.1729 4.07605 20.0306 4.07594 19.8822C4.07583 19.7338 4.13468 19.5914 4.23954 19.4864L5.00634 18.722L5.79594 19.5128ZM14.7887 5.21601C14.9799 5.02548 15.2388 4.9185 15.5087 4.9185C15.7787 4.9185 16.0376 5.02548 16.2287 5.21601L19.3031 8.29041C19.4268 8.41335 19.5168 8.56602 19.5646 8.73376C19.6123 8.90151 19.616 9.07869 19.5756 9.24833C19.5351 9.41796 19.4517 9.57434 19.3334 9.70247C19.2151 9.83059 19.0658 9.92616 18.8999 9.98001C18.8196 10.0062 18.7457 10.049 18.683 10.1058C18.6204 10.1625 18.5704 10.2318 18.5364 10.3092C18.5025 10.3866 18.4852 10.4703 18.4858 10.5548C18.4864 10.6393 18.5049 10.7227 18.5399 10.7996C18.6886 11.1252 18.7182 11.4926 18.6236 11.8378C18.529 12.183 18.3162 12.484 18.0223 12.6883C17.7284 12.8926 17.3721 12.9872 17.0156 12.9557C16.6591 12.9241 16.325 12.7684 16.0715 12.5156L12.0035 8.44881C11.7508 8.19539 11.595 7.86128 11.5635 7.50476C11.5319 7.14824 11.6265 6.79195 11.8308 6.49807C12.0351 6.2042 12.3361 5.99138 12.6813 5.89677C13.0265 5.80216 13.394 5.83176 13.7195 5.98041C13.7965 6.0157 13.88 6.03431 13.9647 6.03502C14.0493 6.03573 14.1332 6.01852 14.2107 5.98451C14.2882 5.95051 14.3577 5.90049 14.4145 5.83774C14.4713 5.77498 14.5142 5.70092 14.5403 5.62041C14.5899 5.46819 14.6751 5.32877 14.7887 5.21601ZM5.78514 12.5084C6.07161 12.222 6.46009 12.0612 6.86514 12.0612C7.2702 12.0612 7.65868 12.222 7.94514 12.5084L12.0119 16.5752C12.2647 16.8286 12.4204 17.1627 12.452 17.5193C12.4836 17.8758 12.3889 18.2321 12.1846 18.5259C11.9803 18.8198 11.6793 19.0326 11.3342 19.1272C10.989 19.2218 10.6215 19.1923 10.2959 19.0436C10.2191 19.0085 10.1356 18.9901 10.0511 18.9895C9.96661 18.9889 9.88292 19.0061 9.80554 19.0401C9.72817 19.0741 9.65884 19.124 9.60211 19.1867C9.54538 19.2493 9.50252 19.3233 9.47634 19.4036C9.42231 19.569 9.32675 19.7178 9.19881 19.8358C9.07087 19.9537 8.91482 20.0369 8.74557 20.0773C8.57632 20.1178 8.39953 20.1142 8.23208 20.0668C8.06463 20.0194 7.91213 19.9299 7.78914 19.8068L4.71354 16.7324C4.59043 16.6094 4.50092 16.4569 4.45356 16.2895C4.40619 16.122 4.40256 15.9452 4.44301 15.776C4.48346 15.6067 4.56663 15.4507 4.68458 15.3227C4.80254 15.1948 4.95133 15.0992 5.11674 15.0452C5.19725 15.0191 5.27132 14.9762 5.33407 14.9193C5.39683 14.8625 5.44685 14.7931 5.48085 14.7156C5.51485 14.638 5.53206 14.5542 5.53136 14.4695C5.53065 14.3849 5.51204 14.3014 5.47674 14.2244C5.34646 13.9412 5.30617 13.6248 5.36132 13.3179C5.41646 13.0111 5.56439 12.7286 5.78514 12.5084Z" fill="white"/>
</svg>
