<svg width="24" height="25" viewBox="0 0 24 25" fill="none" xmlns="http://www.w3.org/2000/svg">
<path d="M19.5 13.7015V10.7015C19.5 7.40154 19.5 5.75154 18.475 4.72654C17.45 3.70154 15.8 3.70154 12.5 3.70154H9.5C6.2 3.70154 4.55 3.70154 3.525 4.72654C2.5 5.75154 2.5 7.40154 2.5 10.7015V15.7015C2.5 19.0015 2.5 20.6515 3.525 21.6765C4.55 22.7015 6.2 22.7015 9.5 22.7015H11M16 2.70154V4.70154M11 2.70154V4.70154M6 2.70154V4.70154M13.5 20.7015C13.5 20.7015 14.5 20.7015 15.5 22.7015C15.5 22.7015 18.677 17.7015 21.5 16.7015M7 15.7015H11M7 10.7015H15" stroke="black" stroke-width="1.5" stroke-linecap="round" stroke-linejoin="round"/>
</svg>
