<svg width="75" height="56" viewBox="0 0 75 56" fill="none" xmlns="http://www.w3.org/2000/svg">
<rect x="0.5" width="74.25" height="56" rx="8" fill="white"/>
<g clip-path="url(#clip0_1531_404)">
<path d="M44 16H31.25C28.1434 16 25.625 18.5184 25.625 21.625V34.375C25.625 37.4816 28.1434 40 31.25 40H44C47.1066 40 49.625 37.4816 49.625 34.375V21.625C49.625 18.5184 47.1066 16 44 16Z" fill="url(#paint0_radial_1531_404)"/>
<path d="M44 16H31.25C28.1434 16 25.625 18.5184 25.625 21.625V34.375C25.625 37.4816 28.1434 40 31.25 40H44C47.1066 40 49.625 37.4816 49.625 34.375V21.625C49.625 18.5184 47.1066 16 44 16Z" fill="url(#paint1_radial_1531_404)"/>
<path d="M37.6258 18.625C35.0798 18.625 34.7602 18.6362 33.7603 18.6816C32.7622 18.7274 32.0809 18.8853 31.4848 19.1172C30.8682 19.3566 30.3451 19.677 29.8241 20.1982C29.3025 20.7194 28.9822 21.2424 28.742 21.8588C28.5095 22.4551 28.3513 23.1366 28.3064 24.1342C28.2617 25.1342 28.25 25.4539 28.25 28.0001C28.25 30.5463 28.2613 30.8648 28.3066 31.8647C28.3526 32.8628 28.5105 33.5441 28.7422 34.1402C28.9818 34.7568 29.3022 35.2799 29.8234 35.8009C30.3444 36.3225 30.8674 36.6436 31.4836 36.883C32.0802 37.1148 32.7615 37.2728 33.7594 37.3186C34.7594 37.364 35.0788 37.3752 37.6247 37.3752C40.1711 37.3752 40.4896 37.364 41.4896 37.3186C42.4876 37.2728 43.1697 37.1148 43.7662 36.883C44.3826 36.6436 44.9049 36.3225 45.4257 35.8009C45.9473 35.2799 46.2675 34.7568 46.5078 34.1404C46.7383 33.5441 46.8965 32.8626 46.9434 31.8649C46.9883 30.865 47 30.5463 47 28.0001C47 25.4539 46.9883 25.1344 46.9434 24.1344C46.8965 23.1363 46.7383 22.4552 46.5078 21.8591C46.2675 21.2424 45.9473 20.7194 45.4257 20.1982C44.9043 19.6768 44.3828 19.3564 43.7656 19.1173C43.168 18.8853 42.4863 18.7273 41.4882 18.6816C40.4882 18.6362 40.1698 18.625 37.6229 18.625H37.6258ZM36.7848 20.3145C37.0345 20.3141 37.313 20.3145 37.6258 20.3145C40.1291 20.3145 40.4257 20.3235 41.4142 20.3684C42.3282 20.4102 42.8244 20.5629 43.1548 20.6913C43.5924 20.8611 43.9043 21.0643 44.2322 21.3925C44.5603 21.7206 44.7634 22.0331 44.9338 22.4706C45.0621 22.8006 45.215 23.2968 45.2566 24.2108C45.3015 25.1991 45.3113 25.4959 45.3113 27.9979C45.3113 30.4999 45.3015 30.7968 45.2566 31.7851C45.2148 32.6991 45.0621 33.1952 44.9338 33.5253C44.7639 33.9629 44.5603 34.2744 44.2322 34.6023C43.9041 34.9305 43.5926 35.1335 43.1548 35.3035C42.8247 35.4324 42.3282 35.5848 41.4142 35.6266C40.4259 35.6715 40.1291 35.6812 37.6258 35.6812C35.1225 35.6812 34.8258 35.6715 33.8376 35.6266C32.9235 35.5844 32.4274 35.4317 32.0967 35.3033C31.6592 35.1333 31.3467 34.9303 31.0185 34.6022C30.6904 34.274 30.4873 33.9623 30.317 33.5246C30.1887 33.1945 30.0358 32.6984 29.9941 31.7843C29.9492 30.796 29.9402 30.4992 29.9402 27.9956C29.9402 25.492 29.9492 25.1968 29.9941 24.2085C30.0359 23.2944 30.1887 22.7983 30.317 22.4678C30.487 22.0303 30.6904 21.7178 31.0186 21.3897C31.3468 21.0616 31.6592 20.8584 32.0967 20.6882C32.4272 20.5592 32.9235 20.4069 33.8376 20.3649C34.7024 20.3258 35.0376 20.3141 36.7848 20.3121V20.3145ZM42.6302 21.8711C42.0091 21.8711 41.5052 22.3745 41.5052 22.9957C41.5052 23.6168 42.0091 24.1207 42.6302 24.1207C43.2513 24.1207 43.7552 23.6168 43.7552 22.9957C43.7552 22.3746 43.2513 21.8707 42.6302 21.8707V21.8711ZM37.6258 23.1856C34.9671 23.1856 32.8114 25.3413 32.8114 28.0001C32.8114 30.6589 34.9671 32.8136 37.6258 32.8136C40.2847 32.8136 42.4396 30.6589 42.4396 28.0001C42.4396 25.3413 40.2845 23.1856 37.6257 23.1856H37.6258ZM37.6258 24.875C39.3517 24.875 40.7509 26.2741 40.7509 28.0001C40.7509 29.7259 39.3517 31.1252 37.6258 31.1252C35.9 31.1252 34.5009 29.7259 34.5009 28.0001C34.5009 26.2741 35.8999 24.875 37.6258 24.875Z" fill="white"/>
</g>
<defs>
<radialGradient id="paint0_radial_1531_404" cx="0" cy="0" r="1" gradientUnits="userSpaceOnUse" gradientTransform="translate(32 41.8485) rotate(-90) scale(23.7858 22.1227)">
<stop stop-color="#FFDD55"/>
<stop offset="0.1" stop-color="#FFDD55"/>
<stop offset="0.5" stop-color="#FF543E"/>
<stop offset="1" stop-color="#C837AB"/>
</radialGradient>
<radialGradient id="paint1_radial_1531_404" cx="0" cy="0" r="1" gradientUnits="userSpaceOnUse" gradientTransform="translate(21.6049 17.7288) rotate(78.681) scale(10.6324 43.827)">
<stop stop-color="#3771C8"/>
<stop offset="0.128" stop-color="#3771C8"/>
<stop offset="1" stop-color="#6600FF" stop-opacity="0"/>
</radialGradient>
<clipPath id="clip0_1531_404">
<rect width="24" height="24" fill="white" transform="translate(25.625 16)"/>
</clipPath>
</defs>
</svg>
