<svg width="25" height="24" viewBox="0 0 25 24" fill="none" xmlns="http://www.w3.org/2000/svg">
<g clip-path="url(#clip0_1531_416)">
<path d="M19 0H6.25C3.1434 0 0.625 2.5184 0.625 5.625V18.375C0.625 21.4816 3.1434 24 6.25 24H19C22.1066 24 24.625 21.4816 24.625 18.375V5.625C24.625 2.5184 22.1066 0 19 0Z" fill="url(#paint0_radial_1531_416)"/>
<path d="M19 0H6.25C3.1434 0 0.625 2.5184 0.625 5.625V18.375C0.625 21.4816 3.1434 24 6.25 24H19C22.1066 24 24.625 21.4816 24.625 18.375V5.625C24.625 2.5184 22.1066 0 19 0Z" fill="url(#paint1_radial_1531_416)"/>
<path d="M12.6258 2.625C10.0798 2.625 9.76019 2.63616 8.76025 2.68163C7.76219 2.72738 7.08091 2.88534 6.48484 3.11719C5.86816 3.35662 5.34513 3.67697 4.82406 4.19822C4.30253 4.71937 3.98219 5.24241 3.742 5.85881C3.5095 6.45506 3.35134 7.13662 3.30644 8.13422C3.26172 9.13425 3.25 9.45394 3.25 12.0001C3.25 14.5463 3.26125 14.8648 3.30663 15.8647C3.35256 16.8628 3.51053 17.5441 3.74219 18.1402C3.98181 18.7568 4.30216 19.2799 4.82341 19.8009C5.34438 20.3225 5.86741 20.6436 6.48362 20.883C7.08016 21.1148 7.76153 21.2728 8.75941 21.3186C9.75944 21.364 10.0788 21.3752 12.6247 21.3752C15.1711 21.3752 15.4896 21.364 16.4896 21.3186C17.4876 21.2728 18.1697 21.1148 18.7662 20.883C19.3826 20.6436 19.9049 20.3225 20.4257 19.8009C20.9473 19.2799 21.2675 18.7568 21.5078 18.1404C21.7383 17.5441 21.8965 16.8626 21.9434 15.8649C21.9883 14.865 22 14.5463 22 12.0001C22 9.45394 21.9883 9.13444 21.9434 8.13441C21.8965 7.13634 21.7383 6.45516 21.5078 5.85909C21.2675 5.24241 20.9473 4.71937 20.4257 4.19822C19.9043 3.67678 19.3828 3.35644 18.7656 3.11728C18.168 2.88534 17.4863 2.72728 16.4882 2.68163C15.4882 2.63616 15.1698 2.625 12.6229 2.625H12.6258ZM11.7848 4.31447C12.0345 4.31409 12.313 4.31447 12.6258 4.31447C15.1291 4.31447 15.4257 4.32347 16.4142 4.36838C17.3282 4.41019 17.8244 4.56291 18.1548 4.69125C18.5924 4.86112 18.9043 5.06428 19.2322 5.3925C19.5603 5.72062 19.7634 6.03309 19.9338 6.47062C20.0621 6.80062 20.215 7.29675 20.2566 8.21081C20.3015 9.19913 20.3113 9.49594 20.3113 11.9979C20.3113 14.4999 20.3015 14.7968 20.2566 15.7851C20.2148 16.6991 20.0621 17.1952 19.9338 17.5253C19.7639 17.9629 19.5603 18.2744 19.2322 18.6023C18.9041 18.9305 18.5926 19.1335 18.1548 19.3035C17.8247 19.4324 17.3282 19.5848 16.4142 19.6266C15.4259 19.6715 15.1291 19.6812 12.6258 19.6812C10.1225 19.6812 9.82581 19.6715 8.83759 19.6266C7.92353 19.5844 7.42741 19.4317 7.09666 19.3033C6.65922 19.1333 6.34666 18.9303 6.01853 18.6022C5.69041 18.274 5.48734 17.9623 5.317 17.5246C5.18866 17.1945 5.03575 16.6984 4.99413 15.7843C4.94922 14.796 4.94022 14.4992 4.94022 11.9956C4.94022 9.492 4.94922 9.19678 4.99413 8.20847C5.03594 7.29441 5.18866 6.79828 5.317 6.46781C5.48697 6.03028 5.69041 5.71781 6.01863 5.38969C6.34684 5.06156 6.65922 4.85841 7.09675 4.68816C7.42722 4.55925 7.92353 4.40691 8.83759 4.36491C9.70244 4.32581 10.0376 4.31409 11.7848 4.31212V4.31447ZM17.6302 5.87109C17.0091 5.87109 16.5052 6.37453 16.5052 6.99572C16.5052 7.61681 17.0091 8.12072 17.6302 8.12072C18.2513 8.12072 18.7552 7.61681 18.7552 6.99572C18.7552 6.37463 18.2513 5.87072 17.6302 5.87072V5.87109ZM12.6258 7.18556C9.96709 7.18556 7.81141 9.34125 7.81141 12.0001C7.81141 14.6589 9.96709 16.8136 12.6258 16.8136C15.2847 16.8136 17.4396 14.6589 17.4396 12.0001C17.4396 9.34134 15.2845 7.18556 12.6257 7.18556H12.6258ZM12.6258 8.87503C14.3517 8.87503 15.7509 10.2741 15.7509 12.0001C15.7509 13.7259 14.3517 15.1252 12.6258 15.1252C10.9 15.1252 9.50088 13.7259 9.50088 12.0001C9.50088 10.2741 10.8999 8.87503 12.6258 8.87503Z" fill="white"/>
</g>
<defs>
<radialGradient id="paint0_radial_1531_416" cx="0" cy="0" r="1" gradientUnits="userSpaceOnUse" gradientTransform="translate(7 25.8485) rotate(-90) scale(23.7858 22.1227)">
<stop stop-color="#FFDD55"/>
<stop offset="0.1" stop-color="#FFDD55"/>
<stop offset="0.5" stop-color="#FF543E"/>
<stop offset="1" stop-color="#C837AB"/>
</radialGradient>
<radialGradient id="paint1_radial_1531_416" cx="0" cy="0" r="1" gradientUnits="userSpaceOnUse" gradientTransform="translate(-3.39509 1.72884) rotate(78.681) scale(10.6324 43.827)">
<stop stop-color="#3771C8"/>
<stop offset="0.128" stop-color="#3771C8"/>
<stop offset="1" stop-color="#6600FF" stop-opacity="0"/>
</radialGradient>
<clipPath id="clip0_1531_416">
<rect width="24" height="24" fill="white" transform="translate(0.625)"/>
</clipPath>
</defs>
</svg>
