<svg width="10" height="16" viewBox="0 0 10 16" fill="none" xmlns="http://www.w3.org/2000/svg">
<path fill-rule="evenodd" clip-rule="evenodd" d="M0.940005 9.05997C0.659104 8.77872 0.501324 8.39747 0.501324 7.99997C0.501324 7.60246 0.659104 7.22122 0.940005 6.93997L6.59601 1.28197C6.8774 1.0007 7.259 0.842746 7.65686 0.842839C8.05472 0.842933 8.43624 1.00107 8.71751 1.28247C8.99877 1.56386 9.15673 1.94546 9.15663 2.34332C9.15654 2.74118 8.9984 3.1227 8.71701 3.40397L4.12101 7.99997L8.717 12.596C8.99038 12.8787 9.14175 13.2576 9.13852 13.6509C9.13529 14.0442 8.97771 14.4205 8.69973 14.6987C8.42175 14.977 8.0456 15.1349 7.65231 15.1385C7.25901 15.1421 6.88004 14.9911 6.597 14.718L0.939004 9.06097L0.940005 9.05997Z" fill="black"/>
</svg>
