<svg width="251" height="20" viewBox="0 0 251 20" fill="none" xmlns="http://www.w3.org/2000/svg">
<line x1="0.5" y1="9.25" x2="110.5" y2="9.25" stroke="#E6E6E6" stroke-width="1.5"/>
<path d="M122.852 16.1562C120.484 16.1562 118.953 14.5547 118.953 12.0625C118.953 9.58594 120.484 7.99219 122.852 7.99219C125.211 7.99219 126.734 9.58594 126.734 12.0625C126.734 14.5547 125.211 16.1562 122.852 16.1562ZM122.852 14.8438C124.266 14.8438 125.188 13.75 125.188 12.0625C125.188 10.3906 124.266 9.30469 122.852 9.30469C121.43 9.30469 120.508 10.3906 120.508 12.0625C120.508 13.75 121.43 14.8438 122.852 14.8438ZM127.914 16C127.867 16 127.836 15.9688 127.836 15.9219V8.22656C127.836 8.17969 127.867 8.14844 127.914 8.14844H129.18C129.219 8.14844 129.258 8.17188 129.273 8.21094L129.531 8.94531C129.555 9.01562 129.594 9.01562 129.633 8.95312C129.93 8.41406 130.469 8.14844 131.203 8.14844H132.148C132.195 8.14844 132.227 8.17969 132.227 8.22656V9.47656C132.227 9.52344 132.195 9.55469 132.148 9.55469H131.008C129.961 9.55469 129.406 10.2656 129.406 11.6953V15.9219C129.406 15.9688 129.375 16 129.328 16H127.914Z" fill="#E6E6E6"/>
<line x1="140.5" y1="9.25" x2="250.5" y2="9.25" stroke="#E6E6E6" stroke-width="1.5"/>
</svg>
