<svg width="25" height="24" viewBox="0 0 25 24" fill="none" xmlns="http://www.w3.org/2000/svg">
<path d="M18.75 0H6C2.8934 0 0.375 2.5184 0.375 5.625V18.375C0.375 21.4816 2.8934 24 6 24H18.75C21.8566 24 24.375 21.4816 24.375 18.375V5.625C24.375 2.5184 21.8566 0 18.75 0Z" fill="white"/>
<path d="M18.75 0H6C2.8934 0 0.375 2.5184 0.375 5.625V18.375C0.375 21.4816 2.8934 24 6 24H18.75C21.8566 24 24.375 21.4816 24.375 18.375V5.625C24.375 2.5184 21.8566 0 18.75 0Z" fill="#0A66C2"/>
<path d="M17.692 20.408H20.4361C20.5355 20.408 20.6309 20.3685 20.7012 20.2982C20.7715 20.2279 20.8111 20.1325 20.8111 20.0331L20.8125 14.2354C20.8125 11.2051 20.1595 8.87588 16.6183 8.87588C15.2722 8.82581 14.0027 9.51975 13.3177 10.6785C13.3143 10.6841 13.3092 10.6885 13.3031 10.691C13.2971 10.6934 13.2904 10.6938 13.284 10.6921C13.2777 10.6904 13.2721 10.6867 13.2681 10.6815C13.2641 10.6763 13.2619 10.67 13.2619 10.6634V9.53063C13.2619 9.43117 13.2224 9.33579 13.152 9.26546C13.0817 9.19513 12.9863 9.15563 12.8869 9.15563H10.2828C10.1833 9.15563 10.0879 9.19513 10.0176 9.26546C9.94729 9.33579 9.90778 9.43117 9.90778 9.53063V20.0325C9.90778 20.132 9.94729 20.2273 10.0176 20.2977C10.0879 20.368 10.1833 20.4075 10.2828 20.4075H13.0267C13.1261 20.4075 13.2215 20.368 13.2918 20.2977C13.3621 20.2273 13.4017 20.132 13.4017 20.0325V14.8413C13.4017 13.3734 13.6801 11.9519 15.4999 11.9519C17.2938 11.9519 17.317 13.6315 17.317 14.9363V20.033C17.317 20.1324 17.3565 20.2278 17.4269 20.2981C17.4972 20.3685 17.5926 20.408 17.692 20.408ZM3.9375 5.59012C3.9375 6.70237 4.85316 7.61756 5.9655 7.61756C7.07756 7.61747 7.99266 6.70172 7.99266 5.58966C7.99247 4.47759 7.07728 3.5625 5.96512 3.5625C4.85269 3.5625 3.9375 4.47787 3.9375 5.59012ZM4.58991 20.408H7.33744C7.43689 20.408 7.53228 20.3685 7.6026 20.2981C7.67293 20.2278 7.71244 20.1324 7.71244 20.033V9.53063C7.71244 9.43117 7.67293 9.33579 7.6026 9.26546C7.53228 9.19513 7.43689 9.15563 7.33744 9.15563H4.58991C4.49045 9.15563 4.39507 9.19513 4.32474 9.26546C4.25442 9.33579 4.21491 9.43117 4.21491 9.53063V20.033C4.21491 20.1324 4.25442 20.2278 4.32474 20.2981C4.39507 20.3685 4.49045 20.408 4.58991 20.408Z" fill="white"/>
</svg>
