<svg width="75" height="56" viewBox="0 0 75 56" fill="none" xmlns="http://www.w3.org/2000/svg">
<rect x="0.25" width="74.25" height="56" rx="8" fill="white"/>
<g clip-path="url(#clip0_1531_401)">
<path d="M43.75 16H31C27.8934 16 25.375 18.5184 25.375 21.625V34.375C25.375 37.4816 27.8934 40 31 40H43.75C46.8566 40 49.375 37.4816 49.375 34.375V21.625C49.375 18.5184 46.8566 16 43.75 16Z" fill="white"/>
<path d="M43.75 16H31C27.8934 16 25.375 18.5184 25.375 21.625V34.375C25.375 37.4816 27.8934 40 31 40H43.75C46.8566 40 49.375 37.4816 49.375 34.375V21.625C49.375 18.5184 46.8566 16 43.75 16Z" fill="#0A66C2"/>
<path d="M42.692 36.408H45.4361C45.5355 36.408 45.6309 36.3685 45.7012 36.2982C45.7715 36.2279 45.8111 36.1325 45.8111 36.0331L45.8125 30.2354C45.8125 27.2051 45.1595 24.8759 41.6183 24.8759C40.2722 24.8258 39.0027 25.5198 38.3177 26.6785C38.3143 26.6841 38.3092 26.6885 38.3031 26.691C38.2971 26.6934 38.2904 26.6938 38.284 26.6921C38.2777 26.6904 38.2721 26.6867 38.2681 26.6815C38.2641 26.6763 38.2619 26.67 38.2619 26.6634V25.5306C38.2619 25.4312 38.2224 25.3358 38.152 25.2655C38.0817 25.1951 37.9863 25.1556 37.8869 25.1556H35.2828C35.1833 25.1556 35.0879 25.1951 35.0176 25.2655C34.9473 25.3358 34.9078 25.4312 34.9078 25.5306V36.0325C34.9078 36.132 34.9473 36.2273 35.0176 36.2977C35.0879 36.368 35.1833 36.4075 35.2828 36.4075H38.0267C38.1261 36.4075 38.2215 36.368 38.2918 36.2977C38.3621 36.2273 38.4017 36.132 38.4017 36.0325V30.8413C38.4017 29.3734 38.6801 27.9519 40.4999 27.9519C42.2938 27.9519 42.317 29.6315 42.317 30.9363V36.033C42.317 36.1324 42.3565 36.2278 42.4269 36.2981C42.4972 36.3685 42.5926 36.408 42.692 36.408ZM28.9375 21.5901C28.9375 22.7024 29.8532 23.6176 30.9655 23.6176C32.0776 23.6175 32.9927 22.7017 32.9927 21.5897C32.9925 20.4776 32.0773 19.5625 30.9651 19.5625C29.8527 19.5625 28.9375 20.4779 28.9375 21.5901ZM29.5899 36.408H32.3374C32.4369 36.408 32.5323 36.3685 32.6026 36.2981C32.6729 36.2278 32.7124 36.1324 32.7124 36.033V25.5306C32.7124 25.4312 32.6729 25.3358 32.6026 25.2655C32.5323 25.1951 32.4369 25.1556 32.3374 25.1556H29.5899C29.4905 25.1556 29.3951 25.1951 29.3247 25.2655C29.2544 25.3358 29.2149 25.4312 29.2149 25.5306V36.033C29.2149 36.1324 29.2544 36.2278 29.3247 36.2981C29.3951 36.3685 29.4905 36.408 29.5899 36.408Z" fill="white"/>
</g>
<defs>
<clipPath id="clip0_1531_401">
<rect width="24" height="24" fill="white" transform="translate(25.375 16)"/>
</clipPath>
</defs>
</svg>
