<svg width="24" height="25" viewBox="0 0 24 25" fill="none" xmlns="http://www.w3.org/2000/svg">
<path d="M12 13.5C13.6569 13.5 15 12.1569 15 10.5C15 8.84315 13.6569 7.5 12 7.5C10.3431 7.5 9 8.84315 9 10.5C9 12.1569 10.3431 13.5 12 13.5Z" stroke="white" stroke-width="2" stroke-linecap="round" stroke-linejoin="round"/>
<path d="M12 2.5C9.87827 2.5 7.84344 3.34285 6.34315 4.84315C4.84285 6.34344 4 8.37827 4 10.5C4 12.392 4.402 13.63 5.5 15L12 22.5L18.5 15C19.598 13.63 20 12.392 20 10.5C20 8.37827 19.1571 6.34344 17.6569 4.84315C16.1566 3.34285 14.1217 2.5 12 2.5Z" stroke="white" stroke-width="2" stroke-linecap="round" stroke-linejoin="round"/>
</svg>
