<svg width="20" height="20" viewBox="0 0 20 20" fill="none" xmlns="http://www.w3.org/2000/svg">
<path d="M10.24 0C13.385 0 16.297 1.395 18.228 3.744C18.283 3.81059 18.3241 3.88756 18.3487 3.97033C18.3734 4.05311 18.3811 4.14 18.3715 4.22583C18.3619 4.31167 18.3351 4.39469 18.2928 4.46997C18.2504 4.54524 18.1934 4.61123 18.125 4.664C17.9858 4.7731 17.8096 4.82368 17.6337 4.80501C17.4579 4.78634 17.2962 4.69989 17.183 4.564C16.3387 3.54117 15.2778 2.71854 14.077 2.15547C12.8761 1.59241 11.5653 1.30295 10.239 1.308C5.324 1.308 1.339 5.2 1.339 10C1.339 14.8 5.324 18.692 10.239 18.692C11.5844 18.6973 12.9137 18.3995 14.1283 17.8208C15.3429 17.2421 16.4116 16.3972 17.255 15.349C17.3663 15.2117 17.5266 15.1231 17.7021 15.102C17.8776 15.0809 18.0544 15.129 18.195 15.236C18.264 15.2879 18.3218 15.3531 18.3651 15.4277C18.4084 15.5024 18.4362 15.585 18.4469 15.6706C18.4577 15.7563 18.4511 15.8432 18.4275 15.9262C18.404 16.0093 18.364 16.0867 18.31 16.154C16.382 18.564 13.431 20 10.24 20C4.583 20 0 15.523 0 10C0 4.477 4.584 0 10.24 0ZM17.098 7.16L19.804 9.867C20.066 10.128 20.071 10.547 19.816 10.803L17.172 13.446C17.11 13.507 17.0366 13.5552 16.9559 13.5877C16.8752 13.6203 16.7889 13.6366 16.7019 13.6356C16.6149 13.6347 16.529 13.6166 16.449 13.5823C16.3691 13.5481 16.2967 13.4983 16.236 13.436C16.1734 13.3754 16.1235 13.303 16.0891 13.223C16.0546 13.1429 16.0364 13.0569 16.0354 12.9698C16.0343 12.8827 16.0506 12.7962 16.0831 12.7154C16.1157 12.6346 16.1639 12.5611 16.225 12.499L17.772 10.952H7.462C7.37499 10.9533 7.28858 10.9374 7.20774 10.9052C7.1269 10.873 7.05323 10.8252 6.99096 10.7644C6.92869 10.7036 6.87905 10.6311 6.84491 10.5511C6.81076 10.471 6.79278 10.385 6.792 10.298C6.792 9.936 7.092 9.643 7.462 9.643H17.731L16.173 8.085C16.1106 8.02439 16.0608 7.95205 16.0264 7.87212C15.9921 7.7922 15.9739 7.70627 15.9729 7.61929C15.9718 7.5323 15.988 7.44597 16.0205 7.36526C16.0529 7.28455 16.101 7.21106 16.162 7.149C16.2241 7.08804 16.2976 7.03994 16.3783 7.00748C16.459 6.97502 16.5453 6.95884 16.6323 6.95986C16.7193 6.96088 16.8052 6.97909 16.8851 7.01344C16.965 7.04778 17.0374 7.09759 17.098 7.16Z" fill="white"/>
</svg>
