<svg width="36" height="24" viewBox="0 0 36 24" fill="none" xmlns="http://www.w3.org/2000/svg">
<path d="M13.1201 3.57703H22.8443V21.0498H13.1201V3.57703Z" fill="#FF5F00"/>
<path d="M13.7375 12.3135C13.7375 8.76339 15.4045 5.61451 17.9667 3.577C16.0837 2.09523 13.7067 1.20001 11.1136 1.20001C4.97011 1.20001 0 6.17012 0 12.3135C0 18.4568 4.97011 23.4269 11.1135 23.4269C13.7066 23.4269 16.0836 22.5317 17.9667 21.0498C15.4045 19.0432 13.7375 15.8635 13.7375 12.3135Z" fill="#EB001B"/>
<path d="M35.9642 12.3135C35.9642 18.4567 30.9941 23.4269 24.8508 23.4269C22.2577 23.4269 19.8807 22.5317 17.9976 21.0498C20.5907 19.0124 22.2269 15.8635 22.2269 12.3135C22.2269 8.76339 20.5597 5.61451 17.9976 3.577C19.8805 2.09523 22.2577 1.20001 24.8508 1.20001C30.9941 1.20001 35.9642 6.20106 35.9642 12.3135Z" fill="#F79E1B"/>
</svg>
