<svg width="24" height="25" viewBox="0 0 24 25" fill="none" xmlns="http://www.w3.org/2000/svg">
<path d="M5.5 7.5C5.5 7.10603 5.5776 6.71593 5.72836 6.35195C5.87913 5.98797 6.1001 5.65726 6.37868 5.37868C6.65726 5.1001 6.98797 4.87913 7.35195 4.72836C7.71593 4.5776 8.10603 4.5 8.5 4.5C8.89397 4.5 9.28407 4.5776 9.64805 4.72836C10.012 4.87913 10.3427 5.1001 10.6213 5.37868C10.8999 5.65726 11.1209 5.98797 11.2716 6.35195C11.4224 6.71593 11.5 7.10603 11.5 7.5C11.5 8.29565 11.1839 9.05871 10.6213 9.62132C10.0587 10.1839 9.29565 10.5 8.5 10.5C7.70435 10.5 6.94129 10.1839 6.37868 9.62132C5.81607 9.05871 5.5 8.29565 5.5 7.5ZM8.5 2.5C7.17392 2.5 5.90215 3.02678 4.96447 3.96447C4.02678 4.90215 3.5 6.17392 3.5 7.5C3.5 8.82608 4.02678 10.0979 4.96447 11.0355C5.90215 11.9732 7.17392 12.5 8.5 12.5C9.82608 12.5 11.0979 11.9732 12.0355 11.0355C12.9732 10.0979 13.5 8.82608 13.5 7.5C13.5 6.17392 12.9732 4.90215 12.0355 3.96447C11.0979 3.02678 9.82608 2.5 8.5 2.5ZM15.5 2.5H14.5V4.5H15.5C15.894 4.5 16.2841 4.5776 16.6481 4.72836C17.012 4.87913 17.3427 5.1001 17.6213 5.37868C17.8999 5.65726 18.1209 5.98797 18.2716 6.35195C18.4224 6.71593 18.5 7.10603 18.5 7.5C18.5 7.89397 18.4224 8.28407 18.2716 8.64805C18.1209 9.01203 17.8999 9.34274 17.6213 9.62132C17.3427 9.8999 17.012 10.1209 16.6481 10.2716C16.2841 10.4224 15.894 10.5 15.5 10.5H14.5V12.5H15.5C16.8261 12.5 18.0979 11.9732 19.0355 11.0355C19.9732 10.0979 20.5 8.82608 20.5 7.5C20.5 6.17392 19.9732 4.90215 19.0355 3.96447C18.0979 3.02678 16.8261 2.5 15.5 2.5ZM0 19.5C0 18.1739 0.526784 16.9021 1.46447 15.9645C2.40215 15.0268 3.67392 14.5 5 14.5H12C13.3261 14.5 14.5979 15.0268 15.5355 15.9645C16.4732 16.9021 17 18.1739 17 19.5V21.5H15V19.5C15 18.7044 14.6839 17.9413 14.1213 17.3787C13.5587 16.8161 12.7956 16.5 12 16.5H5C4.20435 16.5 3.44129 16.8161 2.87868 17.3787C2.31607 17.9413 2 18.7044 2 19.5V21.5H0V19.5ZM24 19.5C24 18.8434 23.8707 18.1932 23.6194 17.5866C23.3681 16.98 22.9998 16.4288 22.5355 15.9645C22.0712 15.5002 21.52 15.1319 20.9134 14.8806C20.3068 14.6293 19.6566 14.5 19 14.5H18V16.5H19C19.7956 16.5 20.5587 16.8161 21.1213 17.3787C21.6839 17.9413 22 18.7044 22 19.5V21.5H24V19.5Z" fill="white"/>
</svg>
