<svg width="24" height="25" viewBox="0 0 24 25" fill="none" xmlns="http://www.w3.org/2000/svg">
<path d="M5.656 20.979C5.51242 21.1038 5.3362 21.1851 5.14803 21.2133C4.95987 21.2415 4.76756 21.2155 4.59369 21.1382C4.41982 21.0609 4.2716 20.9356 4.16644 20.7771C4.06128 20.6185 4.00354 20.4332 4 20.243V18C3.46957 18 2.96086 17.7893 2.58579 17.4142C2.21071 17.0391 2 16.5304 2 16V9C2 8.46957 2.21071 7.96086 2.58579 7.58579C2.96086 7.21071 3.46957 7 4 7H15C15.5304 7 16.0391 7.21071 16.4142 7.58579C16.7893 7.96086 17 8.46957 17 9V16C17 16.5304 16.7893 17.0391 16.4142 17.4142C16.0391 17.7893 15.5304 18 15 18H10.003L5.656 20.979ZM6.5 17.886C6.5911 17.8853 6.68054 17.8616 6.76 17.817L9.115 16.179C9.2826 16.0624 9.48186 16 9.686 16H14C14.2652 16 14.5196 15.8946 14.7071 15.7071C14.8946 15.5196 15 15.2652 15 15V10C15 9.73478 14.8946 9.48043 14.7071 9.29289C14.5196 9.10536 14.2652 9 14 9H5C4.73478 9 4.48043 9.10536 4.29289 9.29289C4.10536 9.48043 4 9.73478 4 10V15C4 15.54 4.429 15.982 5 16C5.41 16.016 5.707 16.083 5.844 16.226C5.972 16.36 5.979 16.586 6 17.016C6.003 17.079 6.003 17.193 6 17.386C6 17.5186 6.05268 17.6458 6.14645 17.7396C6.24021 17.8333 6.36739 17.886 6.5 17.886ZM18 13.016C17.9967 13.1393 17.9967 13.2627 18 13.386V13.016ZM18 13.016C18.02 12.586 18.028 12.36 18.156 12.226C18.293 12.083 18.59 12.016 19 12C19.571 11.982 20 11.54 20 11V6C20 5.73478 19.8946 5.48043 19.7071 5.29289C19.5196 5.10536 19.2652 5 19 5H10C9.73478 5 9.48043 5.10536 9.29289 5.29289C9.10536 5.48043 9 5.73478 9 6H7V5C7 4.46957 7.21071 3.96086 7.58579 3.58579C7.96086 3.21071 8.46957 3 9 3H20C20.5304 3 21.0391 3.21071 21.4142 3.58579C21.7893 3.96086 22 4.46957 22 5V12C22 12.5304 21.7893 13.0391 21.4142 13.4142C21.0391 13.7893 20.5304 14 20 14V16.243C19.9965 16.4332 19.9387 16.6185 19.8336 16.7771C19.7284 16.9356 19.5802 17.0609 19.4063 17.1382C19.2324 17.2155 19.0401 17.2415 18.852 17.2133C18.6638 17.1851 18.4876 17.1038 18.344 16.979L18 16.743V13.016Z" fill="white"/>
</svg>
