<svg width="20" height="20" viewBox="0 0 20 20" fill="none" xmlns="http://www.w3.org/2000/svg">
<path d="M13 5.33333V4M7 5.33333V4M4.16667 7.33333H15.8333M4 8.696C4 7.286 4 6.58067 4.29067 6.042C4.5535 5.56154 4.96133 5.17634 5.456 4.94133C6.02667 4.66667 6.77333 4.66667 8.26667 4.66667H11.7333C13.2267 4.66667 13.9733 4.66667 14.544 4.94133C15.046 5.18267 15.4533 5.568 15.7093 6.04133C16 6.58133 16 7.28667 16 8.69667V11.9713C16 13.3813 16 14.0867 15.7093 14.6253C15.4465 15.1058 15.0387 15.491 14.544 15.726C13.9733 16 13.2267 16 11.7333 16H8.26667C6.77333 16 6.02667 16 5.456 15.7253C4.96143 15.4905 4.55361 15.1055 4.29067 14.6253C4 14.0853 4 13.38 4 11.97V8.696Z" stroke="black" stroke-width="1.5" stroke-linecap="round" stroke-linejoin="round"/>
</svg>
