<svg width="48" height="48" viewBox="0 0 48 48" fill="none" xmlns="http://www.w3.org/2000/svg">
<rect width="48" height="48" rx="8" fill="black"/>
<path fill-rule="evenodd" clip-rule="evenodd" d="M28.4672 25.0757C28.2298 24.404 27.7899 23.8224 27.2081 23.411C26.6264 22.9997 25.9314 22.7789 25.2189 22.779V21.9178H23.4965V22.779C22.5829 22.779 21.7067 23.1419 21.0607 23.7879C20.4147 24.4339 20.0518 25.3101 20.0518 26.2237C20.0518 27.1373 20.4147 28.0135 21.0607 28.6595C21.7067 29.3055 22.5829 29.6684 23.4965 29.6684V33.1132C22.7473 33.1132 22.1091 32.6352 21.8714 31.9652C21.8362 31.8556 21.7793 31.7542 21.7041 31.6669C21.629 31.5797 21.5371 31.5084 21.4339 31.4573C21.3307 31.4062 21.2184 31.3762 21.1034 31.3693C20.9885 31.3624 20.8733 31.3786 20.7647 31.417C20.6562 31.4553 20.5564 31.5151 20.4713 31.5927C20.3862 31.6702 20.3176 31.7641 20.2694 31.8687C20.2213 31.9733 20.1945 32.0865 20.1909 32.2016C20.1872 32.3167 20.2067 32.4313 20.2481 32.5388C20.4855 33.2105 20.9255 33.7921 21.5072 34.2035C22.089 34.6148 22.784 34.8356 23.4965 34.8355V35.6967H25.2189V34.8355C26.1325 34.8355 27.0086 34.4726 27.6546 33.8266C28.3007 33.1806 28.6636 32.3044 28.6636 31.3908C28.6636 30.4772 28.3007 29.601 27.6546 28.955C27.0086 28.309 26.1325 27.9461 25.2189 27.9461V24.5013C25.5751 24.5012 25.9225 24.6116 26.2134 24.8172C26.5043 25.0228 26.7243 25.3135 26.843 25.6493C26.9191 25.8647 27.0776 26.041 27.2837 26.1395C27.3857 26.1883 27.4964 26.2165 27.6093 26.2225C27.7223 26.2286 27.8353 26.2123 27.9419 26.1746C28.0486 26.137 28.1467 26.0787 28.2309 26.0031C28.315 25.9274 28.3834 25.836 28.4322 25.734C28.4809 25.6319 28.5091 25.5213 28.5152 25.4083C28.5212 25.2954 28.5049 25.1824 28.4672 25.0757ZM23.4965 24.5013C23.0397 24.5013 22.6016 24.6828 22.2786 25.0058C21.9556 25.3288 21.7741 25.7669 21.7741 26.2237C21.7741 26.6805 21.9556 27.1186 22.2786 27.4416C22.6016 27.7646 23.0397 27.9461 23.4965 27.9461V24.5013ZM25.2189 33.1132C25.6757 33.1132 26.1137 32.9317 26.4368 32.6087C26.7598 32.2857 26.9412 31.8476 26.9412 31.3908C26.9412 30.934 26.7598 30.4959 26.4368 30.1729C26.1137 29.8499 25.6757 29.6684 25.2189 29.6684V33.1132Z" fill="white"/>
<path fill-rule="evenodd" clip-rule="evenodd" d="M15.0163 11.2572C17.1296 10.2229 20.5967 9 24.3911 9C28.1062 9 31.4821 10.1721 33.5842 11.1926L33.7031 11.2503C34.3369 11.5637 34.8484 11.86 35.2084 12.1003L32.0272 16.7506C39.361 24.2481 45.0259 40 24.3911 40C3.7563 40 9.26873 24.534 16.6663 16.7506L13.5058 12.1003C13.7495 11.9409 14.0586 11.7558 14.4272 11.5594C14.6098 11.4613 14.8061 11.3599 15.0163 11.2572ZM29.9828 16.6895L32.5293 12.9666C30.161 13.1371 27.3432 13.6934 24.6305 14.4788C22.6929 15.0386 20.5399 14.9534 18.5463 14.5856C18.0438 14.4926 17.5449 14.3817 17.0504 14.2532L18.7039 16.6878C22.2476 17.9494 26.4381 17.9494 29.9828 16.6895ZM17.7092 18.1544C21.8558 19.7562 26.8394 19.7562 30.986 18.1527C32.7165 19.9776 34.1643 22.051 35.2816 24.3041C36.4459 26.6792 37.0798 29.0535 36.9764 31.0997C36.8765 33.0744 36.0997 34.7614 34.3257 36.0153C32.4768 37.3217 29.367 38.2776 24.3902 38.2776C19.4083 38.2776 16.2839 37.3381 14.4177 36.0463C12.6308 34.8088 11.8463 33.1441 11.7352 31.1961C11.6189 29.1723 12.239 26.8101 13.399 24.4186C14.5056 22.1382 16.0497 19.943 17.7092 18.1544ZM16.7188 12.3724C17.4078 12.5774 18.1277 12.7556 18.858 12.8908C20.7095 13.2319 22.5663 13.2818 24.1508 12.8228C25.9973 12.2846 27.8755 11.8616 29.7744 11.556C28.1898 11.0789 26.3365 10.7224 24.3902 10.7224C21.4235 10.7224 18.6565 11.55 16.7188 12.3724Z" fill="white"/>
</svg>
