<svg width="24" height="25" viewBox="0 0 24 25" fill="none" xmlns="http://www.w3.org/2000/svg">
<path fill-rule="evenodd" clip-rule="evenodd" d="M22.425 6.026L12.9555 13.868C12.6864 14.0909 12.3479 14.2129 11.9985 14.2129C11.6491 14.2129 11.3106 14.0909 11.0415 13.868L1.5765 6.026C1.52571 6.17887 1.49988 6.33892 1.5 6.5V18.5C1.5 18.8978 1.65804 19.2794 1.93934 19.5607C2.22064 19.842 2.60218 20 3 20H21C21.3978 20 21.7794 19.842 22.0607 19.5607C22.342 19.2794 22.5 18.8978 22.5 18.5V6.5C22.5006 6.339 22.4753 6.17895 22.425 6.026ZM3 3.5H21C21.7956 3.5 22.5587 3.81607 23.1213 4.37868C23.6839 4.94129 24 5.70435 24 6.5V18.5C24 19.2956 23.6839 20.0587 23.1213 20.6213C22.5587 21.1839 21.7956 21.5 21 21.5H3C2.20435 21.5 1.44129 21.1839 0.87868 20.6213C0.316071 20.0587 0 19.2956 0 18.5V6.5C0 5.70435 0.316071 4.94129 0.87868 4.37868C1.44129 3.81607 2.20435 3.5 3 3.5ZM2.685 5L11.049 11.9045C11.3169 12.1258 11.6533 12.2472 12.0007 12.248C12.3481 12.2488 12.6851 12.129 12.954 11.909L21.402 5H2.685Z" fill="white"/>
</svg>
