<svg width="19" height="21" viewBox="0 0 19 21" fill="none" xmlns="http://www.w3.org/2000/svg">
<path d="M6.89198 20.5555C5.65567 20.5557 4.44707 20.1893 3.41905 19.5026C2.39103 18.8158 1.58977 17.8396 1.11663 16.6974C0.643485 15.5553 0.519713 14.2984 0.760967 13.0859C1.00222 11.8733 1.59766 10.7596 2.47198 9.88552L10.427 1.93052C11.2709 1.0866 12.4155 0.612488 13.609 0.612488C14.8025 0.612488 15.9471 1.0866 16.791 1.93052C17.6349 2.77443 18.109 3.91903 18.109 5.11251C18.109 6.306 17.6349 7.4506 16.791 8.29452L9.89598 15.1885C9.37207 15.6889 8.67546 15.9681 7.95098 15.9681C7.22649 15.9681 6.52988 15.6889 6.00598 15.1885C5.49085 14.6726 5.20169 13.9732 5.20206 13.2441C5.20244 12.515 5.49232 11.8159 6.00798 11.3005L11.134 6.17352C11.2262 6.07801 11.3366 6.00182 11.4586 5.94941C11.5806 5.897 11.7118 5.86942 11.8446 5.86826C11.9774 5.86711 12.109 5.89241 12.2319 5.94269C12.3548 5.99297 12.4665 6.06723 12.5604 6.16112C12.6543 6.25501 12.7285 6.36666 12.7788 6.48956C12.8291 6.61246 12.8544 6.74414 12.8532 6.87692C12.8521 7.0097 12.8245 7.14092 12.7721 7.26292C12.7197 7.38492 12.6435 7.49527 12.548 7.58751L7.42198 12.7145C7.28153 12.8551 7.20264 13.0458 7.20264 13.2445C7.20264 13.4433 7.28153 13.6339 7.42198 13.7745C7.56505 13.9103 7.75475 13.9859 7.95198 13.9859C8.1492 13.9859 8.33891 13.9103 8.48198 13.7745L15.377 6.88052C15.8449 6.41131 16.1077 5.77568 16.1077 5.11302C16.1077 4.45035 15.8449 3.81472 15.377 3.34552C14.9007 2.89072 14.2675 2.63694 13.609 2.63694C12.9504 2.63694 12.3172 2.89072 11.841 3.34552L3.88598 11.3005C3.48378 11.6935 3.16355 12.1623 2.94384 12.6799C2.72414 13.1975 2.60932 13.7535 2.60605 14.3158C2.60277 14.878 2.71111 15.4354 2.92477 15.9555C3.13843 16.4756 3.45318 16.9481 3.85077 17.3457C4.24837 17.7433 4.7209 18.0581 5.24101 18.2717C5.76112 18.4854 6.31845 18.5937 6.88072 18.5904C7.443 18.5872 7.99903 18.4724 8.51662 18.2526C9.0342 18.0329 9.50304 17.7127 9.89598 17.3105L16.084 11.1235C16.1762 11.028 16.2866 10.9518 16.4086 10.8994C16.5306 10.847 16.6618 10.8194 16.7946 10.8183C16.9274 10.8171 17.059 10.8424 17.1819 10.8927C17.3048 10.943 17.4165 11.0172 17.5104 11.1111C17.6043 11.205 17.6785 11.3167 17.7288 11.4396C17.7791 11.5625 17.8044 11.6941 17.8032 11.8269C17.8021 11.9597 17.7745 12.0909 17.7221 12.2129C17.6697 12.3349 17.5935 12.4453 17.498 12.5375L11.311 18.7235C10.7323 19.3064 10.0436 19.7686 9.28482 20.0831C8.52604 20.3976 7.71234 20.5582 6.89098 20.5555H6.89198Z" fill="white"/>
</svg>
