<svg width="24" height="17" viewBox="0 0 24 17" fill="none" xmlns="http://www.w3.org/2000/svg">
<path d="M24 1.5V16.5H1.5V13.5H0V0H21V1.5H24ZM18 1.5C18 1.71094 18.0391 1.90625 18.1172 2.08594C18.1953 2.26562 18.3008 2.42188 18.4336 2.55469C18.5664 2.6875 18.7266 2.79688 18.9141 2.88281C19.1016 2.96875 19.2969 3.00781 19.5 3V1.5H18ZM1.5 3C1.71094 3 1.90625 2.96094 2.08594 2.88281C2.26562 2.80469 2.42188 2.69922 2.55469 2.56641C2.6875 2.43359 2.79688 2.27344 2.88281 2.08594C2.96875 1.89844 3.00781 1.70312 3 1.5H1.5V3ZM1.5 9C1.91406 9 2.30078 9.07812 2.66016 9.23438C3.01953 9.39062 3.33984 9.60547 3.62109 9.87891C3.90234 10.1523 4.11719 10.4688 4.26562 10.8281C4.41406 11.1875 4.49219 11.5781 4.5 12H16.5C16.5 11.5859 16.5781 11.1992 16.7344 10.8398C16.8906 10.4805 17.1055 10.1602 17.3789 9.87891C17.6523 9.59766 17.9688 9.38281 18.3281 9.23438C18.6875 9.08594 19.0781 9.00781 19.5 9V4.5C19.0859 4.5 18.6992 4.42188 18.3398 4.26562C17.9805 4.10938 17.6602 3.89453 17.3789 3.62109C17.0977 3.34766 16.8828 3.03125 16.7344 2.67188C16.5859 2.3125 16.5078 1.92188 16.5 1.5H4.5C4.5 1.91406 4.42188 2.30078 4.26562 2.66016C4.10938 3.01953 3.89453 3.33984 3.62109 3.62109C3.34766 3.90234 3.03125 4.11719 2.67188 4.26562C2.3125 4.41406 1.92188 4.49219 1.5 4.5V9ZM19.5 10.5C19.2891 10.5 19.0938 10.5391 18.9141 10.6172C18.7344 10.6953 18.5781 10.8008 18.4453 10.9336C18.3125 11.0664 18.2031 11.2266 18.1172 11.4141C18.0312 11.6016 17.9922 11.7969 18 12H19.5V10.5ZM1.5 12H3C3 11.7891 2.96094 11.5938 2.88281 11.4141C2.80469 11.2344 2.69922 11.0781 2.56641 10.9453C2.43359 10.8125 2.27344 10.7031 2.08594 10.6172C1.89844 10.5312 1.70312 10.4922 1.5 10.5V12ZM22.5 3H21V13.5H3V15H22.5V3ZM5.25 7.5C5.04688 7.5 4.87109 7.42578 4.72266 7.27734C4.57422 7.12891 4.5 6.95312 4.5 6.75C4.5 6.54688 4.57422 6.37109 4.72266 6.22266C4.87109 6.07422 5.04688 6 5.25 6C5.45312 6 5.62891 6.07422 5.77734 6.22266C5.92578 6.37109 6 6.54688 6 6.75C6 6.95312 5.92578 7.12891 5.77734 7.27734C5.62891 7.42578 5.45312 7.5 5.25 7.5ZM15.75 7.5C15.5469 7.5 15.3711 7.42578 15.2227 7.27734C15.0742 7.12891 15 6.95312 15 6.75C15 6.54688 15.0742 6.37109 15.2227 6.22266C15.3711 6.07422 15.5469 6 15.75 6C15.9531 6 16.1289 6.07422 16.2773 6.22266C16.4258 6.37109 16.5 6.54688 16.5 6.75C16.5 6.95312 16.4258 7.12891 16.2773 7.27734C16.1289 7.42578 15.9531 7.5 15.75 7.5ZM10.5 10.5C10.0859 10.5 9.69922 10.4219 9.33984 10.2656C8.98047 10.1094 8.66016 9.89453 8.37891 9.62109C8.09766 9.34766 7.88281 9.03125 7.73438 8.67188C7.58594 8.3125 7.50781 7.92188 7.5 7.5V6C7.5 5.58594 7.57812 5.19922 7.73438 4.83984C7.89062 4.48047 8.10547 4.16016 8.37891 3.87891C8.65234 3.59766 8.96875 3.38281 9.32812 3.23438C9.6875 3.08594 10.0781 3.00781 10.5 3C10.9141 3 11.3008 3.07812 11.6602 3.23438C12.0195 3.39062 12.3398 3.60547 12.6211 3.87891C12.9023 4.15234 13.1172 4.46875 13.2656 4.82812C13.4141 5.1875 13.4922 5.57812 13.5 6V7.5C13.5 7.91406 13.4219 8.30078 13.2656 8.66016C13.1094 9.01953 12.8945 9.33984 12.6211 9.62109C12.3477 9.90234 12.0312 10.1172 11.6719 10.2656C11.3125 10.4141 10.9219 10.4922 10.5 10.5ZM9 7.5C9 7.71094 9.03906 7.90625 9.11719 8.08594C9.19531 8.26562 9.30078 8.42188 9.43359 8.55469C9.56641 8.6875 9.72656 8.79688 9.91406 8.88281C10.1016 8.96875 10.2969 9.00781 10.5 9C10.7109 9 10.9062 8.96094 11.0859 8.88281C11.2656 8.80469 11.4219 8.69922 11.5547 8.56641C11.6875 8.43359 11.7969 8.27344 11.8828 8.08594C11.9688 7.89844 12.0078 7.70312 12 7.5V6C12 5.78906 11.9609 5.59375 11.8828 5.41406C11.8047 5.23438 11.6992 5.07812 11.5664 4.94531C11.4336 4.8125 11.2734 4.70312 11.0859 4.61719C10.8984 4.53125 10.7031 4.49219 10.5 4.5C10.2891 4.5 10.0938 4.53906 9.91406 4.61719C9.73438 4.69531 9.57812 4.80078 9.44531 4.93359C9.3125 5.06641 9.20312 5.22656 9.11719 5.41406C9.03125 5.60156 8.99219 5.79688 9 6V7.5Z" fill="black"/>
</svg>
