<svg width="24" height="25" viewBox="0 0 24 25" fill="none" xmlns="http://www.w3.org/2000/svg">
<path d="M15.75 15C15.5511 15 15.3603 15.079 15.2197 15.2197C15.079 15.3603 15 15.5511 15 15.75C15 15.9489 15.079 16.1397 15.2197 16.2803C15.3603 16.421 15.5511 16.5 15.75 16.5H18.25C18.4489 16.5 18.6397 16.421 18.7803 16.2803C18.921 16.1397 19 15.9489 19 15.75C19 15.5511 18.921 15.3603 18.7803 15.2197C18.6397 15.079 18.4489 15 18.25 15H15.75ZM2 8.75C2 7.88805 2.34241 7.0614 2.9519 6.4519C3.5614 5.84241 4.38805 5.5 5.25 5.5H18.75C19.1768 5.5 19.5994 5.58406 19.9937 5.74739C20.388 5.91072 20.7463 6.15011 21.0481 6.4519C21.3499 6.75369 21.5893 7.11197 21.7526 7.50628C21.9159 7.90059 22 8.3232 22 8.75V16.25C22 16.6768 21.9159 17.0994 21.7526 17.4937C21.5893 17.888 21.3499 18.2463 21.0481 18.5481C20.7463 18.8499 20.388 19.0893 19.9937 19.2526C19.5994 19.4159 19.1768 19.5 18.75 19.5H5.25C4.38805 19.5 3.5614 19.1576 2.9519 18.5481C2.34241 17.9386 2 17.112 2 16.25V8.75ZM20.5 10V8.75C20.5 8.28587 20.3156 7.84075 19.9874 7.51256C19.6592 7.18437 19.2141 7 18.75 7H5.25C4.78587 7 4.34075 7.18437 4.01256 7.51256C3.68437 7.84075 3.5 8.28587 3.5 8.75V10H20.5ZM3.5 11.5V16.25C3.5 17.216 4.284 18 5.25 18H18.75C19.2141 18 19.6592 17.8156 19.9874 17.4874C20.3156 17.1592 20.5 16.7141 20.5 16.25V11.5H3.5Z" fill="white"/>
</svg>
