<svg width="24" height="24" viewBox="0 0 24 24" fill="none" xmlns="http://www.w3.org/2000/svg">
<path d="M12.0001 4.75C11.7046 4.75 11.4121 4.8082 11.1391 4.92127C10.8661 5.03434 10.6181 5.20008 10.4091 5.40901C10.2002 5.61794 10.0345 5.86598 9.92138 6.13896C9.80831 6.41194 9.75011 6.70453 9.75011 7C9.75011 7.29547 9.80831 7.58806 9.92138 7.86104C10.0345 8.13402 10.2002 8.38206 10.4091 8.59099C10.6181 8.79992 10.8661 8.96566 11.1391 9.07873C11.4121 9.1918 11.7046 9.25 12.0001 9.25C12.5968 9.25 13.1691 9.01295 13.5911 8.59099C14.0131 8.16903 14.2501 7.59674 14.2501 7C14.2501 6.40326 14.0131 5.83097 13.5911 5.40901C13.1691 4.98705 12.5968 4.75 12.0001 4.75ZM8.25011 7C8.25011 6.00544 8.6452 5.05161 9.34846 4.34835C10.0517 3.64509 11.0055 3.25 12.0001 3.25C12.9947 3.25 13.9485 3.64509 14.6518 4.34835C15.355 5.05161 15.7501 6.00544 15.7501 7C15.7501 7.99456 15.355 8.94839 14.6518 9.65165C13.9485 10.3549 12.9947 10.75 12.0001 10.75C11.0055 10.75 10.0517 10.3549 9.34846 9.65165C8.6452 8.94839 8.25011 7.99456 8.25011 7ZM9.31411 12.819C9.44611 12.917 9.61611 13.032 9.81911 13.146C10.3321 13.436 11.0841 13.736 11.9991 13.736C12.9141 13.736 13.6671 13.436 14.1801 13.146C14.3831 13.032 14.5531 12.917 14.6851 12.819C14.8731 12.869 15.0594 12.9243 15.2441 12.985L16.2041 13.3C16.9241 13.537 17.4681 14.112 17.6621 14.823L18.0591 17.687C18.1341 18.231 17.8491 18.626 17.4531 18.72C16.4061 18.97 14.6411 19.25 12.0001 19.25C9.35911 19.25 7.59311 18.97 6.54611 18.72C6.15111 18.626 5.86611 18.231 5.94011 17.687L6.33711 14.823C6.43575 14.4685 6.62061 14.1439 6.87518 13.8781C7.12975 13.6124 7.44613 13.4138 7.79611 13.3L8.75611 12.985C8.94011 12.925 9.12611 12.8697 9.31411 12.819ZM10.0241 11.464L9.73311 11.177L9.33111 11.269C8.98044 11.349 8.63244 11.446 8.28711 11.56L7.32711 11.875C6.73073 12.0689 6.19303 12.4103 5.76399 12.8677C5.33495 13.3251 5.0285 13.8835 4.87311 14.491L4.86311 14.531L4.45511 17.481C4.29411 18.645 4.91711 19.874 6.19911 20.179C7.36911 20.458 9.25111 20.75 11.9991 20.75C14.7481 20.75 16.6301 20.458 17.8001 20.18C19.0821 19.874 19.7061 18.645 19.5451 17.482L19.1361 14.532L19.1261 14.492C18.9708 13.8842 18.6642 13.3255 18.235 12.8679C17.8058 12.4104 17.2678 12.0688 16.6711 11.875L15.7121 11.56C15.3674 11.4467 15.0194 11.35 14.6681 11.27L14.2661 11.177L13.9761 11.463L13.9751 11.464C13.9364 11.4992 13.8964 11.5329 13.8551 11.565C13.7262 11.6674 13.5891 11.7591 13.4451 11.839C13.0055 12.0931 12.5079 12.2298 12.0001 12.236C11.4924 12.2298 10.9948 12.0931 10.5551 11.839C10.3662 11.7323 10.1876 11.6066 10.0241 11.464Z" fill="black"/>
</svg>
