<svg width="24" height="24" viewBox="0 0 24 24" fill="none" xmlns="http://www.w3.org/2000/svg">
<path d="M20.0963 15.6056L15.6806 13.6266L15.6694 13.6209C15.44 13.5227 15.1897 13.4833 14.9412 13.5062C14.6927 13.5291 14.4538 13.6136 14.2463 13.7522C14.2218 13.7683 14.1983 13.7858 14.1759 13.8047L11.8941 15.75C10.4484 15.0478 8.95595 13.5666 8.25376 12.1397L10.2019 9.82312C10.2206 9.79968 10.2384 9.77624 10.2553 9.75093C10.3907 9.54403 10.4729 9.30686 10.4945 9.06053C10.5161 8.8142 10.4764 8.56636 10.3791 8.33906C10.3787 8.33532 10.3787 8.33155 10.3791 8.32781L8.39438 3.90374C8.2657 3.6068 8.04444 3.35945 7.76362 3.19859C7.4828 3.03774 7.1575 2.97202 6.83626 3.01124C5.56592 3.17841 4.39986 3.80228 3.55588 4.76633C2.7119 5.73039 2.24771 6.9687 2.25001 8.24999C2.25001 15.6937 8.30626 21.75 15.75 21.75C17.0313 21.7523 18.2696 21.2881 19.2337 20.4441C20.1977 19.6001 20.8216 18.4341 20.9888 17.1637C21.028 16.8425 20.9623 16.5172 20.8014 16.2364C20.6406 15.9556 20.3932 15.7343 20.0963 15.6056ZM15.75 20.25C12.5685 20.2465 9.51825 18.9811 7.26856 16.7314C5.01888 14.4818 3.75348 11.4315 3.75001 8.24999C3.74648 7.33451 4.07631 6.44905 4.67789 5.75897C5.27947 5.06889 6.11167 4.62137 7.01907 4.49999C7.0187 4.50373 7.0187 4.5075 7.01907 4.51124L8.98782 8.91749L7.05001 11.2369C7.0303 11.2595 7.01243 11.2836 6.99657 11.3091C6.85549 11.5255 6.77273 11.7748 6.7563 12.0327C6.73988 12.2906 6.79035 12.5483 6.90282 12.7809C7.7522 14.5181 9.50251 16.2553 11.2584 17.1037C11.4928 17.2152 11.752 17.2639 12.0108 17.2452C12.2696 17.2264 12.5192 17.1409 12.735 16.9969C12.7593 16.9806 12.7825 16.9628 12.8044 16.9434L15.0834 15L19.4897 16.9744H19.5C19.3799 17.8829 18.933 18.7165 18.2428 19.3194C17.5526 19.9223 16.6664 20.2531 15.75 20.25ZM12.75 5.99999C12.75 5.80108 12.829 5.61032 12.9697 5.46966C13.1103 5.32901 13.3011 5.24999 13.5 5.24999H19.5C19.6989 5.24999 19.8897 5.32901 20.0303 5.46966C20.171 5.61032 20.25 5.80108 20.25 5.99999C20.25 6.19891 20.171 6.38967 20.0303 6.53032C19.8897 6.67098 19.6989 6.74999 19.5 6.74999H13.5C13.3011 6.74999 13.1103 6.67098 12.9697 6.53032C12.829 6.38967 12.75 6.19891 12.75 5.99999ZM12.75 9.74999C12.75 9.55108 12.829 9.36032 12.9697 9.21966C13.1103 9.07901 13.3011 8.99999 13.5 8.99999H19.5C19.6989 8.99999 19.8897 9.07901 20.0303 9.21966C20.171 9.36032 20.25 9.55108 20.25 9.74999C20.25 9.94891 20.171 10.1397 20.0303 10.2803C19.8897 10.421 19.6989 10.5 19.5 10.5H13.5C13.3011 10.5 13.1103 10.421 12.9697 10.2803C12.829 10.1397 12.75 9.94891 12.75 9.74999Z" fill="#B0B0B0"/>
</svg>
