<svg width="24" height="24" viewBox="0 0 24 24" fill="none" xmlns="http://www.w3.org/2000/svg">
<path d="M13.7063 4.35469C13.7253 4.28327 13.7582 4.21629 13.8032 4.1576C13.8481 4.09891 13.9042 4.04965 13.9682 4.01265C14.0322 3.97564 14.1029 3.95162 14.1761 3.94194C14.2494 3.93226 14.3239 3.93713 14.3953 3.95626C15.7539 4.31065 16.9935 5.02084 17.9863 6.01368C18.9792 7.00651 19.6894 8.24608 20.0438 9.60469C20.0629 9.6761 20.0678 9.75058 20.0581 9.82387C20.0484 9.89716 20.0244 9.96782 19.9874 10.0318C19.9504 10.0958 19.9011 10.1519 19.8424 10.1968C19.7837 10.2418 19.7168 10.2747 19.6453 10.2938C19.5979 10.3063 19.5491 10.3126 19.5 10.3125C19.3761 10.3126 19.2556 10.2717 19.1573 10.1963C19.0589 10.1208 18.9883 10.015 18.9563 9.89532C18.652 8.72831 18.042 7.66354 17.1893 6.81075C16.3365 5.95797 15.2717 5.34801 14.1047 5.04376C14.0333 5.02471 13.9663 4.99178 13.9076 4.94683C13.8489 4.90188 13.7997 4.84581 13.7626 4.78181C13.7256 4.71782 13.7016 4.64716 13.6919 4.57387C13.6823 4.50058 13.6871 4.4261 13.7063 4.35469ZM13.3547 8.04376C14.7188 8.40751 15.5925 9.28126 15.9563 10.6453C15.9883 10.765 16.0589 10.8708 16.1573 10.9463C16.2556 11.0217 16.3761 11.0626 16.5 11.0625C16.5491 11.0626 16.5979 11.0563 16.6453 11.0438C16.7168 11.0247 16.7837 10.9918 16.8424 10.9468C16.9011 10.9019 16.9504 10.8458 16.9874 10.7818C17.0244 10.7178 17.0484 10.6472 17.0581 10.5739C17.0678 10.5006 17.0629 10.4261 17.0438 10.3547C16.575 8.60063 15.3994 7.42501 13.6453 6.95626C13.5739 6.93717 13.4994 6.93234 13.4262 6.94204C13.3529 6.95173 13.2823 6.97577 13.2183 7.01277C13.1543 7.04976 13.0982 7.099 13.0533 7.15767C13.0083 7.21634 12.9753 7.28329 12.9563 7.35469C12.9372 7.4261 12.9323 7.50057 12.942 7.57384C12.9517 7.64711 12.9758 7.71776 13.0128 7.78174C13.0498 7.84573 13.099 7.9018 13.1577 7.94676C13.2163 7.99171 13.2833 8.02467 13.3547 8.04376ZM20.8022 17.1375C20.6416 18.363 20.0402 19.4881 19.1104 20.3025C18.1806 21.1169 16.986 21.5648 15.75 21.5625C8.40938 21.5625 2.43751 15.5906 2.43751 8.25001C2.43514 7.01442 2.88265 5.82023 3.69645 4.89049C4.51025 3.96076 5.63468 3.35907 6.8597 3.19782C7.14169 3.16355 7.4272 3.2217 7.67333 3.36353C7.91947 3.50536 8.11294 3.72322 8.2247 3.98438L10.2028 8.40001C10.2902 8.59991 10.3263 8.81843 10.308 9.0358C10.2896 9.25318 10.2174 9.46256 10.0978 9.64501C10.0858 9.66358 10.0726 9.68142 10.0584 9.69844L8.08313 12.0478C8.07114 12.0722 8.0649 12.099 8.0649 12.1261C8.0649 12.1532 8.07114 12.18 8.08313 12.2044C8.80126 13.6744 10.3425 15.2044 11.8331 15.9216C11.858 15.9329 11.8852 15.9383 11.9125 15.9373C11.9399 15.9364 11.9666 15.929 11.9906 15.9159L14.3053 13.9472C14.3219 13.9329 14.3394 13.9197 14.3578 13.9078C14.5395 13.7867 14.7484 13.7128 14.9658 13.6929C15.1832 13.6729 15.4022 13.7075 15.6028 13.7934L20.0316 15.7781C20.2893 15.8923 20.5033 16.0865 20.6421 16.3318C20.7809 16.5771 20.837 16.8606 20.8022 17.1403V17.1375ZM19.6875 16.9988C19.6907 16.9596 19.6814 16.9204 19.661 16.8867C19.6407 16.8531 19.6103 16.8267 19.5741 16.8113L15.1444 14.8266C15.1202 14.8172 15.0942 14.8132 15.0684 14.8149C15.0425 14.8165 15.0172 14.8237 14.9944 14.8359L12.6806 16.8047C12.6638 16.8188 12.6459 16.8319 12.6281 16.8441C12.4394 16.9699 12.2213 17.0447 11.995 17.0611C11.7688 17.0776 11.5421 17.0351 11.3372 16.9378C9.61595 16.1063 7.90032 14.4066 7.06876 12.7013C6.97095 12.4975 6.92742 12.272 6.94236 12.0465C6.95731 11.821 7.03023 11.6031 7.15407 11.4141C7.16622 11.3953 7.17969 11.3775 7.19438 11.3606L9.16782 9.00844C9.1791 8.98389 9.18495 8.95719 9.18495 8.93016C9.18495 8.90314 9.1791 8.87644 9.16782 8.85188L7.19438 4.43532C7.18135 4.39985 7.15791 4.36915 7.12713 4.34723C7.09635 4.32532 7.05966 4.31321 7.02188 4.31251H7.00032C6.04683 4.43934 5.1721 4.90889 4.53947 5.63347C3.90685 6.35805 3.55958 7.28812 3.56251 8.25001C3.56251 14.97 9.03001 20.4375 15.75 20.4375C16.712 20.4404 17.6422 20.093 18.3668 19.4602C19.0914 18.8274 19.5609 17.9524 19.6875 16.9988Z" fill="white"/>
</svg>
