<svg width="36" height="37" viewBox="0 0 36 37" fill="none" xmlns="http://www.w3.org/2000/svg">
<rect y="0.701538" width="36" height="36" rx="18" fill="#FFE6E6"/>
<path d="M19 12.7015C19 12.4363 18.8946 12.182 18.7071 11.9944C18.5196 11.8069 18.2652 11.7015 18 11.7015C17.7348 11.7015 17.4804 11.8069 17.2929 11.9944C17.1054 12.182 17 12.4363 17 12.7015V17.7015H12C11.7348 17.7015 11.4804 17.8069 11.2929 17.9944C11.1054 18.182 11 18.4363 11 18.7015C11 18.9668 11.1054 19.2211 11.2929 19.4086C11.4804 19.5962 11.7348 19.7015 12 19.7015H17V24.7015C17 24.9668 17.1054 25.2211 17.2929 25.4086C17.4804 25.5962 17.7348 25.7015 18 25.7015C18.2652 25.7015 18.5196 25.5962 18.7071 25.4086C18.8946 25.2211 19 24.9668 19 24.7015V19.7015H24C24.2652 19.7015 24.5196 19.5962 24.7071 19.4086C24.8946 19.2211 25 18.9668 25 18.7015C25 18.4363 24.8946 18.182 24.7071 17.9944C24.5196 17.8069 24.2652 17.7015 24 17.7015H19V12.7015Z" fill="black"/>
</svg>
