<svg width="24" height="25" viewBox="0 0 24 25" fill="none" xmlns="http://www.w3.org/2000/svg">
<path d="M3.25 5.5C3.25 4.77065 3.53973 4.07118 4.05546 3.55546C4.57118 3.03973 5.27065 2.75 6 2.75H16C16.7293 2.75 17.4288 3.03973 17.9445 3.55546C18.4603 4.07118 18.75 4.77065 18.75 5.5V11C18.75 11.1989 18.671 11.3897 18.5303 11.5303C18.3897 11.671 18.1989 11.75 18 11.75C17.8011 11.75 17.6103 11.671 17.4697 11.5303C17.329 11.3897 17.25 11.1989 17.25 11V5.5C17.25 4.81 16.69 4.25 16 4.25H6C5.31 4.25 4.75 4.81 4.75 5.5V19.5C4.75 20.19 5.31 20.75 6 20.75H13.5C13.6989 20.75 13.8897 20.829 14.0303 20.9697C14.171 21.1103 14.25 21.3011 14.25 21.5C14.25 21.6989 14.171 21.8897 14.0303 22.0303C13.8897 22.171 13.6989 22.25 13.5 22.25H6C5.27065 22.25 4.57118 21.9603 4.05546 21.4445C3.53973 20.9288 3.25 20.2293 3.25 19.5V5.5Z" fill="white"/>
<path d="M18 13.75C18.1989 13.75 18.3897 13.829 18.5303 13.9697C18.671 14.1103 18.75 14.3011 18.75 14.5V14.918C19.777 14.956 20.75 15.713 20.75 16.833C20.75 17.0319 20.671 17.2227 20.5303 17.3633C20.3897 17.504 20.1989 17.583 20 17.583C19.8011 17.583 19.6103 17.504 19.4697 17.3633C19.329 17.2227 19.25 17.0319 19.25 16.833C19.25 16.691 19.088 16.417 18.669 16.417H17.163C17.0435 16.4138 16.9267 16.4535 16.834 16.529C16.766 16.589 16.75 16.646 16.75 16.683C16.7485 16.7333 16.7545 16.7835 16.768 16.832C16.7813 16.8418 16.7953 16.8505 16.81 16.858C16.85 16.878 16.91 16.902 17.003 16.93L19.421 17.631C19.697 17.713 20.051 17.849 20.329 18.144C20.629 18.464 20.75 18.874 20.75 19.317C20.75 20.384 19.794 21.083 18.837 21.083H18.75V21.5C18.75 21.6989 18.671 21.8897 18.5303 22.0303C18.3897 22.171 18.1989 22.25 18 22.25C17.8011 22.25 17.6103 22.171 17.4697 22.0303C17.329 21.8897 17.25 21.6989 17.25 21.5V21.082C16.223 21.044 15.25 20.287 15.25 19.167C15.25 18.9681 15.329 18.7773 15.4697 18.6367C15.6103 18.496 15.8011 18.417 16 18.417C16.1989 18.417 16.3897 18.496 16.5303 18.6367C16.671 18.7773 16.75 18.9681 16.75 19.167C16.75 19.309 16.912 19.583 17.331 19.583H18.837C18.9565 19.5862 19.0733 19.5465 19.166 19.471C19.234 19.411 19.25 19.354 19.25 19.317C19.2515 19.2667 19.2455 19.2165 19.232 19.168C19.2187 19.1582 19.2047 19.1495 19.19 19.142C19.15 19.122 19.09 19.098 18.997 19.07L16.579 18.369C16.303 18.287 15.949 18.151 15.671 17.856C15.371 17.536 15.25 17.126 15.25 16.683C15.25 15.616 16.206 14.917 17.163 14.917H17.25V14.5C17.25 14.3011 17.329 14.1103 17.4697 13.9697C17.6103 13.829 17.8011 13.75 18 13.75ZM6.25 11.5C6.25 11.3011 6.32902 11.1103 6.46967 10.9697C6.61032 10.829 6.80109 10.75 7 10.75H7.5C7.69891 10.75 7.88968 10.829 8.03033 10.9697C8.17098 11.1103 8.25 11.3011 8.25 11.5C8.25 11.6989 8.17098 11.8897 8.03033 12.0303C7.88968 12.171 7.69891 12.25 7.5 12.25H7C6.80109 12.25 6.61032 12.171 6.46967 12.0303C6.32902 11.8897 6.25 11.6989 6.25 11.5ZM9.25 11.5C9.25 11.3011 9.32902 11.1103 9.46967 10.9697C9.61032 10.829 9.80109 10.75 10 10.75H15C15.1989 10.75 15.3897 10.829 15.5303 10.9697C15.671 11.1103 15.75 11.3011 15.75 11.5C15.75 11.6989 15.671 11.8897 15.5303 12.0303C15.3897 12.171 15.1989 12.25 15 12.25H10C9.80109 12.25 9.61032 12.171 9.46967 12.0303C9.32902 11.8897 9.25 11.6989 9.25 11.5ZM6.25 14.5C6.25 14.3011 6.32902 14.1103 6.46967 13.9697C6.61032 13.829 6.80109 13.75 7 13.75H7.5C7.69891 13.75 7.88968 13.829 8.03033 13.9697C8.17098 14.1103 8.25 14.3011 8.25 14.5C8.25 14.6989 8.17098 14.8897 8.03033 15.0303C7.88968 15.171 7.69891 15.25 7.5 15.25H7C6.80109 15.25 6.61032 15.171 6.46967 15.0303C6.32902 14.8897 6.25 14.6989 6.25 14.5ZM9.25 14.5C9.25 14.3011 9.32902 14.1103 9.46967 13.9697C9.61032 13.829 9.80109 13.75 10 13.75H13.5C13.6989 13.75 13.8897 13.829 14.0303 13.9697C14.171 14.1103 14.25 14.3011 14.25 14.5C14.25 14.6989 14.171 14.8897 14.0303 15.0303C13.8897 15.171 13.6989 15.25 13.5 15.25H10C9.80109 15.25 9.61032 15.171 9.46967 15.0303C9.32902 14.8897 9.25 14.6989 9.25 14.5ZM6.25 17.5C6.25 17.3011 6.32902 17.1103 6.46967 16.9697C6.61032 16.829 6.80109 16.75 7 16.75H7.5C7.69891 16.75 7.88968 16.829 8.03033 16.9697C8.17098 17.1103 8.25 17.3011 8.25 17.5C8.25 17.6989 8.17098 17.8897 8.03033 18.0303C7.88968 18.171 7.69891 18.25 7.5 18.25H7C6.80109 18.25 6.61032 18.171 6.46967 18.0303C6.32902 17.8897 6.25 17.6989 6.25 17.5ZM9.25 17.5C9.25 17.3011 9.32902 17.1103 9.46967 16.9697C9.61032 16.829 9.80109 16.75 10 16.75H12C12.1989 16.75 12.3897 16.829 12.5303 16.9697C12.671 17.1103 12.75 17.3011 12.75 17.5C12.75 17.6989 12.671 17.8897 12.5303 18.0303C12.3897 18.171 12.1989 18.25 12 18.25H10C9.80109 18.25 9.61032 18.171 9.46967 18.0303C9.32902 17.8897 9.25 17.6989 9.25 17.5ZM6 7C6 6.534 6 6.301 6.076 6.117C6.17771 5.87246 6.37227 5.67826 6.617 5.577C6.801 5.5 7.034 5.5 7.5 5.5H14.5C14.966 5.5 15.199 5.5 15.383 5.576C15.6275 5.67771 15.8217 5.87227 15.923 6.117C16 6.301 16 6.534 16 7C16 7.466 16 7.699 15.924 7.883C15.8223 8.12754 15.6277 8.32174 15.383 8.423C15.199 8.5 14.966 8.5 14.5 8.5H7.5C7.034 8.5 6.801 8.5 6.617 8.424C6.37246 8.32229 6.17826 8.12773 6.077 7.883C6 7.699 6 7.466 6 7Z" fill="white"/>
</svg>
