<svg width="55" height="55" viewBox="0 0 68 68" fill="none" xmlns="http://www.w3.org/2000/svg">
<rect width="68" height="68" rx="16" fill="#FF0000"/>
<path d="M32.9524 21.4286H23.5239C22.4125 21.4286 21.3466 21.8701 20.5607 22.656C19.7749 23.4418 19.3334 24.5077 19.3334 25.6191V44.4762C19.3334 45.5876 19.7749 46.6535 20.5607 47.4393C21.3466 48.2252 22.4125 48.6667 23.5239 48.6667H44.4762C45.5876 48.6667 46.6535 48.2252 47.4393 47.4393C48.2252 46.6535 48.6667 45.5876 48.6667 44.4762V35.0476" stroke="white" stroke-width="2" stroke-linecap="round" stroke-linejoin="round"/>
<path d="M44.4763 23.5238L46.473 25.6191M48.6667 19.2642C49.2263 19.8413 49.5363 20.6154 49.5296 21.4191C49.5229 22.2229 49.2002 22.9918 48.6311 23.5594L34.0001 38.1905L27.7144 40.2857L29.8096 34L44.449 19.237C44.9639 18.7188 45.6525 18.4097 46.3819 18.3695C47.1113 18.3292 47.8298 18.5607 48.3985 19.0191L48.6667 19.2642Z" stroke="white" stroke-width="2" stroke-linecap="round" stroke-linejoin="round"/>
</svg>
