<svg width="19" height="19" viewBox="0 0 19 19" fill="none" xmlns="http://www.w3.org/2000/svg">
<path d="M10.0001 0.75L9.76531 0.96L1.21006 9.60975L0.695557 10.1257L1.21081 10.6657L8.33581 17.7907L8.87581 18.306L9.39331 17.7907L18.0408 9.2355L18.2501 9V0.75H10.0001ZM10.6331 2.25H16.7501V8.367L8.87506 16.1955L2.80456 10.125L10.6331 2.25ZM14.5001 3.75C14.3011 3.75 14.1104 3.82902 13.9697 3.96967C13.8291 4.11032 13.7501 4.30109 13.7501 4.5C13.7501 4.69891 13.8291 4.88968 13.9697 5.03033C14.1104 5.17098 14.3011 5.25 14.5001 5.25C14.699 5.25 14.8897 5.17098 15.0304 5.03033C15.171 4.88968 15.2501 4.69891 15.2501 4.5C15.2501 4.30109 15.171 4.11032 15.0304 3.96967C14.8897 3.82902 14.699 3.75 14.5001 3.75Z" fill="black"/>
</svg>
