<svg width="24" height="25" viewBox="0 0 24 25" fill="none" xmlns="http://www.w3.org/2000/svg">
<path d="M11 17.5H13V11.5H11V17.5ZM12 9.5C12.2833 9.5 12.521 9.404 12.713 9.212C12.905 9.02 13.0007 8.78267 13 8.5C12.9993 8.21733 12.9033 7.98 12.712 7.788C12.5207 7.596 12.2833 7.5 12 7.5C11.7167 7.5 11.4793 7.596 11.288 7.788C11.0967 7.98 11.0007 8.21733 11 8.5C10.9993 8.78267 11.0953 9.02033 11.288 9.213C11.4807 9.40567 11.718 9.50133 12 9.5ZM12 22.5C9.68333 21.9167 7.77067 20.5873 6.262 18.512C4.75333 16.4367 3.99933 14.1327 4 11.6V5.5L12 2.5L20 5.5V11.6C20 14.1333 19.246 16.4377 17.738 18.513C16.23 20.5883 14.3173 21.9173 12 22.5ZM12 20.4C13.7333 19.85 15.1667 18.75 16.3 17.1C17.4333 15.45 18 13.6167 18 11.6V6.875L12 4.625L6 6.875V11.6C6 13.6167 6.56667 15.45 7.7 17.1C8.83333 18.75 10.2667 19.85 12 20.4Z" fill="white"/>
</svg>
