<svg width="24" height="24" viewBox="0 0 24 24" fill="none" xmlns="http://www.w3.org/2000/svg">
<path d="M15.492 7.5H15.5M18.492 7.5H18.5M22 7.283C22 9.925 19.761 12.067 17 12.067C16.6747 12.067 16.3523 12.037 16.033 11.977C15.803 11.934 15.688 11.913 15.608 11.925C15.528 11.937 15.414 11.997 15.188 12.118C14.5409 12.4629 13.7963 12.5788 13.075 12.447C13.3507 12.1063 13.5376 11.7026 13.619 11.272C13.669 11.007 13.545 10.75 13.359 10.562C12.4912 9.69108 12.0027 8.51248 12 7.283C12 4.642 14.239 2.5 17 2.5C19.761 2.5 22 4.642 22 7.283ZM7.50199 21.5H4.71799C4.39499 21.5 4.06999 21.454 3.77299 21.327C2.80699 20.912 2.31599 20.363 2.08799 20.02C2.02611 19.925 1.99571 19.8129 2.0011 19.6997C2.00648 19.5864 2.04738 19.4777 2.11799 19.389C3.23799 17.901 5.83799 17.003 7.50699 17.003C9.17499 17.003 11.771 17.901 12.891 19.389C13.032 19.576 13.051 19.825 12.921 20.02C12.692 20.363 12.201 20.912 11.235 21.327C10.9349 21.4478 10.6134 21.5066 10.29 21.5H7.50199ZM10.286 11.789C10.2855 12.1535 10.2131 12.5144 10.0732 12.851C9.93316 13.1876 9.72824 13.4934 9.47009 13.7508C9.21195 14.0082 8.90563 14.2122 8.56863 14.3512C8.23163 14.4902 7.87054 14.5615 7.50599 14.561C6.7701 14.5615 6.0641 14.2698 5.54318 13.7501C5.02227 13.2303 4.72905 12.5249 4.72799 11.789C4.72839 11.4244 4.80058 11.0635 4.94045 10.7269C5.08032 10.3902 5.28513 10.0844 5.54319 9.82695C5.80124 9.56945 6.10748 9.3653 6.44444 9.22616C6.78139 9.08702 7.14244 9.01561 7.50699 9.016C7.87154 9.01561 8.2326 9.08702 8.56955 9.22616C8.9065 9.3653 9.21275 9.56945 9.4708 9.82695C9.72886 10.0844 9.93366 10.3902 10.0735 10.7269C10.2134 11.0635 10.2856 11.4244 10.286 11.789Z" stroke="white" stroke-width="1.5" stroke-linecap="round" stroke-linejoin="round"/>
</svg>
