<svg width="24" height="24" viewBox="0 0 24 24" fill="none" xmlns="http://www.w3.org/2000/svg">
<path d="M9.5999 15.65L11.9999 13.8L14.3999 15.65L13.4999 12.6L15.7499 11H12.9499L11.9999 7.9L11.0499 11H8.2499L10.4999 12.6L9.5999 15.65ZM11.9999 15.07L8.9729 17.375C8.86623 17.4483 8.75923 17.4807 8.6519 17.472C8.54457 17.4633 8.4459 17.433 8.3559 17.381C8.2659 17.329 8.19757 17.2507 8.1509 17.146C8.10423 17.0413 8.10323 16.9303 8.1479 16.813L9.3039 13.015L6.4289 10.94C6.31423 10.8733 6.24257 10.7857 6.2139 10.677C6.18523 10.5677 6.19156 10.46 6.2329 10.354C6.27356 10.2473 6.3359 10.1617 6.4199 10.097C6.50323 10.0323 6.60323 10 6.7199 10H10.3379L11.5099 6.123C11.5519 6.001 11.6162 5.90767 11.7029 5.843C11.7896 5.777 11.8882 5.744 11.9989 5.744C12.1096 5.744 12.2082 5.77667 12.2949 5.842C12.3816 5.90734 12.4459 6.001 12.4879 6.123L13.6599 10H17.2779C17.3952 10 17.4956 10.0323 17.5789 10.097C17.6629 10.1617 17.7252 10.2473 17.7659 10.354C17.8072 10.4607 17.8136 10.5683 17.7849 10.677C17.7562 10.7857 17.6846 10.8737 17.5699 10.941L14.6949 13.015L15.8509 16.813C15.8956 16.931 15.8946 17.042 15.8479 17.146C15.8012 17.25 15.7329 17.3283 15.6429 17.381C15.5529 17.4337 15.4542 17.464 15.3469 17.472C15.2396 17.48 15.1326 17.4477 15.0259 17.375L11.9999 15.07Z" fill="black"/>
</svg>
