<svg width="24" height="24" viewBox="0 0 24 24" fill="none" xmlns="http://www.w3.org/2000/svg">
<rect x="24" y="24" width="24" height="24" rx="4" transform="rotate(-180 24 24)" fill="#FF0000"/>
<path fill-rule="evenodd" clip-rule="evenodd" d="M7.94 13.06C7.6591 12.7787 7.50132 12.3975 7.50132 12C7.50132 11.6025 7.6591 11.2212 7.94001 10.94L13.596 5.28197C13.8774 5.0007 14.259 4.84275 14.6569 4.84284C15.0547 4.84293 15.4362 5.00107 15.7175 5.28247C15.9988 5.56386 16.1567 5.94546 16.1566 6.34332C16.1565 6.74118 15.9984 7.1227 15.717 7.40397L11.121 12L15.717 16.596C15.9904 16.8787 16.1418 17.2576 16.1385 17.6509C16.1353 18.0442 15.9777 18.4205 15.6997 18.6987C15.4217 18.977 15.0456 19.1349 14.6523 19.1385C14.259 19.1421 13.88 18.9911 13.597 18.718L7.939 13.061L7.94 13.06Z" fill="black"/>
</svg>
