<svg width="31" height="31" viewBox="0 0 31 31" fill="none" xmlns="http://www.w3.org/2000/svg">
<rect width="31" height="31" rx="15.5" fill="#FF0000"/>
<path d="M15.5 8.5C15.7652 8.5 16.0196 8.60536 16.2071 8.79289C16.3946 8.98043 16.5 9.23478 16.5 9.5V14.5H21.5C21.7652 14.5 22.0196 14.6054 22.2071 14.7929C22.3946 14.9804 22.5 15.2348 22.5 15.5C22.5 15.7652 22.3946 16.0196 22.2071 16.2071C22.0196 16.3946 21.7652 16.5 21.5 16.5H16.5V21.5C16.5 21.7652 16.3946 22.0196 16.2071 22.2071C16.0196 22.3946 15.7652 22.5 15.5 22.5C15.2348 22.5 14.9804 22.3946 14.7929 22.2071C14.6054 22.0196 14.5 21.7652 14.5 21.5V16.5H9.5C9.23478 16.5 8.98043 16.3946 8.79289 16.2071C8.60536 16.0196 8.5 15.7652 8.5 15.5C8.5 15.2348 8.60536 14.9804 8.79289 14.7929C8.98043 14.6054 9.23478 14.5 9.5 14.5H14.5V9.5C14.5 9.23478 14.6054 8.98043 14.7929 8.79289C14.9804 8.60536 15.2348 8.5 15.5 8.5Z" fill="white"/>
</svg>
