<svg width="80" height="81" viewBox="0 0 80 81" fill="none" xmlns="http://www.w3.org/2000/svg">
<g filter="url(#filter0_d_1136_9067)">
<rect x="16" y="11" width="48" height="48" rx="24" fill="#FF0000" shape-rendering="crispEdges"/>
<path d="M41.3333 27C41.3333 26.6464 41.1928 26.3073 40.9428 26.0572C40.6927 25.8072 40.3536 25.6667 40 25.6667C39.6463 25.6667 39.3072 25.8072 39.0571 26.0572C38.8071 26.3073 38.6666 26.6464 38.6666 27V33.6667H32C31.6463 33.6667 31.3072 33.8072 31.0572 34.0572C30.8071 34.3073 30.6666 34.6464 30.6666 35C30.6666 35.3536 30.8071 35.6928 31.0572 35.9428C31.3072 36.1929 31.6463 36.3334 32 36.3334H38.6666V43C38.6666 43.3536 38.8071 43.6928 39.0571 43.9428C39.3072 44.1929 39.6463 44.3334 40 44.3334C40.3536 44.3334 40.6927 44.1929 40.9428 43.9428C41.1928 43.6928 41.3333 43.3536 41.3333 43V36.3334H48C48.3536 36.3334 48.6927 36.1929 48.9428 35.9428C49.1928 35.6928 49.3333 35.3536 49.3333 35C49.3333 34.6464 49.1928 34.3073 48.9428 34.0572C48.6927 33.8072 48.3536 33.6667 48 33.6667H41.3333V27Z" fill="white"/>
</g>
<defs>
<filter id="filter0_d_1136_9067" x="0.266666" y="0.6" width="79.4667" height="79.4667" filterUnits="userSpaceOnUse" color-interpolation-filters="sRGB">
<feFlood flood-opacity="0" result="BackgroundImageFix"/>
<feColorMatrix in="SourceAlpha" type="matrix" values="0 0 0 0 0 0 0 0 0 0 0 0 0 0 0 0 0 0 127 0" result="hardAlpha"/>
<feOffset dy="5.33333"/>
<feGaussianBlur stdDeviation="7.86667"/>
<feComposite in2="hardAlpha" operator="out"/>
<feColorMatrix type="matrix" values="0 0 0 0 0 0 0 0 0 0 0 0 0 0 0 0 0 0 0.25 0"/>
<feBlend mode="normal" in2="BackgroundImageFix" result="effect1_dropShadow_1136_9067"/>
<feBlend mode="normal" in="SourceGraphic" in2="effect1_dropShadow_1136_9067" result="shape"/>
</filter>
</defs>
</svg>
