<svg width="10" height="16" viewBox="0 0 10 16" fill="none" xmlns="http://www.w3.org/2000/svg">
<path fill-rule="evenodd" clip-rule="evenodd" d="M9.06 6.94003C9.3409 7.22128 9.49868 7.60253 9.49868 8.00003C9.49868 8.39753 9.3409 8.77878 9.06 9.06003L3.404 14.718C3.1226 14.9993 2.741 15.1573 2.34314 15.1572C1.94528 15.1571 1.56376 14.9989 1.2825 14.7175C1.00123 14.4361 0.843275 14.0545 0.843369 13.6567C0.843462 13.2588 1.0016 12.8773 1.283 12.596L5.879 8.00003L1.283 3.40403C1.00962 3.12126 0.85825 2.74243 0.861481 2.34913C0.864712 1.95583 1.02229 1.57953 1.30027 1.30129C1.57825 1.02305 1.9544 0.865115 2.34769 0.861513C2.74099 0.857911 3.11996 1.00893 3.403 1.28203L9.061 6.93903L9.06 6.94003Z" fill="black"/>
</svg>
