<svg width="14" height="14" viewBox="0 0 14 14" fill="none" xmlns="http://www.w3.org/2000/svg">
<path d="M6.33337 9.99945H7.66671V5.99945H6.33337V9.99945ZM7.00004 4.66612C7.18893 4.66612 7.34737 4.60212 7.47538 4.47412C7.60337 4.34612 7.66715 4.18789 7.66671 3.99945C7.66626 3.81101 7.60226 3.65278 7.47471 3.52478C7.34715 3.39678 7.18893 3.33278 7.00004 3.33278C6.81115 3.33278 6.65293 3.39678 6.52537 3.52478C6.39782 3.65278 6.33382 3.81101 6.33337 3.99945C6.33293 4.18789 6.39693 4.34634 6.52537 4.47478C6.65382 4.60323 6.81204 4.66701 7.00004 4.66612ZM7.00004 13.3328C6.07782 13.3328 5.21115 13.1577 4.40004 12.8075C3.58893 12.4572 2.88337 11.9823 2.28338 11.3828C1.68338 10.7832 1.20849 10.0777 0.858708 9.26612C0.50893 8.45456 0.333819 7.58789 0.333375 6.66612C0.33293 5.74434 0.508042 4.87767 0.858708 4.06612C1.20937 3.25456 1.68426 2.54901 2.28338 1.94945C2.88249 1.3499 3.58804 0.875006 4.40004 0.524784C5.21204 0.174562 6.07871 -0.000549316 7.00004 -0.000549316C7.92137 -0.000549316 8.78804 0.174562 9.60004 0.524784C10.412 0.875006 11.1176 1.3499 11.7167 1.94945C12.3158 2.54901 12.7909 3.25456 13.142 4.06612C13.4932 4.87767 13.668 5.74434 13.6667 6.66612C13.6654 7.58789 13.4903 8.45456 13.1414 9.26612C12.7925 10.0777 12.3176 10.7832 11.7167 11.3828C11.1158 11.9823 10.4103 12.4574 9.60004 12.8081C8.78982 13.1588 7.92315 13.3337 7.00004 13.3328ZM7.00004 11.9994C8.48893 11.9994 9.75004 11.4828 10.7834 10.4494C11.8167 9.41612 12.3334 8.15501 12.3334 6.66612C12.3334 5.17723 11.8167 3.91612 10.7834 2.88278C9.75004 1.84945 8.48893 1.33278 7.00004 1.33278C5.51115 1.33278 4.25004 1.84945 3.21671 2.88278C2.18337 3.91612 1.66671 5.17723 1.66671 6.66612C1.66671 8.15501 2.18337 9.41612 3.21671 10.4494C4.25004 11.4828 5.51115 11.9994 7.00004 11.9994Z" fill="#8A8A8A"/>
</svg>
