<svg width="16" height="16" viewBox="0 0 16 16" fill="none" xmlns="http://www.w3.org/2000/svg">
<path d="M7.99999 4.66666C4.31999 4.66666 1.33333 6.15999 1.33333 7.99999C1.33333 9.49332 3.29333 10.7533 5.99999 11.18V12.5267C5.99999 12.8267 6.35999 12.9733 6.56666 12.76L8.42666 10.9C8.55999 10.7667 8.55999 10.56 8.42666 10.4267L6.56666 8.56666C6.51966 8.52059 6.46008 8.48946 6.39542 8.4772C6.33077 8.46494 6.26392 8.47209 6.20332 8.49776C6.14272 8.52343 6.09108 8.56645 6.05489 8.62142C6.01871 8.6764 5.99961 8.74085 5.99999 8.80666V9.81999C3.89999 9.44666 2.66666 8.55332 2.66666 7.99999C2.66666 7.29332 4.69333 5.99999 7.99999 5.99999C11.3067 5.99999 13.3333 7.29332 13.3333 7.99999C13.3333 8.43999 12.5333 9.11999 11.12 9.55999C10.8467 9.64666 10.6667 9.89999 10.6667 10.1867C10.6667 10.6333 11.1 10.96 11.52 10.8267C13.4067 10.24 14.6667 9.19332 14.6667 7.99999C14.6667 6.15999 11.68 4.66666 7.99999 4.66666Z" fill="#8A8A8A"/>
</svg>
