<svg width="12" height="13" viewBox="0 0 12 13" fill="none" xmlns="http://www.w3.org/2000/svg">
<path opacity="0.5" d="M10.5001 11L8.3286 8.8285M8.3286 8.8285C8.70005 8.45705 8.99469 8.01608 9.19572 7.53077C9.39674 7.04545 9.50021 6.5253 9.50021 6C9.50021 5.4747 9.39674 4.95454 9.19572 4.46922C8.99469 3.98391 8.70005 3.54294 8.3286 3.1715C7.95716 2.80005 7.51619 2.50541 7.03088 2.30438C6.54556 2.10336 6.0254 1.99989 5.5001 1.99989C4.9748 1.99989 4.45464 2.10336 3.96933 2.30438C3.48401 2.50541 3.04305 2.80005 2.6716 3.1715C1.92144 3.92166 1.5 4.9391 1.5 6C1.5 7.06089 1.92144 8.07833 2.6716 8.8285C3.42177 9.57866 4.43921 10.0001 5.5001 10.0001C6.561 10.0001 7.57844 9.57866 8.3286 8.8285Z" stroke="#B0B0B0" stroke-width="1.5" stroke-linecap="round" stroke-linejoin="round"/>
</svg>
