<svg width="24" height="25" viewBox="0 0 24 25" fill="none" xmlns="http://www.w3.org/2000/svg">
<path d="M19.9 13.16C19.7397 12.9775 19.6513 12.7429 19.6513 12.5C19.6513 12.2571 19.7397 12.0225 19.9 11.84L21.18 10.4C21.3211 10.2427 21.4087 10.0447 21.4302 9.83451C21.4518 9.62431 21.4062 9.41269 21.3 9.23L19.3 5.77C19.1949 5.58752 19.0349 5.44288 18.8428 5.35669C18.6506 5.2705 18.4362 5.24716 18.23 5.29L16.35 5.67C16.1108 5.71943 15.8618 5.67959 15.6499 5.558C15.438 5.43641 15.278 5.24148 15.2 5.01L14.59 3.18C14.5229 2.98138 14.3951 2.80887 14.2246 2.68684C14.0542 2.56482 13.8497 2.49946 13.64 2.5H9.64002C9.42195 2.48862 9.20615 2.54893 9.02558 2.67171C8.84501 2.7945 8.7096 2.97302 8.64002 3.18L8.08002 5.01C8.00202 5.24148 7.84199 5.43641 7.63013 5.558C7.41827 5.67959 7.16924 5.71943 6.93002 5.67L5.00002 5.29C4.80457 5.26238 4.60532 5.29322 4.42737 5.37864C4.24941 5.46406 4.10072 5.60023 4.00002 5.77L2.00002 9.23C1.89118 9.41065 1.84224 9.62109 1.8602 9.83122C1.87816 10.0414 1.9621 10.2404 2.10002 10.4L3.37002 11.84C3.53034 12.0225 3.61875 12.2571 3.61875 12.5C3.61875 12.7429 3.53034 12.9775 3.37002 13.16L2.10002 14.6C1.9621 14.7596 1.87816 14.9586 1.8602 15.1688C1.84224 15.3789 1.89118 15.5894 2.00002 15.77L4.00002 19.23C4.10512 19.4125 4.26514 19.5571 4.45727 19.6433C4.6494 19.7295 4.86384 19.7528 5.07002 19.71L6.95002 19.33C7.18924 19.2806 7.43827 19.3204 7.65013 19.442C7.86199 19.5636 8.02202 19.7585 8.10002 19.99L8.71002 21.82C8.7796 22.027 8.91501 22.2055 9.09558 22.3283C9.27615 22.4511 9.49195 22.5114 9.71002 22.5H13.71C13.9197 22.5005 14.1242 22.4352 14.2946 22.3132C14.4651 22.1911 14.5929 22.0186 14.66 21.82L15.27 19.99C15.348 19.7585 15.508 19.5636 15.7199 19.442C15.9318 19.3204 16.1808 19.2806 16.42 19.33L18.3 19.71C18.5062 19.7528 18.7206 19.7295 18.9128 19.6433C19.1049 19.5571 19.2649 19.4125 19.37 19.23L21.37 15.77C21.4762 15.5873 21.5218 15.3757 21.5002 15.1655C21.4787 14.9553 21.3911 14.7573 21.25 14.6L19.9 13.16ZM18.41 14.5L19.21 15.4L17.93 17.62L16.75 17.38C16.0298 17.2328 15.2806 17.3551 14.6446 17.7238C14.0086 18.0925 13.5302 18.6818 13.3 19.38L12.92 20.5H10.36L10 19.36C9.76987 18.6618 9.2914 18.0725 8.65542 17.7038C8.01945 17.3351 7.27024 17.2128 6.55002 17.36L5.37002 17.6L4.07002 15.39L4.87002 14.49C5.36197 13.94 5.63395 13.2279 5.63395 12.49C5.63395 11.7521 5.36197 11.04 4.87002 10.49L4.07002 9.59L5.35002 7.39L6.53002 7.63C7.25024 7.77722 7.99945 7.65488 8.63542 7.2862C9.2714 6.91752 9.74987 6.32816 9.98002 5.63L10.36 4.5H12.92L13.3 5.64C13.5302 6.33816 14.0086 6.92752 14.6446 7.2962C15.2806 7.66488 16.0298 7.78722 16.75 7.64L17.93 7.4L19.21 9.62L18.41 10.52C17.9236 11.0688 17.655 11.7767 17.655 12.51C17.655 13.2433 17.9236 13.9512 18.41 14.5ZM11.64 8.5C10.8489 8.5 10.0755 8.7346 9.41774 9.17412C8.75994 9.61365 8.24725 10.2384 7.9445 10.9693C7.64175 11.7002 7.56254 12.5044 7.71688 13.2804C7.87122 14.0563 8.25218 14.769 8.81159 15.3284C9.371 15.8878 10.0837 16.2688 10.8597 16.4231C11.6356 16.5775 12.4398 16.4983 13.1708 16.1955C13.9017 15.8928 14.5264 15.3801 14.9659 14.7223C15.4054 14.0645 15.64 13.2911 15.64 12.5C15.64 11.4391 15.2186 10.4217 14.4684 9.67157C13.7183 8.92143 12.7009 8.5 11.64 8.5ZM11.64 14.5C11.2445 14.5 10.8578 14.3827 10.5289 14.1629C10.2 13.9432 9.94363 13.6308 9.79226 13.2654C9.64088 12.8999 9.60128 12.4978 9.67845 12.1098C9.75562 11.7219 9.9461 11.3655 10.2258 11.0858C10.5055 10.8061 10.8619 10.6156 11.2498 10.5384C11.6378 10.4613 12.0399 10.5009 12.4054 10.6522C12.7708 10.8036 13.0832 11.06 13.303 11.3889C13.5227 11.7178 13.64 12.1044 13.64 12.5C13.64 13.0304 13.4293 13.5391 13.0542 13.9142C12.6792 14.2893 12.1705 14.5 11.64 14.5Z" fill="white"/>
</svg>
