<svg width="24" height="24" viewBox="0 0 24 24" fill="none" xmlns="http://www.w3.org/2000/svg">
<path d="M11.777 9.99999L16.607 11.294M11 12.898L13.898 13.674M20.312 12.647C19.707 14.902 19.405 16.03 18.72 16.761C18.1795 17.3382 17.48 17.7422 16.71 17.922C16.6133 17.9447 16.515 17.962 16.415 17.974C15.5 18.087 14.383 17.788 12.351 17.244C10.096 16.639 8.96799 16.337 8.23699 15.652C7.65966 15.1112 7.25563 14.4114 7.07599 13.641C6.84799 12.665 7.14999 11.538 7.75499 9.28299L8.27199 7.35099L8.51599 6.44599C8.97099 4.77999 9.27699 3.86299 9.86399 3.23599C10.4046 2.65919 11.1041 2.25553 11.874 2.07599C12.85 1.84799 13.978 2.14999 16.234 2.75499C18.488 3.35899 19.616 3.66099 20.347 4.34499C20.9245 4.88605 21.3285 5.58625 21.508 6.35699C21.669 7.04699 21.565 7.81299 21.277 8.99999" stroke="#8A8A8A" stroke-width="1.5" stroke-linecap="round"/>
<path d="M3.272 16.647C3.876 18.902 4.179 20.03 4.864 20.761C5.40451 21.3382 6.10397 21.7422 6.874 21.922C7.85 22.149 8.978 21.847 11.234 21.243C13.488 20.639 14.616 20.337 15.347 19.652C15.8386 19.1915 16.206 18.6143 16.415 17.974M8.516 6.44501C8.16466 6.53634 7.77633 6.63967 7.351 6.75501C5.096 7.35901 3.968 7.66101 3.237 8.34501C2.65949 8.88606 2.25545 9.58626 2.076 10.357C1.915 11.047 2.019 11.813 2.307 13" stroke="#8A8A8A" stroke-width="1.5" stroke-linecap="round" stroke-linejoin="round"/>
</svg>
