<svg width="24" height="25" viewBox="0 0 24 25" fill="none" xmlns="http://www.w3.org/2000/svg">
<path d="M17 11.305C17 10.959 17 10.786 17.052 10.632C17.203 10.184 17.602 10.011 18.002 9.829C18.45 9.624 18.674 9.522 18.897 9.504C19.149 9.484 19.402 9.538 19.618 9.659C19.904 9.819 20.104 10.125 20.308 10.373C21.251 11.519 21.723 12.092 21.895 12.723C22.035 13.233 22.035 13.767 21.895 14.276C21.644 15.198 20.849 15.97 20.26 16.686C19.959 17.051 19.808 17.234 19.618 17.341C19.3983 17.4628 19.1474 17.5168 18.897 17.496C18.674 17.478 18.45 17.376 18.001 17.171C17.601 16.989 17.203 16.816 17.052 16.368C17 16.214 17 16.041 17 15.695V11.305ZM7.00003 11.305C7.00003 10.869 6.98803 10.478 6.63603 10.172C6.50803 10.061 6.33803 9.984 5.99903 9.829C5.55003 9.625 5.32603 9.522 5.10303 9.504C4.43603 9.45 4.07703 9.906 3.69303 10.374C2.74903 11.519 2.27703 12.092 2.10403 12.724C1.96483 13.2323 1.96483 13.7687 2.10403 14.277C2.35603 15.198 3.15203 15.971 3.74003 16.686C4.11103 17.136 4.46603 17.547 5.10303 17.496C5.32603 17.478 5.55003 17.376 5.99903 17.171C6.33903 17.017 6.50803 16.939 6.63603 16.828C6.98803 16.522 7.00003 16.131 7.00003 15.696V11.305Z" stroke="white" stroke-width="1.5" stroke-linecap="round" stroke-linejoin="round"/>
<path d="M5 9.5C5 6.186 8.134 3.5 12 3.5C15.866 3.5 19 6.186 19 9.5M19 17.5V18.3C19 20.067 17.21 21.5 15 21.5H13" stroke="white" stroke-width="1.5" stroke-linecap="round" stroke-linejoin="round"/>
</svg>
