<svg width="20" height="20" viewBox="0 0 20 20" fill="none" xmlns="http://www.w3.org/2000/svg">
<path d="M9.9999 0.399994C7.45382 0.399994 5.01203 1.41142 3.21168 3.21177C1.41133 5.01212 0.399902 7.45392 0.399902 9.99999C0.399902 12.5461 1.41133 14.9879 3.21168 16.7882C5.01203 18.5886 7.45382 19.6 9.9999 19.6C12.546 19.6 14.9878 18.5886 16.7881 16.7882C18.5885 14.9879 19.5999 12.5461 19.5999 9.99999C19.5999 7.45392 18.5885 5.01212 16.7881 3.21177C14.9878 1.41142 12.546 0.399994 9.9999 0.399994ZM1.5999 9.99999C1.5999 8.89689 1.81717 7.80459 2.23931 6.78545C2.66145 5.76632 3.28019 4.84031 4.06021 4.0603C4.84022 3.28028 5.76623 2.66155 6.78536 2.23941C7.8045 1.81727 8.8968 1.59999 9.9999 1.59999C11.103 1.59999 12.1953 1.81727 13.2144 2.23941C14.2336 2.66155 15.1596 3.28028 15.9396 4.0603C16.7196 4.84031 17.3384 5.76632 17.7605 6.78545C18.1826 7.80459 18.3999 8.89689 18.3999 9.99999C18.3999 12.2278 17.5149 14.3644 15.9396 15.9397C14.3643 17.515 12.2277 18.4 9.9999 18.4C7.77208 18.4 5.63551 17.515 4.06021 15.9397C2.4849 14.3644 1.5999 12.2278 1.5999 9.99999Z" fill="#8A8A8A"/>
</svg>
