<svg width="24" height="24" viewBox="0 0 24 24" fill="none" xmlns="http://www.w3.org/2000/svg">
<g clip-path="url(#clip0_2158_561)">
<path d="M18 16.5H20.25V18H16.5V13.5H18V16.5ZM15 6H3V4.5H15V6ZM17.25 10.5C18.1797 10.5 19.0547 10.6758 19.875 11.0273C20.6953 11.3789 21.4102 11.8633 22.0195 12.4805C22.6289 13.0977 23.1094 13.8125 23.4609 14.625C23.8125 15.4375 23.9922 16.3125 24 17.25C24 18.1797 23.8242 19.0547 23.4727 19.875C23.1211 20.6953 22.6367 21.4102 22.0195 22.0195C21.4023 22.6289 20.6875 23.1094 19.875 23.4609C19.0625 23.8125 18.1875 23.9922 17.25 24C16.3203 24 15.4453 23.8242 14.625 23.4727C13.8047 23.1211 13.0898 22.6367 12.4805 22.0195C11.8711 21.4023 11.3906 20.6875 11.0391 19.875C10.6875 19.0625 10.5078 18.1875 10.5 17.25C10.5 16.3203 10.6758 15.4453 11.0273 14.625C11.3789 13.8047 11.8633 13.0898 12.4805 12.4805C13.0977 11.8711 13.8125 11.3906 14.625 11.0391C15.4375 10.6875 16.3125 10.5078 17.25 10.5ZM17.25 22.5C17.9766 22.5 18.6562 22.3633 19.2891 22.0898C19.9219 21.8164 20.4766 21.4414 20.9531 20.9648C21.4297 20.4883 21.8047 19.9336 22.0781 19.3008C22.3516 18.668 22.4922 17.9844 22.5 17.25C22.5 16.5234 22.3633 15.8438 22.0898 15.2109C21.8164 14.5781 21.4414 14.0234 20.9648 13.5469C20.4883 13.0703 19.9336 12.6953 19.3008 12.4219C18.668 12.1484 17.9844 12.0078 17.25 12C16.5234 12 15.8438 12.1367 15.2109 12.4102C14.5781 12.6836 14.0234 13.0586 13.5469 13.5352C13.0703 14.0117 12.6953 14.5664 12.4219 15.1992C12.1484 15.832 12.0078 16.5156 12 17.25C12 17.9766 12.1367 18.6562 12.4102 19.2891C12.6836 19.9219 13.0586 20.4766 13.5352 20.9531C14.0117 21.4297 14.5664 21.8047 15.1992 22.0781C15.832 22.3516 16.5156 22.4922 17.25 22.5ZM13.6641 9C12.8125 9.375 12.0312 9.875 11.3203 10.5H3V9H13.6641ZM9.08203 13.5C8.97266 13.7422 8.875 13.9883 8.78906 14.2383C8.70312 14.4883 8.62109 14.7422 8.54297 15H3V13.5H9.08203ZM3 18H8.28516C8.30859 18.25 8.33984 18.5 8.37891 18.75C8.41797 19 8.47266 19.25 8.54297 19.5H3V18ZM9.96094 22.5C10.3516 23.0547 10.8047 23.5547 11.3203 24H0V0H18V8.28516L17.625 8.26172C17.5 8.25391 17.375 8.25 17.25 8.25C17.125 8.25 17 8.25391 16.875 8.26172C16.75 8.26953 16.625 8.27734 16.5 8.28516V1.5H1.5V22.5H9.96094Z" fill="black"/>
</g>
<defs>
<clipPath id="clip0_2158_561">
<rect width="24" height="24" fill="white"/>
</clipPath>
</defs>
</svg>
