<svg width="24" height="24" viewBox="0 0 24 24" fill="none" xmlns="http://www.w3.org/2000/svg">
<path d="M2.992 11.576C2.992 9.944 3.4 8.432 4.208 7.048C5.016 5.664 6.112 4.568 7.496 3.76C8.88 2.952 10.384 2.552 12.008 2.552C13.224 2.552 14.392 2.792 15.504 3.264C16.616 3.736 17.568 4.384 18.376 5.184C19.184 5.984 19.824 6.944 20.296 8.064C20.768 9.184 21.008 10.344 21.008 11.576C21.008 12.792 20.768 13.96 20.296 15.072C19.824 16.184 19.176 17.144 18.376 17.944C17.576 18.744 16.616 19.384 15.504 19.856C14.392 20.328 13.232 20.568 12.008 20.568C10.784 20.568 9.608 20.328 8.496 19.856C7.384 19.384 6.424 18.736 5.616 17.936C4.808 17.136 4.176 16.176 3.696 15.072C3.216 13.968 2.992 12.8 2.992 11.576ZM4.976 11.576C4.976 13.472 5.66401 15.12 7.04801 16.52C8.432 17.904 10.08 18.592 12.008 18.592C13.272 18.592 14.448 18.28 15.52 17.648C16.592 17.016 17.456 16.168 18.088 15.088C18.72 14.008 19.04 12.84 19.04 11.576C19.04 10.312 18.72 9.136 18.088 8.056C17.456 6.976 16.6 6.12 15.52 5.488C14.44 4.856 13.272 4.544 12.008 4.544C10.744 4.544 9.568 4.856 8.496 5.488C7.424 6.12 6.56 6.976 5.92 8.056C5.28 9.136 4.976 10.312 4.976 11.576ZM11.312 11.576V6.248C11.312 6.064 11.376 5.904 11.504 5.776C11.632 5.648 11.792 5.584 11.976 5.584C12.16 5.584 12.32 5.648 12.448 5.776C12.576 5.904 12.64 6.064 12.64 6.248V11.168L15.512 12.84C15.672 12.936 15.768 13.072 15.816 13.248C15.864 13.424 15.84 13.592 15.744 13.744C15.616 13.968 15.424 14.08 15.168 14.08C15.032 14.08 14.92 14.048 14.832 13.984L11.776 12.2C11.64 12.16 11.528 12.08 11.44 11.968C11.352 11.856 11.312 11.728 11.312 11.576Z" fill="black"/>
</svg>
