<svg width="16" height="16" viewBox="0 0 16 16" fill="none" xmlns="http://www.w3.org/2000/svg">
<g clip-path="url(#clip0_250_2292)">
<path d="M8.00001 14C8.78794 14 9.56815 13.8448 10.2961 13.5433C11.0241 13.2417 11.6855 12.7998 12.2426 12.2426C12.7998 11.6855 13.2418 11.024 13.5433 10.2961C13.8448 9.56814 14 8.78792 14 7.99999C14 7.21206 13.8448 6.43184 13.5433 5.70389C13.2418 4.97594 12.7998 4.3145 12.2426 3.75735C11.6855 3.2002 11.0241 2.75824 10.2961 2.45671C9.56815 2.15518 8.78794 1.99999 8.00001 1.99999C6.40871 1.99999 4.88258 2.63213 3.75736 3.75735C2.63215 4.88257 2.00001 6.40869 2.00001 7.99999C2.00001 9.59129 2.63215 11.1174 3.75736 12.2426C4.88258 13.3678 6.40871 14 8.00001 14ZM15.3333 7.99999C15.3333 12.05 12.05 15.3333 8.00001 15.3333C3.95001 15.3333 0.666672 12.05 0.666672 7.99999C0.666672 3.94999 3.95001 0.666656 8.00001 0.666656C12.05 0.666656 15.3333 3.94999 15.3333 7.99999ZM10 10.9427L7.33334 8.27599V3.66666H8.66667V7.72399L10.9427 9.99999L10 10.9427Z" fill="#8A8A8A"/>
</g>
<defs>
<clipPath id="clip0_250_2292">
<rect width="16" height="16" fill="white"/>
</clipPath>
</defs>
</svg>
