<svg width="16" height="16" viewBox="0 0 16 16" fill="none" xmlns="http://www.w3.org/2000/svg">
<path d="M12.6667 2.66668H11.3333V2.00001C11.3333 1.8232 11.2631 1.65363 11.1381 1.52861C11.013 1.40358 10.8435 1.33334 10.6667 1.33334C10.4899 1.33334 10.3203 1.40358 10.1953 1.52861C10.0702 1.65363 9.99999 1.8232 9.99999 2.00001V2.66668H5.99999V2.00001C5.99999 1.8232 5.92976 1.65363 5.80473 1.52861C5.67971 1.40358 5.51014 1.33334 5.33333 1.33334C5.15652 1.33334 4.98695 1.40358 4.86192 1.52861C4.7369 1.65363 4.66666 1.8232 4.66666 2.00001V2.66668H3.33333C2.8029 2.66668 2.29419 2.87739 1.91911 3.25246C1.54404 3.62754 1.33333 4.13624 1.33333 4.66668V12.6667C1.33333 13.1971 1.54404 13.7058 1.91911 14.0809C2.29419 14.456 2.8029 14.6667 3.33333 14.6667H12.6667C13.1971 14.6667 13.7058 14.456 14.0809 14.0809C14.4559 13.7058 14.6667 13.1971 14.6667 12.6667V4.66668C14.6667 4.13624 14.4559 3.62754 14.0809 3.25246C13.7058 2.87739 13.1971 2.66668 12.6667 2.66668ZM13.3333 12.6667C13.3333 12.8435 13.2631 13.0131 13.1381 13.1381C13.013 13.2631 12.8435 13.3333 12.6667 13.3333H3.33333C3.15652 13.3333 2.98695 13.2631 2.86192 13.1381C2.7369 13.0131 2.66666 12.8435 2.66666 12.6667V8.00001H13.3333V12.6667ZM13.3333 6.66668H2.66666V4.66668C2.66666 4.48987 2.7369 4.3203 2.86192 4.19527C2.98695 4.07025 3.15652 4.00001 3.33333 4.00001H4.66666V4.66668C4.66666 4.84349 4.7369 5.01306 4.86192 5.13808C4.98695 5.26311 5.15652 5.33334 5.33333 5.33334C5.51014 5.33334 5.67971 5.26311 5.80473 5.13808C5.92976 5.01306 5.99999 4.84349 5.99999 4.66668V4.00001H9.99999V4.66668C9.99999 4.84349 10.0702 5.01306 10.1953 5.13808C10.3203 5.26311 10.4899 5.33334 10.6667 5.33334C10.8435 5.33334 11.013 5.26311 11.1381 5.13808C11.2631 5.01306 11.3333 4.84349 11.3333 4.66668V4.00001H12.6667C12.8435 4.00001 13.013 4.07025 13.1381 4.19527C13.2631 4.3203 13.3333 4.48987 13.3333 4.66668V6.66668Z" fill="#8A8A8A"/>
</svg>
