<svg width="24" height="24" viewBox="0 0 24 24" fill="none" xmlns="http://www.w3.org/2000/svg">
<path d="M11.9999 2.39999C9.45382 2.39999 7.01203 3.41142 5.21168 5.21177C3.41133 7.01212 2.3999 9.45392 2.3999 12C2.3999 14.5461 3.41133 16.9879 5.21168 18.7882C7.01203 20.5886 9.45382 21.6 11.9999 21.6C14.546 21.6 16.9878 20.5886 18.7881 18.7882C20.5885 16.9879 21.5999 14.5461 21.5999 12C21.5999 9.45392 20.5885 7.01212 18.7881 5.21177C16.9878 3.41142 14.546 2.39999 11.9999 2.39999ZM3.5999 12C3.5999 10.8969 3.81717 9.80459 4.23931 8.78545C4.66145 7.76632 5.28019 6.84031 6.06021 6.0603C6.84022 5.28028 7.76623 4.66155 8.78536 4.23941C9.8045 3.81727 10.8968 3.59999 11.9999 3.59999C13.103 3.59999 14.1953 3.81727 15.2144 4.23941C16.2336 4.66155 17.1596 5.28028 17.9396 6.0603C18.7196 6.84031 19.3384 7.76632 19.7605 8.78545C20.1826 9.80459 20.3999 10.8969 20.3999 12C20.3999 14.2278 19.5149 16.3644 17.9396 17.9397C16.3643 19.515 14.2277 20.4 11.9999 20.4C9.77208 20.4 7.63551 19.515 6.06021 17.9397C4.4849 16.3644 3.5999 14.2278 3.5999 12Z" fill="#8A8A8A"/>
</svg>
