<svg width="24" height="25" viewBox="0 0 24 25" fill="none" xmlns="http://www.w3.org/2000/svg">
<path d="M4.57922 8.995L3.98622 7.969C3.85267 7.74119 3.63443 7.57546 3.37914 7.50796C3.12384 7.44047 2.85221 7.47669 2.62353 7.60873C2.39484 7.74076 2.22766 7.95789 2.15847 8.21274C2.08928 8.46758 2.1237 8.73944 2.25422 8.969L4.00422 12C4.13683 12.2297 4.35525 12.3973 4.61142 12.4659C4.86759 12.5345 5.14054 12.4986 5.37022 12.366L8.40122 10.616C8.62903 10.4825 8.79476 10.2642 8.86226 10.0089C8.92975 9.75362 8.89353 9.48199 8.7615 9.25331C8.62946 9.02462 8.41233 8.85744 8.15749 8.78825C7.90264 8.71906 7.63078 8.75348 7.40122 8.884L6.62722 9.331C7.30003 8.00506 8.37758 6.9278 9.7037 6.25533C11.0298 5.58286 12.5356 5.35013 14.0029 5.59086C15.4701 5.83158 16.8226 6.53326 17.8644 7.59421C18.9061 8.65516 19.5829 10.0203 19.7968 11.4917C20.0106 12.9631 19.7504 14.4644 19.0538 15.778C18.3572 17.0916 17.2605 18.1493 15.9224 18.7977C14.5844 19.4462 13.0747 19.6517 11.612 19.3846C10.1493 19.1175 8.80966 18.3915 7.78722 17.312C7.60475 17.1195 7.35327 17.0073 7.08809 17.0002C6.82291 16.993 6.56577 17.0915 6.37322 17.274C6.18067 17.4565 6.0685 17.708 6.06137 17.9731C6.05425 18.2383 6.15275 18.4955 6.33522 18.688C7.35999 19.7703 8.6375 20.5811 10.053 21.0477C11.4686 21.5142 12.9778 21.6219 14.4453 21.3611C15.9128 21.1003 17.2925 20.4791 18.4606 19.5534C19.6286 18.6276 20.5485 17.4263 21.1376 16.0572C21.7267 14.6881 21.9665 13.1941 21.8356 11.7094C21.7047 10.2247 21.2071 8.79578 20.3875 7.55091C19.5679 6.30603 18.452 5.2842 17.1399 4.57715C15.8278 3.8701 14.3607 3.49997 12.8702 3.5C11.101 3.4995 9.37085 4.02047 7.89606 4.9978C6.42126 5.97512 5.26824 7.36545 4.57922 8.995Z" fill="white"/>
<path d="M12.8701 7.5C13.1353 7.5 13.3897 7.60536 13.5772 7.79289C13.7648 7.98043 13.8701 8.23478 13.8701 8.5V12.086L15.5771 13.793C15.7593 13.9816 15.8601 14.2342 15.8578 14.4964C15.8555 14.7586 15.7503 15.0094 15.5649 15.1948C15.3795 15.3802 15.1287 15.4854 14.8665 15.4877C14.6043 15.49 14.3517 15.3892 14.1631 15.207L12.1631 13.207C11.9756 13.0195 11.8702 12.7652 11.8701 12.5V8.5C11.8701 8.23478 11.9755 7.98043 12.163 7.79289C12.3505 7.60536 12.6049 7.5 12.8701 7.5Z" fill="white"/>
</svg>
