<svg width="56" height="56" viewBox="0 0 56 56" fill="none" xmlns="http://www.w3.org/2000/svg">
<rect width="56" height="56" rx="8" fill="white"/>
<path d="M37.25 28H24.895M20.534 28H18.75M20.534 28C20.534 27.4218 20.7637 26.8674 21.1725 26.4585C21.5813 26.0497 22.1358 25.82 22.714 25.82C23.2922 25.82 23.8467 26.0497 24.2555 26.4585C24.6643 26.8674 24.894 27.4218 24.894 28C24.894 28.5782 24.6643 29.1327 24.2555 29.5415C23.8467 29.9503 23.2922 30.18 22.714 30.18C22.1358 30.18 21.5813 29.9503 21.1725 29.5415C20.7637 29.1327 20.534 28.5782 20.534 28ZM37.25 34.607H31.502M31.502 34.607C31.502 35.1853 31.2718 35.7404 30.8628 36.1494C30.4539 36.5583 29.8993 36.788 29.321 36.788C28.7428 36.788 28.1883 36.5573 27.7795 36.1485C27.3707 35.7397 27.141 35.1852 27.141 34.607M31.502 34.607C31.502 34.0287 31.2718 33.4746 30.8628 33.0657C30.4539 32.6567 29.8993 32.427 29.321 32.427C28.7428 32.427 28.1883 32.6567 27.7795 33.0655C27.3707 33.4744 27.141 34.0288 27.141 34.607M27.141 34.607H18.75M37.25 21.393H34.145M29.784 21.393H18.75M29.784 21.393C29.784 20.8148 30.0137 20.2603 30.4225 19.8515C30.8313 19.4427 31.3858 19.213 31.964 19.213C32.2503 19.213 32.5338 19.2694 32.7983 19.379C33.0627 19.4885 33.3031 19.6491 33.5055 19.8515C33.7079 20.054 33.8685 20.2943 33.9781 20.5588C34.0876 20.8233 34.144 21.1067 34.144 21.393C34.144 21.6793 34.0876 21.9628 33.9781 22.2273C33.8685 22.4918 33.7079 22.7321 33.5055 22.9345C33.3031 23.1369 33.0627 23.2975 32.7983 23.4071C32.5338 23.5166 32.2503 23.573 31.964 23.573C31.3858 23.573 30.8313 23.3433 30.4225 22.9345C30.0137 22.5257 29.784 21.9712 29.784 21.393Z" stroke="black" stroke-width="1.5" stroke-miterlimit="10" stroke-linecap="round"/>
</svg>
