<svg width="34" height="34" viewBox="0 0 34 34" fill="none" xmlns="http://www.w3.org/2000/svg">
<path d="M33.1875 17.0001H11.5663M3.9345 17.0001H0.8125M3.9345 17.0001C3.9345 15.9883 4.33644 15.0179 5.05189 14.3024C5.76734 13.587 6.7377 13.1851 7.7495 13.1851C8.7613 13.1851 9.73166 13.587 10.4471 14.3024C11.1626 15.0179 11.5645 15.9883 11.5645 17.0001C11.5645 18.0119 11.1626 18.9822 10.4471 19.6977C9.73166 20.4131 8.7613 20.8151 7.7495 20.8151C6.7377 20.8151 5.76734 20.4131 5.05189 19.6977C4.33644 18.9822 3.9345 18.0119 3.9345 17.0001ZM33.1875 28.5623H23.1285M23.1285 28.5623C23.1285 29.5743 22.7256 30.5458 22.01 31.2614C21.2944 31.977 20.3238 32.3791 19.3118 32.3791C18.2999 32.3791 17.3296 31.9754 16.6141 31.2599C15.8987 30.5445 15.4967 29.5741 15.4967 28.5623M23.1285 28.5623C23.1285 27.5503 22.7256 26.5806 22.01 25.8649C21.2944 25.1493 20.3238 24.7473 19.3118 24.7473C18.2999 24.7473 17.3296 25.1492 16.6141 25.8647C15.8987 26.5801 15.4967 27.5505 15.4967 28.5623M15.4967 28.5623H0.8125M33.1875 5.4378H27.7538M20.122 5.4378H0.8125M20.122 5.4378C20.122 4.426 20.5239 3.45564 21.2394 2.74019C21.9548 2.02474 22.9252 1.6228 23.937 1.6228C24.438 1.6228 24.9341 1.72148 25.3969 1.9132C25.8598 2.10492 26.2804 2.38593 26.6346 2.74019C26.9889 3.09445 27.2699 3.51501 27.4616 3.97787C27.6533 4.44072 27.752 4.93681 27.752 5.4378C27.752 5.9388 27.6533 6.43488 27.4616 6.89774C27.2699 7.3606 26.9889 7.78116 26.6346 8.13541C26.2804 8.48967 25.8598 8.77068 25.3969 8.9624C24.9341 9.15412 24.438 9.2528 23.937 9.2528C22.9252 9.2528 21.9548 8.85087 21.2394 8.13541C20.5239 7.41996 20.122 6.4496 20.122 5.4378Z" stroke="white" stroke-width="1.5" stroke-miterlimit="10" stroke-linecap="round"/>
</svg>
