<svg width="36" height="36" viewBox="0 0 36 36" fill="none" xmlns="http://www.w3.org/2000/svg">
<rect width="36" height="36" rx="18" fill="white"/>
<path d="M19.5 9C19.5 8.60218 19.342 8.22064 19.0607 7.93934C18.7794 7.65804 18.3978 7.5 18 7.5C17.6022 7.5 17.2206 7.65804 16.9393 7.93934C16.658 8.22064 16.5 8.60218 16.5 9V16.5H9C8.60218 16.5 8.22064 16.658 7.93934 16.9393C7.65804 17.2206 7.5 17.6022 7.5 18C7.5 18.3978 7.65804 18.7794 7.93934 19.0607C8.22064 19.342 8.60218 19.5 9 19.5H16.5V27C16.5 27.3978 16.658 27.7794 16.9393 28.0607C17.2206 28.342 17.6022 28.5 18 28.5C18.3978 28.5 18.7794 28.342 19.0607 28.0607C19.342 27.7794 19.5 27.3978 19.5 27V19.5H27C27.3978 19.5 27.7794 19.342 28.0607 19.0607C28.342 18.7794 28.5 18.3978 28.5 18C28.5 17.6022 28.342 17.2206 28.0607 16.9393C27.7794 16.658 27.3978 16.5 27 16.5H19.5V9Z" fill="black"/>
</svg>
