<svg width="10" height="15" viewBox="0 0 10 15" fill="none" xmlns="http://www.w3.org/2000/svg">
<path fill-rule="evenodd" clip-rule="evenodd" d="M9.06001 6.44C9.34091 6.72125 9.49869 7.1025 9.49869 7.5C9.49869 7.8975 9.34091 8.27875 9.06001 8.56L3.40401 14.218C3.12262 14.4993 2.74102 14.6572 2.34316 14.6571C1.9453 14.657 1.56377 14.4989 1.28251 14.2175C1.00125 13.9361 0.84329 13.5545 0.843384 13.1566C0.843478 12.7588 1.00162 12.3773 1.28301 12.096L5.87901 7.5L1.28301 2.904C1.00964 2.62123 0.858265 2.2424 0.861496 1.8491C0.864727 1.4558 1.0223 1.0795 1.30028 0.80126C1.57827 0.523015 1.95441 0.365084 2.34771 0.361483C2.741 0.357881 3.11998 0.508896 3.40301 0.782003L9.06101 6.439L9.06001 6.44Z" fill="white"/>
</svg>
