<svg width="24" height="24" viewBox="0 0 24 24" fill="none" xmlns="http://www.w3.org/2000/svg">
<path d="M9.59982 15.65L11.9998 13.8L14.3998 15.65L13.4998 12.6L15.7498 11H12.9498L11.9998 7.9L11.0498 11H8.24982L10.4998 12.6L9.59982 15.65ZM11.9998 16.3L8.29982 19.125C8.11649 19.275 7.91649 19.346 7.69982 19.338C7.48315 19.33 7.29149 19.2673 7.12482 19.15C6.95815 19.0327 6.82915 18.8743 6.73782 18.675C6.64649 18.4757 6.64215 18.259 6.72482 18.025L8.14982 13.4L4.52482 10.825C4.32482 10.6917 4.19982 10.5167 4.14982 10.3C4.09982 10.0833 4.10815 9.88333 4.17482 9.7C4.24149 9.51666 4.35815 9.354 4.52482 9.212C4.69149 9.07 4.89149 8.99933 5.12482 9H9.59982L11.0498 4.2C11.1332 3.96666 11.2625 3.78733 11.4378 3.662C11.6132 3.53666 11.8005 3.47433 11.9998 3.475C12.1992 3.47566 12.3868 3.53833 12.5628 3.663C12.7388 3.78766 12.8678 3.96666 12.9498 4.2L14.3998 9H18.8748C19.1082 9 19.3082 9.071 19.4748 9.213C19.6415 9.355 19.7582 9.51733 19.8248 9.7C19.8915 9.88266 19.8998 10.0827 19.8498 10.3C19.7998 10.5173 19.6748 10.6923 19.4748 10.825L15.8498 13.4L17.2748 18.025C17.3582 18.2583 17.3542 18.475 17.2628 18.675C17.1715 18.875 17.0422 19.0333 16.8748 19.15C16.7075 19.2667 16.5158 19.3293 16.2998 19.338C16.0838 19.3467 15.8838 19.2757 15.6998 19.125L11.9998 16.3Z" fill="white"/>
</svg>
